G04*
G04 #@! TF.GenerationSoftware,Altium Limited,Altium Designer,19.0.9 (268)*
G04*
G04 Layer_Color=16711935*
%FSLAX25Y25*%
%MOIN*%
G70*
G01*
G75*
%ADD36R,0.04724X0.06693*%
%ADD49R,0.06496X0.04724*%
%ADD51R,0.04724X0.06496*%
%ADD59R,0.05118X0.06102*%
%ADD61C,0.08661*%
%ADD62C,0.08284*%
%ADD63R,0.08284X0.08284*%
%ADD64C,0.07874*%
%ADD65R,0.07874X0.07874*%
%ADD66R,0.07874X0.07874*%
%ADD67C,0.03937*%
%ADD94R,0.13780X0.24410*%
%ADD95R,0.07874X0.10630*%
%ADD96O,0.08268X0.03150*%
%ADD97R,0.09646X0.04724*%
D36*
X146555Y224902D02*
D03*
X138681D02*
D03*
X130807D02*
D03*
X122933D02*
D03*
X115059D02*
D03*
X107185D02*
D03*
D49*
X368521Y111909D02*
D03*
Y119783D02*
D03*
X381120Y119783D02*
D03*
Y111909D02*
D03*
X204271Y111811D02*
D03*
Y119685D02*
D03*
X189495Y119783D02*
D03*
Y111909D02*
D03*
X341146Y111909D02*
D03*
Y119783D02*
D03*
X353745Y119783D02*
D03*
Y111909D02*
D03*
X326370Y119783D02*
D03*
Y111909D02*
D03*
X286949Y111713D02*
D03*
Y119587D02*
D03*
X299547Y119685D02*
D03*
Y111811D02*
D03*
X259882Y111811D02*
D03*
Y119685D02*
D03*
X231646Y111811D02*
D03*
Y119685D02*
D03*
X162120Y119783D02*
D03*
Y111909D02*
D03*
X176896Y111811D02*
D03*
Y119685D02*
D03*
X149521Y111811D02*
D03*
Y119685D02*
D03*
X313771Y111811D02*
D03*
Y119685D02*
D03*
X272480Y119685D02*
D03*
Y111811D02*
D03*
X244245Y119783D02*
D03*
Y111909D02*
D03*
X216870Y119783D02*
D03*
Y111909D02*
D03*
D51*
X250000Y303543D02*
D03*
X257874D02*
D03*
X55216Y264272D02*
D03*
X63090D02*
D03*
X71653Y254035D02*
D03*
X79528D02*
D03*
X79626Y243799D02*
D03*
X71752D02*
D03*
X128346Y126575D02*
D03*
X136221D02*
D03*
X128346Y136106D02*
D03*
X136221D02*
D03*
X128346Y145636D02*
D03*
X136221D02*
D03*
X128346Y155167D02*
D03*
X136221D02*
D03*
X128346Y164698D02*
D03*
X136221D02*
D03*
X128346Y174229D02*
D03*
X136221D02*
D03*
X128346Y183760D02*
D03*
X136221D02*
D03*
X294882Y148130D02*
D03*
X302756D02*
D03*
X294980Y157087D02*
D03*
X302854D02*
D03*
X353937Y181004D02*
D03*
X346063D02*
D03*
X190748Y175886D02*
D03*
X182874D02*
D03*
D59*
X257874Y312205D02*
D03*
X250000D02*
D03*
X55216Y273819D02*
D03*
X63090D02*
D03*
D61*
X449016Y164567D02*
D03*
X369390D02*
D03*
D62*
X88189Y23228D02*
D03*
X74410D02*
D03*
X416929Y22244D02*
D03*
X199680Y23143D02*
D03*
X228719D02*
D03*
X257759D02*
D03*
X286800D02*
D03*
X315840D02*
D03*
X344880D02*
D03*
D63*
X60630Y23228D02*
D03*
X397244Y22244D02*
D03*
X185900Y23143D02*
D03*
X214940D02*
D03*
X243980D02*
D03*
X273020D02*
D03*
X302060D02*
D03*
X331100D02*
D03*
D64*
X307697Y322441D02*
D03*
X297696Y322441D02*
D03*
X317697Y322441D02*
D03*
X269921Y322539D02*
D03*
X259921Y322441D02*
D03*
X239921Y322441D02*
D03*
X249921Y322441D02*
D03*
X185237Y275157D02*
D03*
X185236Y285157D02*
D03*
X175236Y265158D02*
D03*
Y275157D02*
D03*
Y285157D02*
D03*
X209350Y74543D02*
D03*
Y84543D02*
D03*
X181975Y74543D02*
D03*
Y84543D02*
D03*
X154600Y74543D02*
D03*
Y84543D02*
D03*
X292028Y74543D02*
D03*
Y84543D02*
D03*
X264961Y74543D02*
D03*
Y84543D02*
D03*
X236725Y74543D02*
D03*
Y84543D02*
D03*
X373600Y74543D02*
D03*
Y84543D02*
D03*
X346225Y74543D02*
D03*
Y84543D02*
D03*
X318850Y74543D02*
D03*
Y84543D02*
D03*
X72874Y310689D02*
D03*
Y300689D02*
D03*
X82874Y310689D02*
D03*
Y279980D02*
D03*
D65*
X287697Y322441D02*
D03*
X229921D02*
D03*
X209350Y94543D02*
D03*
X181975D02*
D03*
X154600D02*
D03*
X292028D02*
D03*
X264961D02*
D03*
X236725D02*
D03*
X373600D02*
D03*
X346225D02*
D03*
X318850D02*
D03*
D66*
X185237Y265157D02*
D03*
X82874Y300689D02*
D03*
X82874Y269980D02*
D03*
D67*
X274583Y201181D02*
D03*
X270253Y201181D02*
D03*
D94*
X24882Y61776D02*
D03*
X44882D02*
D03*
X64882D02*
D03*
D95*
X30906Y228776D02*
D03*
X40945D02*
D03*
X50906D02*
D03*
X60866D02*
D03*
D96*
X332874Y180984D02*
D03*
Y175984D02*
D03*
Y170984D02*
D03*
Y165984D02*
D03*
Y160984D02*
D03*
Y155984D02*
D03*
Y150984D02*
D03*
Y145984D02*
D03*
X314370Y180984D02*
D03*
Y175984D02*
D03*
Y170984D02*
D03*
Y165984D02*
D03*
Y160984D02*
D03*
Y155984D02*
D03*
Y150984D02*
D03*
Y145984D02*
D03*
X169783Y174882D02*
D03*
Y169882D02*
D03*
Y164882D02*
D03*
Y159882D02*
D03*
Y154882D02*
D03*
Y149882D02*
D03*
Y144882D02*
D03*
Y139882D02*
D03*
X151279Y174882D02*
D03*
Y169882D02*
D03*
Y164882D02*
D03*
Y159882D02*
D03*
Y154882D02*
D03*
Y149882D02*
D03*
Y144882D02*
D03*
Y139882D02*
D03*
D97*
X96850Y230807D02*
D03*
Y238681D02*
D03*
Y246555D02*
D03*
Y254429D02*
D03*
Y262303D02*
D03*
Y270177D02*
D03*
Y278051D02*
D03*
Y285925D02*
D03*
X156890D02*
D03*
Y278051D02*
D03*
Y270177D02*
D03*
Y262303D02*
D03*
Y254429D02*
D03*
Y246555D02*
D03*
Y238681D02*
D03*
Y230807D02*
D03*
M02*
