M48
;Layer_Color=9474304
;FILE_FORMAT=2:5
INCH,LZ
;TYPE=PLATED
T1F00S00C0.01575
T2F00S00C0.01968
T3F00S00C0.02800
T4F00S00C0.03543
T5F00S00C0.03937
T6F00S00C0.04528
T7F00S00C0.05118
%
T01
X0177559Y0225984
X018189Y0226772
X021811Y0235827
X0243701Y0219685
X0262204Y0229133
X0280709Y0236221
X0285039Y023622
X0126279Y0210335
X0123726Y02069
X0120085Y0203159
X0117033Y0200207
X0114277Y0196958
X0111324Y0193907
X010847Y0190757
X0105517Y0187706
X0077559Y0184252
Y0179921
X0077559Y0211811
X0081496Y0208268
X0082459Y0223447
X0086915Y0225984
X0166535Y0273228
X019813Y0258268
X0205906Y0254331
X0227165Y0261811
Y0270866
X0223228Y027874
X0236614Y026811
X0234778Y0250894
X0261024Y024685
X0295669Y0259055
X0261024Y0295276
X0254035Y0288681
X0239921Y0299213
T02
X0469488Y0164567
X0469783Y0216339
X0442618Y0232677
X0389075Y0127165
X0360925Y0127362
X033355
X0306728Y0127264
X0279661
X0251425Y0127362
X022405
X0196675
X0162106
X0217717Y0151181
X022705Y0228346
X0249213Y0216142
X0267323Y0233071
X0270253Y0201181
X0274583Y0201181
X0296063Y0212616
X0296341Y0180709
X0144291Y0237992
X0107677Y0236221
X0062106Y0216732
X0040682Y0182841
X0126772Y0328346
X0144075Y0287008
X014685Y026998
X0241339Y0274527
X0367126Y0261614
X0423228Y0261713
X0452264Y0270768
T03
X0394685Y0217126
T04
X0082874Y026998
X0082874Y027998
Y0300689
Y0310689
X0072874Y0310689
Y0300689
X0175236Y0285157
X0185236
X0185237Y0275157
Y0265157
X0175236Y0265158
Y0275157
X0229921Y0322441
X0239921
X0249921Y0322441
X0259921
X0269921Y0322539
X0287697Y0322441
X0297696
X0307697Y0322441
X0317697
T05
X006063Y0023228
X007441
X0088189
X01859Y0023143
X019968
X021494
X0228719
X024398
X0257759
X027302
X02868
X030206
X031584
X03311
X034488
X036939Y0164567
X0449016
T06
X01546Y0074543
Y0084543
X0181975
Y0074543
X020935
Y0084543
X0236725
Y0074543
X0264961
Y0084543
X0292028
Y0074543
X031885
Y0084543
X0346225
Y0074543
X03736
Y0084543
Y0094543
X0346225
X031885
X0292028
X0264961
X0236725
X020935
X0181975
X01546
T07
X0397244Y0022244
X0416929
M30
