G04*
G04 #@! TF.GenerationSoftware,Altium Limited,Altium Designer,19.0.9 (268)*
G04*
G04 Layer_Color=32896*
%FSLAX25Y25*%
%MOIN*%
G70*
G01*
G75*
%ADD10C,0.00984*%
%ADD12C,0.00787*%
%ADD14C,0.00394*%
%ADD18C,0.01000*%
%ADD73C,0.01181*%
G36*
X151398Y285925D02*
X146398Y283425D01*
Y288425D01*
X151398Y285925D01*
D02*
G37*
G36*
X28150Y94174D02*
X28140Y93908D01*
X28130Y93672D01*
X28110Y93466D01*
X28091Y93288D01*
X28071Y93151D01*
X28061Y93092D01*
X28051Y93042D01*
X28041Y93003D01*
X28032Y92974D01*
Y92954D01*
X27982Y92777D01*
X27923Y92609D01*
X27854Y92472D01*
X27795Y92354D01*
X27746Y92255D01*
X27697Y92186D01*
X27667Y92137D01*
X27658Y92127D01*
X27549Y92009D01*
X27441Y91901D01*
X27323Y91803D01*
X27205Y91724D01*
X27107Y91655D01*
X27028Y91606D01*
X26969Y91576D01*
X26949Y91566D01*
X26772Y91488D01*
X26605Y91438D01*
X26438Y91399D01*
X26290Y91370D01*
X26152Y91350D01*
X26054Y91340D01*
X26014D01*
X25985D01*
X25975D01*
X25965D01*
X25729Y91360D01*
X25512Y91399D01*
X25316Y91458D01*
X25148Y91527D01*
X25011Y91596D01*
X24912Y91655D01*
X24873Y91675D01*
X24843Y91694D01*
X24834Y91714D01*
X24824D01*
X24656Y91862D01*
X24509Y92029D01*
X24391Y92206D01*
X24292Y92373D01*
X24214Y92531D01*
X24184Y92600D01*
X24164Y92649D01*
X24145Y92698D01*
X24135Y92737D01*
X24125Y92757D01*
Y92767D01*
X24027Y92580D01*
X23909Y92422D01*
X23800Y92285D01*
X23692Y92167D01*
X23594Y92078D01*
X23515Y92019D01*
X23466Y91980D01*
X23446Y91970D01*
X23279Y91881D01*
X23121Y91812D01*
X22964Y91773D01*
X22816Y91734D01*
X22698Y91714D01*
X22600Y91704D01*
X22570D01*
X22541D01*
X22531D01*
X22521D01*
X22324Y91714D01*
X22147Y91753D01*
X21980Y91803D01*
X21832Y91852D01*
X21704Y91911D01*
X21606Y91960D01*
X21547Y91999D01*
X21537Y92009D01*
X21527D01*
X21360Y92127D01*
X21212Y92265D01*
X21094Y92393D01*
X20996Y92531D01*
X20917Y92649D01*
X20858Y92737D01*
X20839Y92777D01*
X20829Y92806D01*
X20819Y92816D01*
Y92826D01*
X20740Y93032D01*
X20681Y93259D01*
X20642Y93495D01*
X20612Y93712D01*
X20593Y93908D01*
Y93997D01*
X20583Y94066D01*
Y97047D01*
X28150D01*
Y94174D01*
D02*
G37*
G36*
X24853Y88142D02*
X26930D01*
Y87266D01*
X24853D01*
Y85210D01*
X23987D01*
Y87266D01*
X21931D01*
Y88142D01*
X23987D01*
Y90199D01*
X24853D01*
Y88142D01*
D02*
G37*
G36*
X47441Y94174D02*
X47431Y93908D01*
X47421Y93672D01*
X47402Y93466D01*
X47382Y93288D01*
X47362Y93151D01*
X47352Y93092D01*
X47343Y93042D01*
X47333Y93003D01*
X47323Y92974D01*
Y92954D01*
X47274Y92777D01*
X47215Y92609D01*
X47146Y92472D01*
X47087Y92354D01*
X47038Y92255D01*
X46988Y92186D01*
X46959Y92137D01*
X46949Y92127D01*
X46841Y92009D01*
X46733Y91901D01*
X46614Y91803D01*
X46496Y91724D01*
X46398Y91655D01*
X46319Y91606D01*
X46260Y91576D01*
X46240Y91566D01*
X46063Y91488D01*
X45896Y91438D01*
X45729Y91399D01*
X45581Y91370D01*
X45443Y91350D01*
X45345Y91340D01*
X45306D01*
X45276D01*
X45266D01*
X45257D01*
X45020Y91360D01*
X44804Y91399D01*
X44607Y91458D01*
X44440Y91527D01*
X44302Y91596D01*
X44204Y91655D01*
X44164Y91675D01*
X44135Y91694D01*
X44125Y91714D01*
X44115D01*
X43948Y91862D01*
X43800Y92029D01*
X43682Y92206D01*
X43584Y92373D01*
X43505Y92531D01*
X43475Y92600D01*
X43456Y92649D01*
X43436Y92698D01*
X43426Y92737D01*
X43416Y92757D01*
Y92767D01*
X43318Y92580D01*
X43200Y92422D01*
X43092Y92285D01*
X42983Y92167D01*
X42885Y92078D01*
X42806Y92019D01*
X42757Y91980D01*
X42737Y91970D01*
X42570Y91881D01*
X42413Y91812D01*
X42255Y91773D01*
X42108Y91734D01*
X41990Y91714D01*
X41891Y91704D01*
X41862D01*
X41832D01*
X41822D01*
X41813D01*
X41616Y91714D01*
X41439Y91753D01*
X41271Y91803D01*
X41124Y91852D01*
X40996Y91911D01*
X40897Y91960D01*
X40838Y91999D01*
X40828Y92009D01*
X40819D01*
X40651Y92127D01*
X40504Y92265D01*
X40386Y92393D01*
X40287Y92531D01*
X40209Y92649D01*
X40150Y92737D01*
X40130Y92777D01*
X40120Y92806D01*
X40110Y92816D01*
Y92826D01*
X40031Y93032D01*
X39972Y93259D01*
X39933Y93495D01*
X39904Y93712D01*
X39884Y93908D01*
Y93997D01*
X39874Y94066D01*
Y97047D01*
X47441D01*
Y94174D01*
D02*
G37*
G36*
X45168Y87591D02*
X44233D01*
Y90445D01*
X45168D01*
Y87591D01*
D02*
G37*
G36*
X64863Y109823D02*
X65178Y109783D01*
X65463Y109724D01*
X65591Y109695D01*
X65709Y109656D01*
X65807Y109626D01*
X65906Y109597D01*
X65985Y109567D01*
X66053Y109537D01*
X66113Y109508D01*
X66152Y109498D01*
X66172Y109478D01*
X66181D01*
X66437Y109331D01*
X66654Y109154D01*
X66841Y108986D01*
X66988Y108819D01*
X67106Y108662D01*
X67156Y108603D01*
X67195Y108544D01*
X67225Y108494D01*
X67244Y108465D01*
X67264Y108445D01*
Y108435D01*
X67382Y108170D01*
X67471Y107875D01*
X67529Y107589D01*
X67569Y107314D01*
X67589Y107186D01*
X67598Y107068D01*
X67608Y106959D01*
Y106871D01*
X67618Y106792D01*
Y106694D01*
X67608Y106379D01*
X67589Y106094D01*
X67559Y105838D01*
X67539Y105729D01*
X67520Y105621D01*
X67500Y105523D01*
X67480Y105444D01*
X67471Y105365D01*
X67451Y105306D01*
X67441Y105257D01*
X67431Y105228D01*
X67421Y105208D01*
Y105198D01*
X67333Y104952D01*
X67215Y104696D01*
X67087Y104450D01*
X66969Y104224D01*
X66910Y104125D01*
X66851Y104027D01*
X66801Y103938D01*
X66752Y103870D01*
X66713Y103811D01*
X66683Y103771D01*
X66673Y103742D01*
X66664Y103732D01*
X64105D01*
Y106595D01*
X65355D01*
Y105356D01*
X65916D01*
X65995Y105493D01*
X66053Y105611D01*
X66103Y105729D01*
X66152Y105828D01*
X66181Y105906D01*
X66201Y105966D01*
X66221Y106005D01*
Y106015D01*
X66270Y106221D01*
X66290Y106320D01*
X66299Y106408D01*
Y106487D01*
X66309Y106556D01*
Y106605D01*
X66290Y106832D01*
X66241Y107038D01*
X66181Y107215D01*
X66103Y107353D01*
X66024Y107471D01*
X65965Y107550D01*
X65916Y107599D01*
X65896Y107619D01*
X65807Y107678D01*
X65719Y107737D01*
X65503Y107825D01*
X65276Y107894D01*
X65050Y107934D01*
X64843Y107963D01*
X64745Y107973D01*
X64666D01*
X64597Y107983D01*
X64548D01*
X64518D01*
X64509D01*
X64341D01*
X64184Y107963D01*
X64046Y107953D01*
X63908Y107924D01*
X63790Y107904D01*
X63682Y107875D01*
X63584Y107835D01*
X63495Y107806D01*
X63416Y107776D01*
X63348Y107737D01*
X63298Y107707D01*
X63249Y107688D01*
X63220Y107658D01*
X63190Y107648D01*
X63170Y107629D01*
X63092Y107560D01*
X63033Y107481D01*
X62924Y107324D01*
X62846Y107156D01*
X62796Y107009D01*
X62767Y106871D01*
X62757Y106753D01*
X62747Y106713D01*
Y106654D01*
X62757Y106507D01*
X62777Y106379D01*
X62806Y106261D01*
X62836Y106162D01*
X62875Y106084D01*
X62905Y106034D01*
X62924Y105995D01*
X62934Y105985D01*
X63003Y105897D01*
X63092Y105808D01*
X63170Y105749D01*
X63259Y105690D01*
X63328Y105651D01*
X63387Y105621D01*
X63426Y105611D01*
X63446Y105602D01*
X63131Y103811D01*
X62924Y103879D01*
X62738Y103958D01*
X62570Y104037D01*
X62432Y104116D01*
X62324Y104194D01*
X62246Y104253D01*
X62196Y104293D01*
X62177Y104303D01*
X62039Y104430D01*
X61931Y104568D01*
X61832Y104706D01*
X61753Y104834D01*
X61694Y104952D01*
X61645Y105041D01*
X61625Y105110D01*
X61616Y105119D01*
Y105129D01*
X61586Y105228D01*
X61557Y105336D01*
X61507Y105572D01*
X61478Y105818D01*
X61448Y106054D01*
Y106172D01*
X61439Y106271D01*
Y106369D01*
X61429Y106448D01*
Y106802D01*
X61439Y106979D01*
X61458Y107146D01*
X61478Y107304D01*
X61498Y107451D01*
X61517Y107589D01*
X61547Y107707D01*
X61576Y107825D01*
X61606Y107924D01*
X61625Y108012D01*
X61655Y108081D01*
X61675Y108150D01*
X61694Y108199D01*
X61714Y108229D01*
X61724Y108248D01*
Y108258D01*
X61881Y108534D01*
X62049Y108770D01*
X62236Y108977D01*
X62413Y109144D01*
X62580Y109272D01*
X62649Y109321D01*
X62708Y109360D01*
X62757Y109400D01*
X62796Y109419D01*
X62816Y109429D01*
X62826Y109439D01*
X63102Y109577D01*
X63397Y109675D01*
X63682Y109744D01*
X63948Y109793D01*
X64066Y109813D01*
X64174Y109823D01*
X64282Y109833D01*
X64361D01*
X64430Y109843D01*
X64489D01*
X64518D01*
X64528D01*
X64863Y109823D01*
D02*
G37*
G36*
X67520Y101055D02*
X66073D01*
X65886D01*
X65709Y101046D01*
X65552Y101036D01*
X65414Y101016D01*
X65276Y100996D01*
X65168Y100977D01*
X65060Y100947D01*
X64971Y100927D01*
X64892Y100908D01*
X64824Y100878D01*
X64764Y100859D01*
X64725Y100839D01*
X64686Y100819D01*
X64666Y100809D01*
X64646Y100800D01*
X64558Y100731D01*
X64489Y100642D01*
X64440Y100563D01*
X64400Y100485D01*
X64381Y100406D01*
X64371Y100347D01*
Y100298D01*
X64381Y100229D01*
X64391Y100150D01*
X64430Y100003D01*
X64460Y99934D01*
X64479Y99884D01*
X64489Y99845D01*
X64499Y99835D01*
X63318Y99314D01*
X63239Y99471D01*
X63180Y99629D01*
X63141Y99766D01*
X63111Y99884D01*
X63092Y99983D01*
X63082Y100052D01*
Y100121D01*
X63092Y100249D01*
X63111Y100367D01*
X63141Y100465D01*
X63170Y100544D01*
X63200Y100613D01*
X63229Y100672D01*
X63249Y100701D01*
X63259Y100711D01*
X63338Y100800D01*
X63436Y100878D01*
X63534Y100957D01*
X63643Y101026D01*
X63741Y101085D01*
X63820Y101134D01*
X63879Y101164D01*
X63889Y101173D01*
X63180D01*
Y102728D01*
X67520D01*
Y101055D01*
D02*
G37*
G36*
X65561Y99225D02*
X65749Y99205D01*
X65926Y99166D01*
X66083Y99107D01*
X66241Y99048D01*
X66388Y98989D01*
X66516Y98910D01*
X66634Y98841D01*
X66742Y98773D01*
X66831Y98694D01*
X66910Y98635D01*
X66979Y98566D01*
X67028Y98517D01*
X67067Y98477D01*
X67087Y98458D01*
X67097Y98448D01*
X67185Y98320D01*
X67264Y98192D01*
X67343Y98044D01*
X67402Y97907D01*
X67490Y97621D01*
X67549Y97356D01*
X67579Y97228D01*
X67589Y97110D01*
X67598Y97011D01*
X67608Y96923D01*
X67618Y96844D01*
Y96746D01*
X67608Y96529D01*
X67589Y96332D01*
X67559Y96145D01*
X67520Y95968D01*
X67471Y95801D01*
X67412Y95653D01*
X67362Y95506D01*
X67293Y95388D01*
X67234Y95279D01*
X67185Y95181D01*
X67126Y95092D01*
X67077Y95024D01*
X67037Y94974D01*
X67008Y94935D01*
X66988Y94915D01*
X66979Y94905D01*
X66851Y94787D01*
X66723Y94689D01*
X66595Y94591D01*
X66457Y94522D01*
X66319Y94453D01*
X66181Y94404D01*
X65926Y94315D01*
X65798Y94295D01*
X65689Y94276D01*
X65591Y94256D01*
X65512Y94246D01*
X65443Y94236D01*
X65384D01*
X65355D01*
X65345D01*
X65178Y94246D01*
X65020Y94256D01*
X64735Y94325D01*
X64479Y94404D01*
X64361Y94453D01*
X64253Y94502D01*
X64164Y94561D01*
X64076Y94610D01*
X64007Y94650D01*
X63948Y94689D01*
X63899Y94728D01*
X63869Y94758D01*
X63849Y94768D01*
X63840Y94778D01*
X63702Y94905D01*
X63594Y95053D01*
X63485Y95210D01*
X63397Y95368D01*
X63328Y95535D01*
X63269Y95693D01*
X63220Y95860D01*
X63180Y96017D01*
X63141Y96165D01*
X63121Y96303D01*
X63102Y96431D01*
X63092Y96539D01*
X63082Y96627D01*
Y96755D01*
X63092Y96962D01*
X63111Y97159D01*
X63141Y97346D01*
X63180Y97523D01*
X63229Y97680D01*
X63288Y97828D01*
X63348Y97966D01*
X63407Y98084D01*
X63466Y98202D01*
X63525Y98290D01*
X63584Y98379D01*
X63633Y98448D01*
X63672Y98497D01*
X63702Y98536D01*
X63722Y98556D01*
X63731Y98566D01*
X63859Y98684D01*
X63987Y98782D01*
X64115Y98871D01*
X64253Y98950D01*
X64391Y99019D01*
X64528Y99068D01*
X64784Y99146D01*
X64902Y99176D01*
X65020Y99196D01*
X65119Y99215D01*
X65197Y99225D01*
X65266Y99235D01*
X65325D01*
X65355D01*
X65365D01*
X65561Y99225D01*
D02*
G37*
G36*
X66241Y93439D02*
X66378Y93420D01*
X66506Y93400D01*
X66614Y93370D01*
X66723Y93341D01*
X66821Y93301D01*
X66900Y93262D01*
X66979Y93233D01*
X67037Y93193D01*
X67097Y93164D01*
X67136Y93134D01*
X67175Y93115D01*
X67195Y93095D01*
X67215Y93075D01*
X67352Y92918D01*
X67451Y92741D01*
X67520Y92563D01*
X67569Y92386D01*
X67598Y92229D01*
X67608Y92160D01*
Y92111D01*
X67618Y92062D01*
Y91993D01*
X67608Y91806D01*
X67589Y91638D01*
X67559Y91491D01*
X67529Y91363D01*
X67500Y91265D01*
X67471Y91186D01*
X67451Y91146D01*
X67441Y91127D01*
X67362Y90999D01*
X67264Y90871D01*
X67165Y90743D01*
X67057Y90635D01*
X66969Y90546D01*
X66890Y90477D01*
X66841Y90438D01*
X66821Y90418D01*
X67520D01*
Y88864D01*
X63180D01*
Y90527D01*
X65276D01*
X65483Y90536D01*
X65650Y90556D01*
X65798Y90586D01*
X65906Y90625D01*
X65995Y90664D01*
X66044Y90694D01*
X66083Y90714D01*
X66093Y90723D01*
X66172Y90802D01*
X66221Y90881D01*
X66260Y90960D01*
X66290Y91038D01*
X66309Y91107D01*
X66319Y91166D01*
Y91215D01*
X66309Y91314D01*
X66290Y91392D01*
X66270Y91471D01*
X66231Y91530D01*
X66201Y91580D01*
X66181Y91609D01*
X66162Y91629D01*
X66152Y91638D01*
X66083Y91688D01*
X65995Y91727D01*
X65896Y91747D01*
X65798Y91766D01*
X65709Y91776D01*
X65640Y91786D01*
X65591D01*
X65571D01*
X63180D01*
Y93459D01*
X65945D01*
X66103D01*
X66241Y93439D01*
D02*
G37*
G36*
X67520Y86187D02*
X65443D01*
X65237Y86177D01*
X65070Y86158D01*
X64922Y86128D01*
X64814Y86089D01*
X64725Y86059D01*
X64666Y86030D01*
X64637Y86010D01*
X64627Y86000D01*
X64548Y85922D01*
X64489Y85843D01*
X64450Y85764D01*
X64420Y85685D01*
X64400Y85616D01*
X64391Y85557D01*
Y85508D01*
X64400Y85410D01*
X64420Y85321D01*
X64450Y85252D01*
X64479Y85193D01*
X64509Y85144D01*
X64538Y85115D01*
X64558Y85095D01*
X64568Y85085D01*
X64637Y85036D01*
X64725Y84996D01*
X64824Y84967D01*
X64912Y84947D01*
X65001Y84938D01*
X65070Y84928D01*
X65119D01*
X65138D01*
X67520D01*
Y83255D01*
X64764D01*
X64607D01*
X64460Y83275D01*
X64332Y83294D01*
X64204Y83314D01*
X64086Y83343D01*
X63987Y83383D01*
X63889Y83412D01*
X63810Y83452D01*
X63731Y83491D01*
X63672Y83521D01*
X63613Y83560D01*
X63574Y83589D01*
X63534Y83609D01*
X63515Y83629D01*
X63495Y83648D01*
X63357Y83806D01*
X63259Y83983D01*
X63180Y84160D01*
X63131Y84337D01*
X63102Y84495D01*
X63092Y84564D01*
Y84613D01*
X63082Y84662D01*
Y84731D01*
X63092Y84918D01*
X63111Y85085D01*
X63141Y85233D01*
X63170Y85361D01*
X63210Y85469D01*
X63239Y85538D01*
X63259Y85587D01*
X63269Y85607D01*
X63348Y85734D01*
X63446Y85862D01*
X63554Y85980D01*
X63653Y86089D01*
X63751Y86177D01*
X63830Y86246D01*
X63879Y86286D01*
X63889Y86305D01*
X63180D01*
Y87850D01*
X67520D01*
Y86187D01*
D02*
G37*
G36*
X65483Y82458D02*
X65650Y82448D01*
X65965Y82399D01*
X66113Y82359D01*
X66250Y82320D01*
X66378Y82281D01*
X66487Y82231D01*
X66595Y82192D01*
X66683Y82153D01*
X66762Y82113D01*
X66831Y82074D01*
X66880Y82045D01*
X66919Y82025D01*
X66939Y82005D01*
X66949D01*
X67067Y81917D01*
X67165Y81808D01*
X67254Y81700D01*
X67333Y81592D01*
X67402Y81484D01*
X67451Y81366D01*
X67529Y81149D01*
X67579Y80952D01*
X67598Y80864D01*
X67608Y80795D01*
X67618Y80736D01*
Y80647D01*
X67608Y80490D01*
X67589Y80332D01*
X67559Y80204D01*
X67520Y80086D01*
X67490Y79988D01*
X67461Y79909D01*
X67441Y79870D01*
X67431Y79850D01*
X67372Y79742D01*
X67283Y79644D01*
X67195Y79535D01*
X67106Y79447D01*
X67018Y79368D01*
X66949Y79309D01*
X66900Y79260D01*
X66880Y79250D01*
X67520D01*
Y77685D01*
X61527D01*
Y79368D01*
X63613D01*
X63515Y79466D01*
X63436Y79565D01*
X63367Y79653D01*
X63318Y79742D01*
X63279Y79821D01*
X63239Y79880D01*
X63229Y79929D01*
X63220Y79939D01*
X63170Y80057D01*
X63141Y80185D01*
X63111Y80293D01*
X63102Y80401D01*
X63092Y80500D01*
X63082Y80568D01*
Y80637D01*
X63092Y80785D01*
X63111Y80923D01*
X63131Y81051D01*
X63170Y81179D01*
X63269Y81405D01*
X63367Y81592D01*
X63426Y81680D01*
X63476Y81749D01*
X63525Y81808D01*
X63574Y81858D01*
X63613Y81907D01*
X63633Y81936D01*
X63653Y81946D01*
X63662Y81956D01*
X63771Y82045D01*
X63899Y82123D01*
X64026Y82192D01*
X64164Y82251D01*
X64430Y82340D01*
X64696Y82399D01*
X64824Y82428D01*
X64932Y82438D01*
X65040Y82448D01*
X65129Y82458D01*
X65207Y82468D01*
X65257D01*
X65296D01*
X65306D01*
X65483Y82458D01*
D02*
G37*
G36*
X34055Y214193D02*
Y213498D01*
X29010Y211530D01*
Y212206D01*
X32678Y213570D01*
X32828Y213629D01*
X32979Y213682D01*
X33124Y213728D01*
X33248Y213767D01*
X33353Y213800D01*
X33393Y213813D01*
X33432Y213826D01*
X33465Y213833D01*
X33484Y213839D01*
X33498Y213846D01*
X33504D01*
X33360Y213885D01*
X33209Y213931D01*
X33071Y213977D01*
X32947Y214016D01*
X32835Y214056D01*
X32789Y214069D01*
X32750Y214082D01*
X32723Y214095D01*
X32697Y214102D01*
X32684Y214108D01*
X32678D01*
X29010Y215420D01*
Y216148D01*
X34055Y214193D01*
D02*
G37*
G36*
X31759Y211117D02*
X32015Y211090D01*
X32127Y211071D01*
X32238Y211045D01*
X32343Y211025D01*
X32441Y210999D01*
X32533Y210972D01*
X32612Y210953D01*
X32678Y210927D01*
X32737Y210907D01*
X32783Y210894D01*
X32822Y210881D01*
X32842Y210868D01*
X32848D01*
X32960Y210815D01*
X33071Y210756D01*
X33169Y210697D01*
X33261Y210631D01*
X33353Y210566D01*
X33432Y210500D01*
X33504Y210441D01*
X33563Y210375D01*
X33622Y210316D01*
X33675Y210264D01*
X33714Y210211D01*
X33747Y210172D01*
X33780Y210133D01*
X33799Y210106D01*
X33806Y210093D01*
X33812Y210087D01*
X33871Y209988D01*
X33917Y209883D01*
X33963Y209772D01*
X34003Y209660D01*
X34062Y209437D01*
X34101Y209227D01*
X34114Y209129D01*
X34121Y209044D01*
X34127Y208959D01*
X34134Y208893D01*
X34140Y208834D01*
Y208755D01*
X34134Y208611D01*
X34121Y208473D01*
X34101Y208342D01*
X34075Y208217D01*
X34042Y208099D01*
X34003Y207988D01*
X33970Y207889D01*
X33924Y207791D01*
X33885Y207712D01*
X33852Y207640D01*
X33812Y207574D01*
X33780Y207522D01*
X33753Y207476D01*
X33734Y207450D01*
X33721Y207430D01*
X33714Y207423D01*
X33629Y207325D01*
X33537Y207233D01*
X33439Y207148D01*
X33334Y207076D01*
X33229Y207004D01*
X33130Y206945D01*
X33025Y206886D01*
X32927Y206840D01*
X32828Y206794D01*
X32743Y206761D01*
X32664Y206728D01*
X32599Y206702D01*
X32540Y206689D01*
X32494Y206676D01*
X32468Y206663D01*
X32461D01*
X32291Y207332D01*
X32409Y207364D01*
X32513Y207397D01*
X32612Y207437D01*
X32710Y207476D01*
X32796Y207522D01*
X32874Y207561D01*
X32947Y207607D01*
X33005Y207653D01*
X33065Y207693D01*
X33110Y207732D01*
X33156Y207771D01*
X33189Y207797D01*
X33215Y207824D01*
X33235Y207843D01*
X33242Y207856D01*
X33248Y207863D01*
X33307Y207935D01*
X33353Y208014D01*
X33399Y208093D01*
X33432Y208178D01*
X33491Y208335D01*
X33530Y208486D01*
X33543Y208552D01*
X33550Y208617D01*
X33557Y208670D01*
X33563Y208722D01*
X33570Y208762D01*
Y208814D01*
X33557Y208985D01*
X33530Y209142D01*
X33498Y209286D01*
X33452Y209418D01*
X33406Y209523D01*
X33386Y209569D01*
X33373Y209601D01*
X33353Y209634D01*
X33347Y209654D01*
X33334Y209667D01*
Y209674D01*
X33235Y209811D01*
X33124Y209929D01*
X33005Y210028D01*
X32887Y210113D01*
X32783Y210179D01*
X32737Y210198D01*
X32697Y210218D01*
X32664Y210238D01*
X32638Y210251D01*
X32625Y210257D01*
X32618D01*
X32435Y210316D01*
X32238Y210362D01*
X32054Y210395D01*
X31877Y210415D01*
X31798Y210428D01*
X31726D01*
X31661Y210435D01*
X31602Y210441D01*
X31556D01*
X31523D01*
X31503D01*
X31497D01*
X31313Y210435D01*
X31136Y210415D01*
X30972Y210389D01*
X30821Y210362D01*
X30762Y210349D01*
X30703Y210336D01*
X30650Y210323D01*
X30605Y210310D01*
X30572Y210297D01*
X30545Y210290D01*
X30532Y210284D01*
X30526D01*
X30355Y210218D01*
X30211Y210133D01*
X30080Y210041D01*
X29975Y209949D01*
X29890Y209870D01*
X29831Y209805D01*
X29804Y209778D01*
X29791Y209759D01*
X29778Y209746D01*
Y209739D01*
X29726Y209660D01*
X29686Y209582D01*
X29614Y209418D01*
X29561Y209254D01*
X29529Y209103D01*
X29522Y209031D01*
X29509Y208965D01*
X29502Y208906D01*
Y208860D01*
X29496Y208821D01*
Y208762D01*
X29509Y208578D01*
X29535Y208414D01*
X29575Y208270D01*
X29621Y208145D01*
X29673Y208047D01*
X29693Y208007D01*
X29712Y207975D01*
X29726Y207948D01*
X29739Y207929D01*
X29752Y207922D01*
Y207915D01*
X29804Y207856D01*
X29857Y207797D01*
X29981Y207693D01*
X30113Y207607D01*
X30244Y207535D01*
X30362Y207476D01*
X30414Y207456D01*
X30460Y207437D01*
X30500Y207423D01*
X30526Y207410D01*
X30545Y207404D01*
X30552D01*
X30395Y206748D01*
X30270Y206787D01*
X30145Y206840D01*
X30034Y206892D01*
X29929Y206951D01*
X29837Y207010D01*
X29745Y207069D01*
X29667Y207128D01*
X29594Y207187D01*
X29529Y207246D01*
X29470Y207299D01*
X29424Y207351D01*
X29384Y207391D01*
X29352Y207423D01*
X29332Y207456D01*
X29319Y207469D01*
X29312Y207476D01*
X29247Y207574D01*
X29181Y207679D01*
X29135Y207784D01*
X29089Y207889D01*
X29050Y208001D01*
X29017Y208106D01*
X28971Y208302D01*
X28958Y208394D01*
X28945Y208480D01*
X28938Y208558D01*
X28932Y208624D01*
X28925Y208677D01*
Y208873D01*
X28938Y208991D01*
X28971Y209221D01*
X29024Y209431D01*
X29050Y209523D01*
X29076Y209614D01*
X29109Y209693D01*
X29135Y209765D01*
X29161Y209824D01*
X29188Y209877D01*
X29207Y209916D01*
X29220Y209949D01*
X29227Y209969D01*
X29234Y209975D01*
X29293Y210074D01*
X29358Y210172D01*
X29502Y210343D01*
X29647Y210494D01*
X29791Y210612D01*
X29863Y210664D01*
X29922Y210710D01*
X29981Y210749D01*
X30027Y210776D01*
X30067Y210802D01*
X30099Y210822D01*
X30119Y210828D01*
X30126Y210835D01*
X30237Y210887D01*
X30355Y210933D01*
X30585Y211005D01*
X30814Y211058D01*
X30926Y211077D01*
X31031Y211090D01*
X31129Y211104D01*
X31215Y211117D01*
X31293Y211123D01*
X31365D01*
X31418Y211130D01*
X31464D01*
X31490D01*
X31497D01*
X31759Y211117D01*
D02*
G37*
G36*
Y206026D02*
X32015Y206000D01*
X32127Y205980D01*
X32238Y205954D01*
X32343Y205934D01*
X32441Y205908D01*
X32533Y205882D01*
X32612Y205862D01*
X32678Y205836D01*
X32737Y205816D01*
X32783Y205803D01*
X32822Y205790D01*
X32842Y205777D01*
X32848D01*
X32960Y205724D01*
X33071Y205665D01*
X33169Y205606D01*
X33261Y205541D01*
X33353Y205475D01*
X33432Y205410D01*
X33504Y205350D01*
X33563Y205285D01*
X33622Y205226D01*
X33675Y205173D01*
X33714Y205121D01*
X33747Y205082D01*
X33780Y205042D01*
X33799Y205016D01*
X33806Y205003D01*
X33812Y204996D01*
X33871Y204898D01*
X33917Y204793D01*
X33963Y204681D01*
X34003Y204570D01*
X34062Y204347D01*
X34101Y204137D01*
X34114Y204039D01*
X34121Y203953D01*
X34127Y203868D01*
X34134Y203802D01*
X34140Y203743D01*
Y203665D01*
X34134Y203520D01*
X34121Y203382D01*
X34101Y203251D01*
X34075Y203127D01*
X34042Y203009D01*
X34003Y202897D01*
X33970Y202799D01*
X33924Y202700D01*
X33885Y202622D01*
X33852Y202549D01*
X33812Y202484D01*
X33780Y202431D01*
X33753Y202385D01*
X33734Y202359D01*
X33721Y202340D01*
X33714Y202333D01*
X33629Y202235D01*
X33537Y202143D01*
X33439Y202057D01*
X33334Y201985D01*
X33229Y201913D01*
X33130Y201854D01*
X33025Y201795D01*
X32927Y201749D01*
X32828Y201703D01*
X32743Y201670D01*
X32664Y201638D01*
X32599Y201611D01*
X32540Y201598D01*
X32494Y201585D01*
X32468Y201572D01*
X32461D01*
X32291Y202241D01*
X32409Y202274D01*
X32513Y202307D01*
X32612Y202346D01*
X32710Y202385D01*
X32796Y202431D01*
X32874Y202471D01*
X32947Y202517D01*
X33005Y202562D01*
X33065Y202602D01*
X33110Y202641D01*
X33156Y202681D01*
X33189Y202707D01*
X33215Y202733D01*
X33235Y202753D01*
X33242Y202766D01*
X33248Y202772D01*
X33307Y202845D01*
X33353Y202923D01*
X33399Y203002D01*
X33432Y203087D01*
X33491Y203245D01*
X33530Y203396D01*
X33543Y203461D01*
X33550Y203527D01*
X33557Y203579D01*
X33563Y203632D01*
X33570Y203671D01*
Y203724D01*
X33557Y203894D01*
X33530Y204052D01*
X33498Y204196D01*
X33452Y204327D01*
X33406Y204432D01*
X33386Y204478D01*
X33373Y204511D01*
X33353Y204544D01*
X33347Y204563D01*
X33334Y204576D01*
Y204583D01*
X33235Y204721D01*
X33124Y204839D01*
X33005Y204937D01*
X32887Y205023D01*
X32783Y205088D01*
X32737Y205108D01*
X32697Y205128D01*
X32664Y205147D01*
X32638Y205160D01*
X32625Y205167D01*
X32618D01*
X32435Y205226D01*
X32238Y205272D01*
X32054Y205305D01*
X31877Y205324D01*
X31798Y205337D01*
X31726D01*
X31661Y205344D01*
X31602Y205350D01*
X31556D01*
X31523D01*
X31503D01*
X31497D01*
X31313Y205344D01*
X31136Y205324D01*
X30972Y205298D01*
X30821Y205272D01*
X30762Y205259D01*
X30703Y205246D01*
X30650Y205233D01*
X30605Y205219D01*
X30572Y205206D01*
X30545Y205200D01*
X30532Y205193D01*
X30526D01*
X30355Y205128D01*
X30211Y205042D01*
X30080Y204950D01*
X29975Y204858D01*
X29890Y204780D01*
X29831Y204714D01*
X29804Y204688D01*
X29791Y204668D01*
X29778Y204655D01*
Y204649D01*
X29726Y204570D01*
X29686Y204491D01*
X29614Y204327D01*
X29561Y204163D01*
X29529Y204012D01*
X29522Y203940D01*
X29509Y203874D01*
X29502Y203816D01*
Y203770D01*
X29496Y203730D01*
Y203671D01*
X29509Y203487D01*
X29535Y203324D01*
X29575Y203179D01*
X29621Y203054D01*
X29673Y202956D01*
X29693Y202917D01*
X29712Y202884D01*
X29726Y202858D01*
X29739Y202838D01*
X29752Y202832D01*
Y202825D01*
X29804Y202766D01*
X29857Y202707D01*
X29981Y202602D01*
X30113Y202517D01*
X30244Y202445D01*
X30362Y202385D01*
X30414Y202366D01*
X30460Y202346D01*
X30500Y202333D01*
X30526Y202320D01*
X30545Y202313D01*
X30552D01*
X30395Y201657D01*
X30270Y201697D01*
X30145Y201749D01*
X30034Y201802D01*
X29929Y201861D01*
X29837Y201920D01*
X29745Y201979D01*
X29667Y202038D01*
X29594Y202097D01*
X29529Y202156D01*
X29470Y202208D01*
X29424Y202261D01*
X29384Y202300D01*
X29352Y202333D01*
X29332Y202366D01*
X29319Y202379D01*
X29312Y202385D01*
X29247Y202484D01*
X29181Y202589D01*
X29135Y202694D01*
X29089Y202799D01*
X29050Y202910D01*
X29017Y203015D01*
X28971Y203212D01*
X28958Y203304D01*
X28945Y203389D01*
X28938Y203468D01*
X28932Y203533D01*
X28925Y203586D01*
Y203783D01*
X28938Y203901D01*
X28971Y204130D01*
X29024Y204340D01*
X29050Y204432D01*
X29076Y204524D01*
X29109Y204603D01*
X29135Y204675D01*
X29161Y204734D01*
X29188Y204786D01*
X29207Y204826D01*
X29220Y204858D01*
X29227Y204878D01*
X29234Y204885D01*
X29293Y204983D01*
X29358Y205082D01*
X29502Y205252D01*
X29647Y205403D01*
X29791Y205521D01*
X29863Y205574D01*
X29922Y205620D01*
X29981Y205659D01*
X30027Y205685D01*
X30067Y205711D01*
X30099Y205731D01*
X30119Y205738D01*
X30126Y205744D01*
X30237Y205797D01*
X30355Y205842D01*
X30585Y205915D01*
X30814Y205967D01*
X30926Y205987D01*
X31031Y206000D01*
X31129Y206013D01*
X31215Y206026D01*
X31293Y206033D01*
X31365D01*
X31418Y206039D01*
X31464D01*
X31490D01*
X31497D01*
X31759Y206026D01*
D02*
G37*
G36*
X39450Y214482D02*
X43898D01*
Y213813D01*
X39450D01*
Y212153D01*
X38853D01*
Y216142D01*
X39450D01*
Y214482D01*
D02*
G37*
G36*
X43898Y211209D02*
X42487Y210225D01*
X42769Y210048D01*
X43898Y209286D01*
Y208532D01*
X42002Y209870D01*
X40244Y208630D01*
Y209372D01*
X41110Y209988D01*
X41247Y210087D01*
X41313Y210133D01*
X41379Y210179D01*
X41431Y210211D01*
X41470Y210244D01*
X41497Y210264D01*
X41510Y210271D01*
X41444Y210310D01*
X41379Y210349D01*
X41313Y210395D01*
X41247Y210435D01*
X41195Y210467D01*
X41149Y210494D01*
X41123Y210513D01*
X41110Y210520D01*
X40244Y211104D01*
Y211858D01*
X42008Y210618D01*
X43898Y211956D01*
Y211209D01*
D02*
G37*
G36*
Y206118D02*
X43891Y205954D01*
X43885Y205797D01*
X43871Y205659D01*
X43852Y205541D01*
X43839Y205442D01*
X43832Y205403D01*
X43826Y205370D01*
X43819Y205344D01*
Y205324D01*
X43812Y205318D01*
Y205311D01*
X43780Y205187D01*
X43740Y205068D01*
X43694Y204963D01*
X43655Y204878D01*
X43622Y204806D01*
X43589Y204754D01*
X43570Y204721D01*
X43563Y204708D01*
X43491Y204616D01*
X43419Y204524D01*
X43340Y204445D01*
X43268Y204380D01*
X43202Y204321D01*
X43150Y204281D01*
X43117Y204248D01*
X43104Y204242D01*
X42992Y204170D01*
X42868Y204098D01*
X42743Y204039D01*
X42625Y203993D01*
X42527Y203953D01*
X42481Y203940D01*
X42441Y203927D01*
X42415Y203914D01*
X42389Y203907D01*
X42376Y203901D01*
X42369D01*
X42199Y203855D01*
X42022Y203822D01*
X41851Y203796D01*
X41693Y203783D01*
X41621Y203776D01*
X41556Y203770D01*
X41497D01*
X41451Y203763D01*
X41405D01*
X41379D01*
X41359D01*
X41352D01*
X41110Y203770D01*
X40880Y203796D01*
X40775Y203809D01*
X40677Y203829D01*
X40585Y203848D01*
X40500Y203861D01*
X40421Y203881D01*
X40355Y203901D01*
X40296Y203921D01*
X40244Y203934D01*
X40204Y203947D01*
X40178Y203960D01*
X40158Y203966D01*
X40152D01*
X39962Y204045D01*
X39798Y204144D01*
X39647Y204242D01*
X39522Y204340D01*
X39470Y204386D01*
X39424Y204426D01*
X39384Y204465D01*
X39352Y204498D01*
X39325Y204524D01*
X39306Y204544D01*
X39299Y204557D01*
X39292Y204563D01*
X39201Y204681D01*
X39122Y204806D01*
X39063Y204931D01*
X39010Y205049D01*
X38978Y205147D01*
X38965Y205193D01*
X38951Y205233D01*
X38945Y205259D01*
X38938Y205285D01*
X38932Y205298D01*
Y205305D01*
X38906Y205429D01*
X38886Y205574D01*
X38873Y205724D01*
X38860Y205869D01*
Y205993D01*
X38853Y206052D01*
Y207935D01*
X43898D01*
Y206118D01*
D02*
G37*
G36*
X53740Y215473D02*
X51503D01*
Y214607D01*
X51510Y214534D01*
Y214469D01*
X51516Y214416D01*
X51523Y214377D01*
Y214351D01*
X51529Y214338D01*
Y214331D01*
X51569Y214220D01*
X51588Y214167D01*
X51615Y214121D01*
X51634Y214082D01*
X51654Y214056D01*
X51661Y214036D01*
X51667Y214029D01*
X51713Y213970D01*
X51759Y213911D01*
X51818Y213852D01*
X51877Y213800D01*
X51923Y213754D01*
X51969Y213721D01*
X51995Y213695D01*
X52008Y213688D01*
X52107Y213610D01*
X52218Y213531D01*
X52330Y213452D01*
X52441Y213373D01*
X52540Y213308D01*
X52586Y213275D01*
X52625Y213249D01*
X52651Y213229D01*
X52677Y213216D01*
X52691Y213203D01*
X52697D01*
X53740Y212540D01*
Y211701D01*
X52376Y212573D01*
X52231Y212671D01*
X52100Y212770D01*
X51982Y212862D01*
X51890Y212947D01*
X51811Y213026D01*
X51753Y213078D01*
X51720Y213118D01*
X51707Y213124D01*
Y213131D01*
X51661Y213190D01*
X51615Y213249D01*
X51529Y213380D01*
X51497Y213439D01*
X51470Y213485D01*
X51457Y213518D01*
X51451Y213531D01*
X51431Y213400D01*
X51405Y213275D01*
X51372Y213163D01*
X51339Y213058D01*
X51300Y212960D01*
X51261Y212868D01*
X51221Y212790D01*
X51182Y212717D01*
X51142Y212658D01*
X51103Y212606D01*
X51070Y212560D01*
X51044Y212521D01*
X51018Y212494D01*
X50998Y212468D01*
X50991Y212462D01*
X50985Y212455D01*
X50913Y212396D01*
X50841Y212337D01*
X50762Y212291D01*
X50690Y212252D01*
X50539Y212193D01*
X50395Y212153D01*
X50270Y212127D01*
X50217Y212120D01*
X50172Y212114D01*
X50132Y212107D01*
X50106D01*
X50086D01*
X50080D01*
X49929Y212114D01*
X49784Y212140D01*
X49653Y212173D01*
X49542Y212212D01*
X49450Y212252D01*
X49378Y212284D01*
X49352Y212298D01*
X49332Y212311D01*
X49325Y212317D01*
X49319D01*
X49201Y212403D01*
X49096Y212494D01*
X49010Y212586D01*
X48945Y212678D01*
X48892Y212757D01*
X48860Y212822D01*
X48846Y212849D01*
X48840Y212868D01*
X48833Y212875D01*
Y212881D01*
X48807Y212947D01*
X48787Y213026D01*
X48755Y213190D01*
X48728Y213360D01*
X48715Y213524D01*
X48709Y213603D01*
X48702Y213675D01*
Y213734D01*
X48695Y213793D01*
Y216142D01*
X53740D01*
Y215473D01*
D02*
G37*
G36*
Y210808D02*
X52330Y209824D01*
X52612Y209647D01*
X53740Y208886D01*
Y208132D01*
X51844Y209470D01*
X50086Y208230D01*
Y208972D01*
X50952Y209588D01*
X51090Y209687D01*
X51156Y209733D01*
X51221Y209778D01*
X51274Y209811D01*
X51313Y209844D01*
X51339Y209864D01*
X51352Y209870D01*
X51287Y209910D01*
X51221Y209949D01*
X51156Y209995D01*
X51090Y210034D01*
X51037Y210067D01*
X50991Y210093D01*
X50965Y210113D01*
X50952Y210120D01*
X50086Y210703D01*
Y211458D01*
X51851Y210218D01*
X53740Y211556D01*
Y210808D01*
D02*
G37*
G36*
Y205718D02*
X53734Y205554D01*
X53727Y205397D01*
X53714Y205259D01*
X53694Y205141D01*
X53681Y205042D01*
X53675Y205003D01*
X53668Y204970D01*
X53661Y204944D01*
Y204924D01*
X53655Y204918D01*
Y204911D01*
X53622Y204786D01*
X53583Y204668D01*
X53537Y204563D01*
X53497Y204478D01*
X53465Y204406D01*
X53432Y204353D01*
X53412Y204321D01*
X53406Y204308D01*
X53333Y204216D01*
X53261Y204124D01*
X53183Y204045D01*
X53110Y203979D01*
X53045Y203921D01*
X52992Y203881D01*
X52960Y203848D01*
X52946Y203842D01*
X52835Y203770D01*
X52710Y203697D01*
X52586Y203638D01*
X52468Y203592D01*
X52369Y203553D01*
X52323Y203540D01*
X52284Y203527D01*
X52258Y203514D01*
X52231Y203507D01*
X52218Y203501D01*
X52212D01*
X52041Y203455D01*
X51864Y203422D01*
X51693Y203396D01*
X51536Y203382D01*
X51464Y203376D01*
X51398Y203369D01*
X51339D01*
X51293Y203363D01*
X51247D01*
X51221D01*
X51201D01*
X51195D01*
X50952Y203369D01*
X50723Y203396D01*
X50618Y203409D01*
X50519Y203428D01*
X50427Y203448D01*
X50342Y203461D01*
X50263Y203481D01*
X50198Y203501D01*
X50139Y203520D01*
X50086Y203533D01*
X50047Y203547D01*
X50021Y203560D01*
X50001Y203566D01*
X49994D01*
X49804Y203645D01*
X49640Y203743D01*
X49489Y203842D01*
X49365Y203940D01*
X49312Y203986D01*
X49266Y204025D01*
X49227Y204065D01*
X49194Y204098D01*
X49168Y204124D01*
X49148Y204144D01*
X49142Y204157D01*
X49135Y204163D01*
X49043Y204281D01*
X48965Y204406D01*
X48905Y204531D01*
X48853Y204649D01*
X48820Y204747D01*
X48807Y204793D01*
X48794Y204832D01*
X48787Y204858D01*
X48781Y204885D01*
X48774Y204898D01*
Y204904D01*
X48748Y205029D01*
X48728Y205173D01*
X48715Y205324D01*
X48702Y205469D01*
Y205593D01*
X48695Y205652D01*
Y207535D01*
X53740D01*
Y205718D01*
D02*
G37*
G36*
X61228Y216135D02*
X61359Y216129D01*
X61615Y216096D01*
X61733Y216070D01*
X61838Y216043D01*
X61943Y216017D01*
X62041Y215984D01*
X62126Y215958D01*
X62205Y215932D01*
X62271Y215906D01*
X62330Y215879D01*
X62376Y215860D01*
X62408Y215846D01*
X62428Y215833D01*
X62435D01*
X62546Y215774D01*
X62645Y215709D01*
X62743Y215637D01*
X62828Y215558D01*
X62914Y215486D01*
X62986Y215407D01*
X63058Y215335D01*
X63117Y215263D01*
X63169Y215191D01*
X63222Y215131D01*
X63261Y215072D01*
X63294Y215020D01*
X63320Y214981D01*
X63340Y214948D01*
X63346Y214928D01*
X63353Y214922D01*
X63406Y214804D01*
X63458Y214685D01*
X63537Y214456D01*
X63589Y214226D01*
X63609Y214121D01*
X63629Y214016D01*
X63642Y213924D01*
X63648Y213839D01*
X63661Y213760D01*
Y213695D01*
X63668Y213642D01*
Y213570D01*
X63661Y213367D01*
X63635Y213170D01*
X63602Y212986D01*
X63570Y212822D01*
X63550Y212757D01*
X63530Y212691D01*
X63517Y212632D01*
X63504Y212586D01*
X63491Y212547D01*
X63478Y212521D01*
X63471Y212501D01*
Y212494D01*
X63392Y212298D01*
X63294Y212114D01*
X63202Y211943D01*
X63104Y211786D01*
X63058Y211720D01*
X63019Y211661D01*
X62986Y211609D01*
X62953Y211563D01*
X62927Y211524D01*
X62907Y211497D01*
X62894Y211484D01*
X62887Y211478D01*
X61011D01*
Y213616D01*
X61608D01*
Y212134D01*
X62553D01*
X62625Y212225D01*
X62691Y212324D01*
X62750Y212429D01*
X62802Y212527D01*
X62848Y212619D01*
X62881Y212698D01*
X62887Y212724D01*
X62900Y212744D01*
X62907Y212757D01*
Y212763D01*
X62959Y212921D01*
X62999Y213072D01*
X63032Y213209D01*
X63051Y213341D01*
X63064Y213452D01*
Y213498D01*
X63071Y213537D01*
Y213610D01*
X63064Y213793D01*
X63038Y213970D01*
X63005Y214128D01*
X62959Y214266D01*
X62940Y214331D01*
X62920Y214384D01*
X62907Y214436D01*
X62887Y214475D01*
X62874Y214508D01*
X62861Y214534D01*
X62854Y214548D01*
Y214554D01*
X62763Y214712D01*
X62658Y214843D01*
X62540Y214961D01*
X62435Y215053D01*
X62336Y215125D01*
X62290Y215158D01*
X62251Y215177D01*
X62225Y215197D01*
X62199Y215210D01*
X62185Y215223D01*
X62179D01*
X62002Y215302D01*
X61812Y215354D01*
X61621Y215394D01*
X61444Y215427D01*
X61365Y215433D01*
X61287Y215440D01*
X61221Y215446D01*
X61162D01*
X61116Y215453D01*
X61083D01*
X61057D01*
X61050D01*
X60847Y215446D01*
X60657Y215420D01*
X60486Y215394D01*
X60335Y215354D01*
X60270Y215341D01*
X60211Y215322D01*
X60158Y215309D01*
X60112Y215289D01*
X60080Y215282D01*
X60053Y215269D01*
X60040Y215263D01*
X60034D01*
X59935Y215217D01*
X59837Y215164D01*
X59752Y215112D01*
X59680Y215066D01*
X59620Y215020D01*
X59575Y214981D01*
X59548Y214954D01*
X59535Y214948D01*
X59456Y214869D01*
X59378Y214777D01*
X59319Y214685D01*
X59266Y214600D01*
X59220Y214528D01*
X59194Y214462D01*
X59174Y214423D01*
X59168Y214416D01*
Y214410D01*
X59122Y214279D01*
X59083Y214147D01*
X59056Y214010D01*
X59043Y213885D01*
X59030Y213780D01*
Y213734D01*
X59023Y213695D01*
Y213616D01*
X59030Y213478D01*
X59043Y213347D01*
X59069Y213229D01*
X59089Y213131D01*
X59115Y213045D01*
X59142Y212980D01*
X59155Y212941D01*
X59161Y212934D01*
Y212927D01*
X59214Y212816D01*
X59273Y212717D01*
X59332Y212632D01*
X59384Y212566D01*
X59437Y212514D01*
X59476Y212475D01*
X59502Y212449D01*
X59516Y212442D01*
X59601Y212383D01*
X59699Y212324D01*
X59804Y212278D01*
X59896Y212239D01*
X59988Y212206D01*
X60053Y212179D01*
X60080Y212173D01*
X60099Y212166D01*
X60112Y212160D01*
X60119D01*
X59955Y211556D01*
X59771Y211609D01*
X59607Y211674D01*
X59470Y211733D01*
X59351Y211799D01*
X59253Y211858D01*
X59214Y211878D01*
X59188Y211904D01*
X59161Y211917D01*
X59142Y211930D01*
X59135Y211943D01*
X59128D01*
X59017Y212042D01*
X58918Y212153D01*
X58833Y212271D01*
X58761Y212383D01*
X58709Y212481D01*
X58689Y212521D01*
X58669Y212560D01*
X58656Y212593D01*
X58643Y212612D01*
X58636Y212626D01*
Y212632D01*
X58577Y212803D01*
X58531Y212973D01*
X58499Y213137D01*
X58472Y213295D01*
X58466Y213360D01*
X58459Y213426D01*
Y213478D01*
X58453Y213531D01*
Y213623D01*
X58459Y213760D01*
X58466Y213892D01*
X58499Y214147D01*
X58525Y214266D01*
X58551Y214370D01*
X58577Y214475D01*
X58610Y214567D01*
X58636Y214653D01*
X58669Y214731D01*
X58696Y214797D01*
X58715Y214849D01*
X58741Y214895D01*
X58754Y214928D01*
X58761Y214948D01*
X58768Y214954D01*
X58827Y215059D01*
X58899Y215158D01*
X59043Y215335D01*
X59122Y215414D01*
X59201Y215486D01*
X59279Y215551D01*
X59358Y215610D01*
X59430Y215663D01*
X59496Y215709D01*
X59555Y215748D01*
X59607Y215781D01*
X59653Y215807D01*
X59686Y215827D01*
X59706Y215833D01*
X59712Y215840D01*
X59830Y215893D01*
X59955Y215938D01*
X60198Y216017D01*
X60427Y216070D01*
X60539Y216089D01*
X60637Y216102D01*
X60736Y216115D01*
X60821Y216129D01*
X60900Y216135D01*
X60965D01*
X61018Y216142D01*
X61057D01*
X61083D01*
X61090D01*
X61228Y216135D01*
D02*
G37*
G36*
X63583Y209857D02*
X59627D01*
X63583Y207214D01*
Y206525D01*
X58538D01*
Y207168D01*
X62500D01*
X58538Y209818D01*
Y210500D01*
X63583D01*
Y209857D01*
D02*
G37*
G36*
Y203586D02*
X63576Y203422D01*
X63570Y203264D01*
X63556Y203127D01*
X63537Y203009D01*
X63524Y202910D01*
X63517Y202871D01*
X63511Y202838D01*
X63504Y202812D01*
Y202792D01*
X63497Y202786D01*
Y202779D01*
X63465Y202654D01*
X63425Y202536D01*
X63379Y202431D01*
X63340Y202346D01*
X63307Y202274D01*
X63274Y202221D01*
X63255Y202189D01*
X63248Y202175D01*
X63176Y202084D01*
X63104Y201992D01*
X63025Y201913D01*
X62953Y201848D01*
X62887Y201788D01*
X62835Y201749D01*
X62802Y201716D01*
X62789Y201710D01*
X62677Y201638D01*
X62553Y201565D01*
X62428Y201506D01*
X62310Y201460D01*
X62212Y201421D01*
X62166Y201408D01*
X62126Y201395D01*
X62100Y201382D01*
X62074Y201375D01*
X62061Y201369D01*
X62054D01*
X61884Y201323D01*
X61707Y201290D01*
X61536Y201264D01*
X61379Y201251D01*
X61306Y201244D01*
X61241Y201237D01*
X61182D01*
X61136Y201231D01*
X61090D01*
X61064D01*
X61044D01*
X61037D01*
X60795Y201237D01*
X60565Y201264D01*
X60460Y201277D01*
X60362Y201296D01*
X60270Y201316D01*
X60185Y201329D01*
X60106Y201349D01*
X60040Y201369D01*
X59981Y201388D01*
X59929Y201401D01*
X59889Y201414D01*
X59863Y201428D01*
X59843Y201434D01*
X59837D01*
X59647Y201513D01*
X59483Y201611D01*
X59332Y201710D01*
X59207Y201808D01*
X59155Y201854D01*
X59109Y201893D01*
X59069Y201933D01*
X59037Y201966D01*
X59010Y201992D01*
X58991Y202011D01*
X58984Y202025D01*
X58978Y202031D01*
X58886Y202149D01*
X58807Y202274D01*
X58748Y202398D01*
X58696Y202517D01*
X58663Y202615D01*
X58650Y202661D01*
X58636Y202700D01*
X58630Y202727D01*
X58623Y202753D01*
X58617Y202766D01*
Y202772D01*
X58591Y202897D01*
X58571Y203041D01*
X58558Y203192D01*
X58545Y203337D01*
Y203461D01*
X58538Y203520D01*
Y205403D01*
X63583D01*
Y203586D01*
D02*
G37*
%LPC*%
G36*
X23761Y96044D02*
X21478D01*
Y94253D01*
X21488Y94125D01*
X21498Y94016D01*
X21508Y93908D01*
Y93810D01*
X21517Y93731D01*
X21527Y93652D01*
X21547Y93534D01*
X21567Y93456D01*
X21576Y93406D01*
X21586Y93387D01*
X21635Y93269D01*
X21695Y93160D01*
X21754Y93082D01*
X21823Y93003D01*
X21881Y92944D01*
X21931Y92905D01*
X21970Y92885D01*
X21980Y92875D01*
X22088Y92816D01*
X22206Y92767D01*
X22314Y92737D01*
X22413Y92708D01*
X22501Y92698D01*
X22580Y92688D01*
X22619D01*
X22639D01*
X22787Y92698D01*
X22915Y92718D01*
X23033Y92747D01*
X23121Y92787D01*
X23200Y92826D01*
X23259Y92855D01*
X23299Y92875D01*
X23308Y92885D01*
X23397Y92964D01*
X23476Y93062D01*
X23535Y93151D01*
X23594Y93249D01*
X23633Y93338D01*
X23663Y93406D01*
X23672Y93446D01*
X23682Y93466D01*
X23712Y93584D01*
X23731Y93731D01*
X23741Y93889D01*
X23751Y94046D01*
X23761Y94184D01*
Y96044D01*
D02*
G37*
G36*
X27254D02*
X24656D01*
Y94302D01*
X24666Y94046D01*
X24676Y93830D01*
X24696Y93633D01*
X24715Y93485D01*
X24745Y93357D01*
X24765Y93269D01*
X24775Y93220D01*
X24784Y93200D01*
X24843Y93062D01*
X24902Y92944D01*
X24981Y92846D01*
X25050Y92757D01*
X25119Y92688D01*
X25178Y92639D01*
X25217Y92609D01*
X25227Y92600D01*
X25345Y92521D01*
X25473Y92472D01*
X25591Y92432D01*
X25709Y92403D01*
X25808Y92383D01*
X25886Y92373D01*
X25936D01*
X25955D01*
X26083Y92383D01*
X26211Y92393D01*
X26319Y92422D01*
X26408Y92452D01*
X26487Y92481D01*
X26546Y92501D01*
X26585Y92521D01*
X26595Y92531D01*
X26693Y92590D01*
X26772Y92649D01*
X26851Y92718D01*
X26910Y92777D01*
X26959Y92836D01*
X26989Y92875D01*
X27008Y92905D01*
X27018Y92914D01*
X27067Y93003D01*
X27116Y93101D01*
X27146Y93190D01*
X27176Y93288D01*
X27195Y93367D01*
X27215Y93426D01*
X27225Y93466D01*
Y93485D01*
X27235Y93574D01*
X27244Y93672D01*
X27254Y93898D01*
Y96044D01*
D02*
G37*
G36*
X43052D02*
X40769D01*
Y94253D01*
X40779Y94125D01*
X40789Y94016D01*
X40799Y93908D01*
Y93810D01*
X40809Y93731D01*
X40819Y93652D01*
X40838Y93534D01*
X40858Y93456D01*
X40868Y93406D01*
X40878Y93387D01*
X40927Y93269D01*
X40986Y93160D01*
X41045Y93082D01*
X41114Y93003D01*
X41173Y92944D01*
X41222Y92905D01*
X41262Y92885D01*
X41271Y92875D01*
X41379Y92816D01*
X41498Y92767D01*
X41606Y92737D01*
X41704Y92708D01*
X41793Y92698D01*
X41872Y92688D01*
X41911D01*
X41931D01*
X42078Y92698D01*
X42206Y92718D01*
X42324Y92747D01*
X42413Y92787D01*
X42491Y92826D01*
X42551Y92855D01*
X42590Y92875D01*
X42600Y92885D01*
X42688Y92964D01*
X42767Y93062D01*
X42826Y93151D01*
X42885Y93249D01*
X42924Y93338D01*
X42954Y93406D01*
X42964Y93446D01*
X42974Y93466D01*
X43003Y93584D01*
X43023Y93731D01*
X43033Y93889D01*
X43042Y94046D01*
X43052Y94184D01*
Y96044D01*
D02*
G37*
G36*
X46545D02*
X43948D01*
Y94302D01*
X43958Y94046D01*
X43968Y93830D01*
X43987Y93633D01*
X44007Y93485D01*
X44036Y93357D01*
X44056Y93269D01*
X44066Y93220D01*
X44076Y93200D01*
X44135Y93062D01*
X44194Y92944D01*
X44273Y92846D01*
X44341Y92757D01*
X44410Y92688D01*
X44469Y92639D01*
X44509Y92609D01*
X44519Y92600D01*
X44637Y92521D01*
X44765Y92472D01*
X44883Y92432D01*
X45001Y92403D01*
X45099Y92383D01*
X45178Y92373D01*
X45227D01*
X45247D01*
X45375Y92383D01*
X45502Y92393D01*
X45611Y92422D01*
X45699Y92452D01*
X45778Y92481D01*
X45837Y92501D01*
X45876Y92521D01*
X45886Y92531D01*
X45985Y92590D01*
X46063Y92649D01*
X46142Y92718D01*
X46201Y92777D01*
X46250Y92836D01*
X46280Y92875D01*
X46299Y92905D01*
X46309Y92914D01*
X46359Y93003D01*
X46408Y93101D01*
X46437Y93190D01*
X46467Y93288D01*
X46486Y93367D01*
X46506Y93426D01*
X46516Y93466D01*
Y93485D01*
X46526Y93574D01*
X46536Y93672D01*
X46545Y93898D01*
Y96044D01*
D02*
G37*
G36*
X65463Y97562D02*
X65424D01*
X65394D01*
X65375D01*
X65365D01*
X65168Y97552D01*
X64991Y97523D01*
X64843Y97483D01*
X64725Y97444D01*
X64627Y97405D01*
X64558Y97365D01*
X64518Y97336D01*
X64509Y97326D01*
X64410Y97228D01*
X64341Y97129D01*
X64292Y97031D01*
X64263Y96932D01*
X64233Y96854D01*
X64223Y96785D01*
Y96726D01*
X64233Y96598D01*
X64263Y96490D01*
X64312Y96391D01*
X64361Y96303D01*
X64420Y96234D01*
X64460Y96185D01*
X64499Y96155D01*
X64509Y96145D01*
X64627Y96066D01*
X64755Y96008D01*
X64892Y95968D01*
X65030Y95939D01*
X65148Y95919D01*
X65257Y95909D01*
X65296D01*
X65316D01*
X65335D01*
X65345D01*
X65561Y95919D01*
X65739Y95948D01*
X65896Y95988D01*
X66014Y96027D01*
X66113Y96066D01*
X66181Y96106D01*
X66221Y96135D01*
X66231Y96145D01*
X66319Y96234D01*
X66388Y96332D01*
X66427Y96431D01*
X66467Y96529D01*
X66487Y96608D01*
X66496Y96677D01*
Y96736D01*
X66487Y96864D01*
X66457Y96982D01*
X66408Y97090D01*
X66359Y97169D01*
X66309Y97237D01*
X66260Y97297D01*
X66231Y97326D01*
X66221Y97336D01*
X66103Y97415D01*
X65975Y97464D01*
X65827Y97503D01*
X65689Y97533D01*
X65561Y97552D01*
X65463Y97562D01*
D02*
G37*
G36*
Y80805D02*
X65424D01*
X65394D01*
X65384D01*
X65375D01*
X65178Y80795D01*
X65010Y80775D01*
X64873Y80746D01*
X64764Y80706D01*
X64676Y80677D01*
X64617Y80647D01*
X64578Y80628D01*
X64568Y80618D01*
X64489Y80539D01*
X64430Y80460D01*
X64381Y80372D01*
X64351Y80293D01*
X64332Y80234D01*
X64322Y80175D01*
Y80126D01*
X64332Y80008D01*
X64361Y79899D01*
X64400Y79801D01*
X64450Y79722D01*
X64499Y79663D01*
X64538Y79614D01*
X64568Y79584D01*
X64578Y79575D01*
X64686Y79506D01*
X64804Y79447D01*
X64932Y79407D01*
X65060Y79388D01*
X65168Y79368D01*
X65257Y79358D01*
X65325D01*
X65335D01*
X65345D01*
X65542Y79368D01*
X65709Y79388D01*
X65847Y79427D01*
X65955Y79466D01*
X66044Y79506D01*
X66103Y79545D01*
X66142Y79565D01*
X66152Y79575D01*
X66231Y79663D01*
X66290Y79752D01*
X66339Y79840D01*
X66368Y79919D01*
X66388Y79998D01*
X66398Y80057D01*
Y80106D01*
X66388Y80214D01*
X66359Y80313D01*
X66319Y80391D01*
X66270Y80470D01*
X66231Y80529D01*
X66191Y80568D01*
X66162Y80598D01*
X66152Y80608D01*
X66044Y80677D01*
X65926Y80726D01*
X65798Y80756D01*
X65670Y80775D01*
X65552Y80795D01*
X65463Y80805D01*
D02*
G37*
G36*
X43301Y207266D02*
X39450D01*
Y206098D01*
X39456Y206000D01*
Y205908D01*
X39463Y205823D01*
X39476Y205744D01*
X39483Y205672D01*
X39489Y205606D01*
X39502Y205554D01*
X39509Y205501D01*
X39522Y205462D01*
X39529Y205423D01*
X39535Y205397D01*
X39542Y205370D01*
X39548Y205357D01*
X39555Y205344D01*
X39588Y205278D01*
X39621Y205213D01*
X39706Y205088D01*
X39798Y204983D01*
X39896Y204891D01*
X39981Y204819D01*
X40053Y204760D01*
X40086Y204741D01*
X40106Y204727D01*
X40119Y204714D01*
X40126D01*
X40211Y204668D01*
X40303Y204629D01*
X40493Y204563D01*
X40696Y204517D01*
X40893Y204485D01*
X40985Y204471D01*
X41070Y204465D01*
X41142Y204458D01*
X41208D01*
X41260Y204452D01*
X41306D01*
X41333D01*
X41339D01*
X41543Y204458D01*
X41733Y204471D01*
X41897Y204498D01*
X41969Y204511D01*
X42041Y204517D01*
X42100Y204531D01*
X42153Y204544D01*
X42199Y204557D01*
X42238Y204570D01*
X42271Y204576D01*
X42290Y204583D01*
X42304Y204590D01*
X42310D01*
X42454Y204642D01*
X42579Y204701D01*
X42691Y204760D01*
X42782Y204819D01*
X42855Y204878D01*
X42907Y204918D01*
X42940Y204944D01*
X42953Y204957D01*
X43012Y205023D01*
X43064Y205101D01*
X43104Y205173D01*
X43143Y205246D01*
X43170Y205311D01*
X43189Y205364D01*
X43202Y205397D01*
X43209Y205403D01*
Y205410D01*
X43242Y205521D01*
X43261Y205652D01*
X43281Y205784D01*
X43288Y205908D01*
X43294Y206020D01*
X43301Y206066D01*
Y207266D01*
D02*
G37*
G36*
X50926Y215473D02*
X49253D01*
Y213780D01*
X49266Y213682D01*
X49273Y213597D01*
X49292Y213518D01*
X49306Y213439D01*
X49325Y213373D01*
X49352Y213314D01*
X49371Y213262D01*
X49417Y213170D01*
X49450Y213111D01*
X49476Y213072D01*
X49489Y213058D01*
X49581Y212973D01*
X49679Y212908D01*
X49778Y212862D01*
X49870Y212829D01*
X49955Y212809D01*
X50021Y212803D01*
X50047Y212796D01*
X50067D01*
X50073D01*
X50080D01*
X50172Y212803D01*
X50250Y212816D01*
X50329Y212842D01*
X50395Y212862D01*
X50454Y212888D01*
X50493Y212914D01*
X50526Y212927D01*
X50532Y212934D01*
X50604Y212986D01*
X50670Y213052D01*
X50723Y213118D01*
X50762Y213177D01*
X50795Y213236D01*
X50814Y213282D01*
X50827Y213314D01*
X50834Y213328D01*
X50867Y213433D01*
X50887Y213544D01*
X50906Y213669D01*
X50913Y213780D01*
X50919Y213885D01*
X50926Y213931D01*
Y215473D01*
D02*
G37*
G36*
X53143Y206866D02*
X49292D01*
Y205698D01*
X49299Y205600D01*
Y205508D01*
X49306Y205423D01*
X49319Y205344D01*
X49325Y205272D01*
X49332Y205206D01*
X49345Y205154D01*
X49352Y205101D01*
X49365Y205062D01*
X49371Y205023D01*
X49378Y204996D01*
X49384Y204970D01*
X49391Y204957D01*
X49397Y204944D01*
X49430Y204878D01*
X49463Y204813D01*
X49548Y204688D01*
X49640Y204583D01*
X49739Y204491D01*
X49824Y204419D01*
X49896Y204360D01*
X49929Y204340D01*
X49948Y204327D01*
X49962Y204314D01*
X49968D01*
X50053Y204268D01*
X50145Y204229D01*
X50336Y204163D01*
X50539Y204117D01*
X50736Y204084D01*
X50827Y204071D01*
X50913Y204065D01*
X50985Y204058D01*
X51051D01*
X51103Y204052D01*
X51149D01*
X51175D01*
X51182D01*
X51385Y204058D01*
X51575Y204071D01*
X51739Y204098D01*
X51811Y204111D01*
X51884Y204117D01*
X51943Y204130D01*
X51995Y204144D01*
X52041Y204157D01*
X52081Y204170D01*
X52113Y204176D01*
X52133Y204183D01*
X52146Y204189D01*
X52153D01*
X52297Y204242D01*
X52422Y204301D01*
X52533Y204360D01*
X52625Y204419D01*
X52697Y204478D01*
X52750Y204517D01*
X52782Y204544D01*
X52795Y204557D01*
X52855Y204622D01*
X52907Y204701D01*
X52946Y204773D01*
X52986Y204845D01*
X53012Y204911D01*
X53032Y204963D01*
X53045Y204996D01*
X53051Y205003D01*
Y205009D01*
X53084Y205121D01*
X53104Y205252D01*
X53123Y205383D01*
X53130Y205508D01*
X53137Y205620D01*
X53143Y205665D01*
Y206866D01*
D02*
G37*
G36*
X62986Y204734D02*
X59135D01*
Y203566D01*
X59142Y203468D01*
Y203376D01*
X59148Y203291D01*
X59161Y203212D01*
X59168Y203140D01*
X59174Y203074D01*
X59188Y203022D01*
X59194Y202969D01*
X59207Y202930D01*
X59214Y202890D01*
X59220Y202864D01*
X59227Y202838D01*
X59233Y202825D01*
X59240Y202812D01*
X59273Y202746D01*
X59306Y202681D01*
X59391Y202556D01*
X59483Y202451D01*
X59581Y202359D01*
X59666Y202287D01*
X59738Y202228D01*
X59771Y202208D01*
X59791Y202195D01*
X59804Y202182D01*
X59811D01*
X59896Y202136D01*
X59988Y202097D01*
X60178Y202031D01*
X60381Y201985D01*
X60578Y201952D01*
X60670Y201939D01*
X60755Y201933D01*
X60827Y201926D01*
X60893D01*
X60946Y201920D01*
X60992D01*
X61018D01*
X61024D01*
X61228Y201926D01*
X61418Y201939D01*
X61582Y201966D01*
X61654Y201979D01*
X61726Y201985D01*
X61785Y201998D01*
X61838Y202011D01*
X61884Y202025D01*
X61923Y202038D01*
X61956Y202044D01*
X61976Y202051D01*
X61989Y202057D01*
X61995D01*
X62139Y202110D01*
X62264Y202169D01*
X62376Y202228D01*
X62467Y202287D01*
X62540Y202346D01*
X62592Y202385D01*
X62625Y202412D01*
X62638Y202425D01*
X62697Y202490D01*
X62750Y202569D01*
X62789Y202641D01*
X62828Y202713D01*
X62854Y202779D01*
X62874Y202832D01*
X62887Y202864D01*
X62894Y202871D01*
Y202877D01*
X62927Y202989D01*
X62946Y203120D01*
X62966Y203251D01*
X62973Y203376D01*
X62979Y203487D01*
X62986Y203533D01*
Y204734D01*
D02*
G37*
%LPD*%
D10*
X314862Y142638D02*
G03*
X314862Y142638I-492J0D01*
G01*
X151772Y136535D02*
G03*
X151772Y136535I-492J0D01*
G01*
D12*
X14370Y48819D02*
Y234842D01*
Y48819D02*
X75394D01*
Y234842D01*
X14370D02*
X75394D01*
X14370Y75394D02*
X75394D01*
X24213Y218110D02*
Y234842D01*
Y218110D02*
X67520D01*
Y234842D01*
X319685Y183169D02*
X327559D01*
X319685Y143799D02*
X327559D01*
Y183169D01*
X319685Y143799D02*
Y183169D01*
X156595Y177067D02*
X164469D01*
X156595Y137697D02*
X164469D01*
Y177067D01*
X156595Y137697D02*
Y177067D01*
D14*
X247146Y308858D02*
Y315551D01*
X252411D01*
X247146Y308858D02*
X252411D01*
X255413Y315551D02*
X260728D01*
Y308858D02*
Y315551D01*
X255413Y308858D02*
X260728D01*
X247342Y300000D02*
Y307087D01*
X260531Y300000D02*
Y307087D01*
X255610Y300000D02*
X260531D01*
X247342D02*
X252264D01*
X247342Y307087D02*
X252264D01*
X255610Y307087D02*
X260531D01*
X52559Y260728D02*
Y267815D01*
X65748Y260728D02*
Y267815D01*
X60827Y260728D02*
X65748D01*
X52559D02*
X57480D01*
X52559Y267815D02*
X57480D01*
X60827Y267815D02*
X65748D01*
X65945Y270473D02*
Y277165D01*
X60679Y270473D02*
X65945D01*
X60679Y277165D02*
X65945D01*
X52362Y270472D02*
X57677D01*
X52362Y270473D02*
Y277165D01*
Y277165D02*
X57677D01*
X68996Y250492D02*
Y257579D01*
X82185Y250492D02*
Y257579D01*
X77264Y250492D02*
X82185D01*
X68996D02*
X73917D01*
X68996Y257579D02*
X73917D01*
X77264Y257579D02*
X82185D01*
X82284Y240256D02*
Y247342D01*
X69095Y240256D02*
Y247342D01*
X69095D02*
X74016D01*
X77362D02*
X82284D01*
X77362Y240256D02*
X82284D01*
X69095Y240256D02*
X74016D01*
X125689Y123031D02*
Y130118D01*
X138878Y123031D02*
Y130118D01*
X133957Y123031D02*
X138878D01*
X125689D02*
X130610D01*
X125689Y130118D02*
X130610D01*
X133957Y130118D02*
X138878D01*
X125689Y132562D02*
Y139649D01*
X138878Y132562D02*
Y139649D01*
X133957Y132562D02*
X138878D01*
X125689D02*
X130610D01*
X125689Y139649D02*
X130610D01*
X133957Y139649D02*
X138878D01*
X125689Y142093D02*
Y149180D01*
X138878Y142093D02*
Y149180D01*
X133957Y142093D02*
X138878D01*
X125689D02*
X130610D01*
X125689Y149180D02*
X130610D01*
X133957Y149180D02*
X138878D01*
X125689Y151624D02*
Y158711D01*
X138878Y151624D02*
Y158711D01*
X133957Y151624D02*
X138878D01*
X125689D02*
X130610D01*
X125689Y158711D02*
X130610D01*
X133957Y158711D02*
X138878D01*
X125689Y161155D02*
Y168242D01*
X138878Y161155D02*
Y168242D01*
X133957Y161155D02*
X138878D01*
X125689D02*
X130610D01*
X125689Y168242D02*
X130610D01*
X133957Y168242D02*
X138878D01*
X125689Y170686D02*
Y177772D01*
X138878Y170686D02*
Y177772D01*
X133957Y170686D02*
X138878D01*
X125689D02*
X130610D01*
X125689Y177772D02*
X130610D01*
X133957Y177772D02*
X138878D01*
X125689Y180217D02*
Y187303D01*
X138878Y180217D02*
Y187303D01*
X133957Y180217D02*
X138878D01*
X125689D02*
X130610D01*
X125689Y187303D02*
X130610D01*
X133957Y187303D02*
X138878D01*
X292224Y144587D02*
Y151673D01*
X305413Y144587D02*
Y151673D01*
X300492Y144587D02*
X305413D01*
X292224D02*
X297146D01*
X292224Y151673D02*
X297146D01*
X300492Y151673D02*
X305413D01*
X292323Y153543D02*
Y160630D01*
X305512Y153543D02*
Y160630D01*
X300590Y153543D02*
X305512D01*
X292323D02*
X297244D01*
X292323Y160630D02*
X297244D01*
X300590Y160630D02*
X305512D01*
X356594Y177461D02*
Y184547D01*
X343406Y177461D02*
Y184547D01*
X343406D02*
X348327D01*
X351673D02*
X356594D01*
X351673Y177461D02*
X356594D01*
X343406Y177461D02*
X348327D01*
X193405Y172343D02*
Y179429D01*
X180217Y172343D02*
Y179429D01*
X180217D02*
X185138D01*
X188484D02*
X193405D01*
X188484Y172343D02*
X193405D01*
X180217Y172343D02*
X185138D01*
X364978Y109252D02*
X372065D01*
X364978Y122441D02*
X372065D01*
Y117520D02*
Y122441D01*
Y109252D02*
Y114173D01*
X364978Y109252D02*
Y114173D01*
X364978Y117520D02*
Y122441D01*
X377576D02*
X384663D01*
X377576Y109252D02*
X384663D01*
X377576Y109252D02*
Y114173D01*
Y117520D02*
Y122441D01*
X384663Y117520D02*
Y122441D01*
X384663Y109252D02*
Y114173D01*
X200728Y109153D02*
X207815D01*
X200728Y122343D02*
X207815D01*
Y117421D02*
Y122343D01*
Y109153D02*
Y114075D01*
X200728Y109153D02*
Y114075D01*
X200728Y117421D02*
Y122343D01*
X185951Y122441D02*
X193038D01*
X185951Y109252D02*
X193038D01*
X185951Y109252D02*
Y114173D01*
Y117520D02*
Y122441D01*
X193038Y117520D02*
Y122441D01*
X193038Y109252D02*
Y114173D01*
X337603Y109252D02*
X344690D01*
X337603Y122441D02*
X344690D01*
Y117520D02*
Y122441D01*
Y109252D02*
Y114173D01*
X337603Y109252D02*
Y114173D01*
X337603Y117520D02*
Y122441D01*
X350201D02*
X357288D01*
X350201Y109252D02*
X357288D01*
X350201Y109252D02*
Y114173D01*
Y117520D02*
Y122441D01*
X357288Y117520D02*
Y122441D01*
X357288Y109252D02*
Y114173D01*
X322826Y122441D02*
X329913D01*
X322826Y109252D02*
X329913D01*
X322826Y109252D02*
Y114173D01*
Y117520D02*
Y122441D01*
X329913Y117520D02*
Y122441D01*
X329913Y109252D02*
Y114173D01*
X283405Y109055D02*
X290492D01*
X283405Y122244D02*
X290492D01*
Y117323D02*
Y122244D01*
Y109055D02*
Y113976D01*
X283405Y109055D02*
Y113976D01*
X283406Y117323D02*
Y122244D01*
X296004Y122343D02*
X303091D01*
X296004Y109153D02*
X303091D01*
X296004Y109153D02*
Y114075D01*
Y117421D02*
Y122343D01*
X303091Y117421D02*
Y122343D01*
X303091Y109153D02*
Y114075D01*
X256339Y109153D02*
X263425D01*
X256339Y122343D02*
X263425D01*
Y117421D02*
Y122343D01*
Y109153D02*
Y114075D01*
X256339Y109153D02*
Y114075D01*
X256339Y117421D02*
Y122343D01*
X228103Y109153D02*
X235190D01*
X228103Y122343D02*
X235190D01*
Y117421D02*
Y122343D01*
Y109153D02*
Y114075D01*
X228103Y109153D02*
Y114075D01*
X228103Y117421D02*
Y122343D01*
X158576Y122441D02*
X165663D01*
X158576Y109252D02*
X165663D01*
X158576Y109252D02*
Y114173D01*
Y117520D02*
Y122441D01*
X165663Y117520D02*
Y122441D01*
X165663Y109252D02*
Y114173D01*
X173353Y109153D02*
X180440D01*
X173353Y122343D02*
X180440D01*
Y117421D02*
Y122343D01*
Y109153D02*
Y114075D01*
X173353Y109153D02*
Y114075D01*
X173353Y117421D02*
Y122343D01*
X145978Y109153D02*
X153065D01*
X145978Y122343D02*
X153065D01*
Y117421D02*
Y122343D01*
Y109153D02*
Y114075D01*
X145978Y109153D02*
Y114075D01*
X145978Y117421D02*
Y122343D01*
X310228Y109153D02*
X317315D01*
X310228Y122343D02*
X317315D01*
Y117421D02*
Y122343D01*
Y109153D02*
Y114075D01*
X310228Y109153D02*
Y114075D01*
X310228Y117421D02*
Y122343D01*
X268937D02*
X276024D01*
X268937Y109153D02*
X276024D01*
X268937Y109153D02*
Y114075D01*
Y117421D02*
Y122343D01*
X276024Y117421D02*
Y122343D01*
X276024Y109153D02*
Y114075D01*
X240701Y122441D02*
X247788D01*
X240701Y109252D02*
X247788D01*
X240701Y109252D02*
Y114173D01*
Y117520D02*
Y122441D01*
X247788Y117520D02*
Y122441D01*
X247788Y109252D02*
Y114173D01*
X213326Y122441D02*
X220413D01*
X213326Y109252D02*
X220413D01*
X213326Y109252D02*
Y114173D01*
Y117520D02*
Y122441D01*
X220413Y117520D02*
Y122441D01*
X220413Y109252D02*
Y114173D01*
D18*
X95044Y224633D02*
X103517D01*
X150223D02*
X158695D01*
X95044Y318882D02*
X158695D01*
X95044Y224633D02*
Y227200D01*
Y289532D02*
Y318882D01*
X158695Y224633D02*
Y227199D01*
Y289533D02*
Y318882D01*
X268049Y314152D02*
X269048Y315152D01*
X271048D01*
X272047Y314152D01*
Y310153D01*
X271048Y309154D01*
X269048D01*
X268049Y310153D01*
X262051Y309154D02*
X266049D01*
X262051Y313152D01*
Y314152D01*
X263050Y315152D01*
X265050D01*
X266049Y314152D01*
X271850Y300689D02*
Y306687D01*
X268851D01*
X267852Y305687D01*
Y303688D01*
X268851Y302688D01*
X271850D01*
X269851D02*
X267852Y300689D01*
X261854D02*
X265852D01*
X261854Y304688D01*
Y305687D01*
X262853Y306687D01*
X264853D01*
X265852Y305687D01*
X50787Y261024D02*
Y267022D01*
X47788D01*
X46789Y266022D01*
Y264023D01*
X47788Y263023D01*
X50787D01*
X48788D02*
X46789Y261024D01*
X40791Y267022D02*
X44789D01*
Y264023D01*
X42790Y265022D01*
X41790D01*
X40791Y264023D01*
Y262023D01*
X41790Y261024D01*
X43790D01*
X44789Y262023D01*
X35792Y261024D02*
Y267022D01*
X38791Y264023D01*
X34793D01*
X46592Y276357D02*
X47592Y277356D01*
X49591D01*
X50591Y276357D01*
Y272358D01*
X49591Y271358D01*
X47592D01*
X46592Y272358D01*
X44592Y271358D02*
X42593D01*
X43593D01*
Y277356D01*
X44592Y276357D01*
X39594D02*
X38594Y277356D01*
X36595D01*
X35595Y276357D01*
Y275357D01*
X36595Y274357D01*
X37595D01*
X36595D01*
X35595Y273358D01*
Y272358D01*
X36595Y271358D01*
X38594D01*
X39594Y272358D01*
X66437Y251181D02*
Y257179D01*
X63438D01*
X62438Y256179D01*
Y254180D01*
X63438Y253181D01*
X66437D01*
X64438D02*
X62438Y251181D01*
X56440Y257179D02*
X60439D01*
Y254180D01*
X58440Y255180D01*
X57440D01*
X56440Y254180D01*
Y252181D01*
X57440Y251181D01*
X59439D01*
X60439Y252181D01*
X50442Y257179D02*
X54441D01*
Y254180D01*
X52442Y255180D01*
X51442D01*
X50442Y254180D01*
Y252181D01*
X51442Y251181D01*
X53441D01*
X54441Y252181D01*
X66142Y240453D02*
Y246451D01*
X63143D01*
X62143Y245451D01*
Y243452D01*
X63143Y242452D01*
X66142D01*
X64142D02*
X62143Y240453D01*
X56145Y246451D02*
X58144Y245451D01*
X60144Y243452D01*
Y241452D01*
X59144Y240453D01*
X57145D01*
X56145Y241452D01*
Y242452D01*
X57145Y243452D01*
X60144D01*
X54146Y240453D02*
X52146D01*
X53146D01*
Y246451D01*
X54146Y245451D01*
X41346Y164719D02*
X47344Y160720D01*
X41346D02*
X47344Y164719D01*
X41346Y158721D02*
X42346D01*
X44345Y156721D01*
X42346Y154722D01*
X41346D01*
X44345Y156721D02*
X47344D01*
X44345Y152723D02*
Y148724D01*
X42346Y146725D02*
X41346Y145725D01*
Y143726D01*
X42346Y142726D01*
X46344D01*
X47344Y143726D01*
Y145725D01*
X46344Y146725D01*
X42346D01*
X47344Y140727D02*
Y138727D01*
Y139727D01*
X41346D01*
X42346Y140727D01*
X41346Y135728D02*
Y131730D01*
X42346D01*
X46344Y135728D01*
X47344D01*
X123524Y123721D02*
Y129718D01*
X120525D01*
X119525Y128719D01*
Y126719D01*
X120525Y125720D01*
X123524D01*
X121524D02*
X119525Y123721D01*
X117526D02*
X115526D01*
X116526D01*
Y129718D01*
X117526Y128719D01*
X108528Y123721D02*
X112527D01*
X108528Y127719D01*
Y128719D01*
X109528Y129718D01*
X111528D01*
X112527Y128719D01*
X123524Y133235D02*
Y139233D01*
X120525D01*
X119525Y138233D01*
Y136234D01*
X120525Y135234D01*
X123524D01*
X121524D02*
X119525Y133235D01*
X117526D02*
X115526D01*
X116526D01*
Y139233D01*
X117526Y138233D01*
X112527D02*
X111528Y139233D01*
X109528D01*
X108528Y138233D01*
Y137234D01*
X109528Y136234D01*
X110528D01*
X109528D01*
X108528Y135234D01*
Y134235D01*
X109528Y133235D01*
X111528D01*
X112527Y134235D01*
X123524Y142749D02*
Y148747D01*
X120525D01*
X119525Y147748D01*
Y145748D01*
X120525Y144749D01*
X123524D01*
X121524D02*
X119525Y142749D01*
X117526D02*
X115526D01*
X116526D01*
Y148747D01*
X117526Y147748D01*
X109528Y142749D02*
Y148747D01*
X112527Y145748D01*
X108528D01*
X123524Y152264D02*
Y158262D01*
X120525D01*
X119525Y157262D01*
Y155263D01*
X120525Y154263D01*
X123524D01*
X121524D02*
X119525Y152264D01*
X117526D02*
X115526D01*
X116526D01*
Y158262D01*
X117526Y157262D01*
X108528Y158262D02*
X112527D01*
Y155263D01*
X110528Y156263D01*
X109528D01*
X108528Y155263D01*
Y153263D01*
X109528Y152264D01*
X111528D01*
X112527Y153263D01*
X123524Y161778D02*
Y167776D01*
X120525D01*
X119525Y166777D01*
Y164777D01*
X120525Y163777D01*
X123524D01*
X121524D02*
X119525Y161778D01*
X117526D02*
X115526D01*
X116526D01*
Y167776D01*
X117526Y166777D01*
X108528Y167776D02*
X110528Y166777D01*
X112527Y164777D01*
Y162778D01*
X111528Y161778D01*
X109528D01*
X108528Y162778D01*
Y163777D01*
X109528Y164777D01*
X112527D01*
X123524Y171293D02*
Y177291D01*
X120525D01*
X119525Y176291D01*
Y174292D01*
X120525Y173292D01*
X123524D01*
X121524D02*
X119525Y171293D01*
X117526D02*
X115526D01*
X116526D01*
Y177291D01*
X117526Y176291D01*
X112527Y177291D02*
X108528D01*
Y176291D01*
X112527Y172292D01*
Y171293D01*
X123524Y180807D02*
Y186805D01*
X120525D01*
X119525Y185805D01*
Y183806D01*
X120525Y182806D01*
X123524D01*
X121524D02*
X119525Y180807D01*
X113527D02*
X117526D01*
X113527Y184806D01*
Y185805D01*
X114526Y186805D01*
X116526D01*
X117526Y185805D01*
X111528Y180807D02*
X109528D01*
X110528D01*
Y186805D01*
X111528Y185805D01*
X290453Y145276D02*
Y151274D01*
X287454D01*
X286454Y150274D01*
Y148275D01*
X287454Y147275D01*
X290453D01*
X288453D02*
X286454Y145276D01*
X284455Y150274D02*
X283455Y151274D01*
X281456D01*
X280456Y150274D01*
Y149274D01*
X281456Y148275D01*
X282455D01*
X281456D01*
X280456Y147275D01*
Y146275D01*
X281456Y145276D01*
X283455D01*
X284455Y146275D01*
X278457Y150274D02*
X277457Y151274D01*
X275458D01*
X274458Y150274D01*
Y149274D01*
X275458Y148275D01*
X276457D01*
X275458D01*
X274458Y147275D01*
Y146275D01*
X275458Y145276D01*
X277457D01*
X278457Y146275D01*
X290551Y154232D02*
Y160230D01*
X287552D01*
X286553Y159231D01*
Y157231D01*
X287552Y156232D01*
X290551D01*
X288552D02*
X286553Y154232D01*
X284553Y159231D02*
X283553Y160230D01*
X281554D01*
X280554Y159231D01*
Y158231D01*
X281554Y157231D01*
X282554D01*
X281554D01*
X280554Y156232D01*
Y155232D01*
X281554Y154232D01*
X283553D01*
X284553Y155232D01*
X275556Y154232D02*
Y160230D01*
X278555Y157231D01*
X274556D01*
X374508Y178150D02*
Y184148D01*
X371509D01*
X370509Y183148D01*
Y181149D01*
X371509Y180149D01*
X374508D01*
X372509D02*
X370509Y178150D01*
X365511D02*
Y184148D01*
X368510Y181149D01*
X364511D01*
X358513Y184148D02*
X360512Y183148D01*
X362512Y181149D01*
Y179149D01*
X361512Y178150D01*
X359513D01*
X358513Y179149D01*
Y180149D01*
X359513Y181149D01*
X362512D01*
X211024Y172933D02*
Y178931D01*
X208025D01*
X207025Y177931D01*
Y175932D01*
X208025Y174932D01*
X211024D01*
X209024D02*
X207025Y172933D01*
X201027D02*
X205026D01*
X201027Y176932D01*
Y177931D01*
X202027Y178931D01*
X204026D01*
X205026Y177931D01*
X195029Y172933D02*
X199028D01*
X195029Y176932D01*
Y177931D01*
X196028Y178931D01*
X198028D01*
X199028Y177931D01*
X371457Y140256D02*
X365459D01*
Y137257D01*
X366458Y136257D01*
X368458D01*
X369457Y137257D01*
Y140256D01*
Y138257D02*
X371457Y136257D01*
Y131259D02*
X365459D01*
X368458Y134258D01*
Y130259D01*
X371457Y124261D02*
Y128260D01*
X367458Y124261D01*
X366458D01*
X365459Y125261D01*
Y127260D01*
X366458Y128260D01*
X384055Y140256D02*
X378057D01*
Y137257D01*
X379057Y136257D01*
X381056D01*
X382056Y137257D01*
Y140256D01*
Y138257D02*
X384055Y136257D01*
X379057Y134258D02*
X378057Y133258D01*
Y131259D01*
X379057Y130259D01*
X380056D01*
X381056Y131259D01*
Y132258D01*
Y131259D01*
X382056Y130259D01*
X383055D01*
X384055Y131259D01*
Y133258D01*
X383055Y134258D01*
X378057Y128260D02*
Y124261D01*
X379057D01*
X383055Y128260D01*
X384055D01*
X207283Y134252D02*
X201285D01*
Y131253D01*
X202285Y130253D01*
X204284D01*
X205284Y131253D01*
Y134252D01*
Y132253D02*
X207283Y130253D01*
X206284Y128254D02*
X207283Y127254D01*
Y125255D01*
X206284Y124255D01*
X202285D01*
X201285Y125255D01*
Y127254D01*
X202285Y128254D01*
X203285D01*
X204284Y127254D01*
Y124255D01*
X192618Y134252D02*
X186620D01*
Y131253D01*
X187620Y130253D01*
X189619D01*
X190619Y131253D01*
Y134252D01*
Y132253D02*
X192618Y130253D01*
X186620Y124255D02*
Y128254D01*
X189619D01*
X188619Y126255D01*
Y125255D01*
X189619Y124255D01*
X191618D01*
X192618Y125255D01*
Y127254D01*
X191618Y128254D01*
X343996Y140157D02*
X337998D01*
Y137158D01*
X338998Y136159D01*
X340997D01*
X341997Y137158D01*
Y140157D01*
Y138158D02*
X343996Y136159D01*
Y131160D02*
X337998D01*
X340997Y134159D01*
Y130161D01*
X343996Y128161D02*
Y126162D01*
Y127162D01*
X337998D01*
X338998Y128161D01*
X356693Y140256D02*
X350695D01*
Y137257D01*
X351695Y136257D01*
X353694D01*
X354694Y137257D01*
Y140256D01*
Y138257D02*
X356693Y136257D01*
X351695Y134258D02*
X350695Y133258D01*
Y131259D01*
X351695Y130259D01*
X352694D01*
X353694Y131259D01*
Y132258D01*
Y131259D01*
X354694Y130259D01*
X355693D01*
X356693Y131259D01*
Y133258D01*
X355693Y134258D01*
X350695Y124261D02*
X351695Y126260D01*
X353694Y128260D01*
X355693D01*
X356693Y127260D01*
Y125261D01*
X355693Y124261D01*
X354694D01*
X353694Y125261D01*
Y128260D01*
X329429Y140256D02*
X323431D01*
Y137257D01*
X324431Y136257D01*
X326430D01*
X327430Y137257D01*
Y140256D01*
Y138257D02*
X329429Y136257D01*
X324431Y134258D02*
X323431Y133258D01*
Y131259D01*
X324431Y130259D01*
X325430D01*
X326430Y131259D01*
Y132258D01*
Y131259D01*
X327430Y130259D01*
X328429D01*
X329429Y131259D01*
Y133258D01*
X328429Y134258D01*
X323431Y124261D02*
Y128260D01*
X326430D01*
X325430Y126260D01*
Y125261D01*
X326430Y124261D01*
X328429D01*
X329429Y125261D01*
Y127260D01*
X328429Y128260D01*
X290021Y140157D02*
X284023D01*
Y137159D01*
X285023Y136159D01*
X287022D01*
X288022Y137159D01*
Y140157D01*
Y138158D02*
X290021Y136159D01*
Y130161D02*
Y134159D01*
X286022Y130161D01*
X285023D01*
X284023Y131160D01*
Y133160D01*
X285023Y134159D01*
X284023Y124163D02*
Y128161D01*
X287022D01*
X286022Y126162D01*
Y125162D01*
X287022Y124163D01*
X289021D01*
X290021Y125162D01*
Y127162D01*
X289021Y128161D01*
X302521Y140157D02*
X296523D01*
Y137159D01*
X297523Y136159D01*
X299522D01*
X300522Y137159D01*
Y140157D01*
Y138158D02*
X302521Y136159D01*
Y130161D02*
Y134159D01*
X298522Y130161D01*
X297523D01*
X296523Y131160D01*
Y133160D01*
X297523Y134159D01*
Y128161D02*
X296523Y127162D01*
Y125162D01*
X297523Y124163D01*
X301521D01*
X302521Y125162D01*
Y127162D01*
X301521Y128161D01*
X297523D01*
X262868Y140256D02*
X256871D01*
Y137257D01*
X257870Y136257D01*
X259870D01*
X260869Y137257D01*
Y140256D01*
Y138257D02*
X262868Y136257D01*
Y130259D02*
Y134258D01*
X258870Y130259D01*
X257870D01*
X256871Y131259D01*
Y133258D01*
X257870Y134258D01*
X262868Y125261D02*
X256871D01*
X259870Y128260D01*
Y124261D01*
X234449Y140256D02*
X228451D01*
Y137257D01*
X229450Y136257D01*
X231450D01*
X232450Y137257D01*
Y140256D01*
Y138257D02*
X234449Y136257D01*
Y130259D02*
Y134258D01*
X230450Y130259D01*
X229450D01*
X228451Y131259D01*
Y133258D01*
X229450Y134258D01*
Y128260D02*
X228451Y127260D01*
Y125261D01*
X229450Y124261D01*
X230450D01*
X231450Y125261D01*
Y126260D01*
Y125261D01*
X232450Y124261D01*
X233449D01*
X234449Y125261D01*
Y127260D01*
X233449Y128260D01*
X165354Y134252D02*
X159356D01*
Y131253D01*
X160356Y130253D01*
X162355D01*
X163355Y131253D01*
Y134252D01*
Y132253D02*
X165354Y130253D01*
Y125255D02*
X159356D01*
X162355Y128254D01*
Y124255D01*
X179724Y134252D02*
X173726D01*
Y131253D01*
X174726Y130253D01*
X176725D01*
X177725Y131253D01*
Y134252D01*
Y132253D02*
X179724Y130253D01*
X174726Y128254D02*
X173726Y127254D01*
Y125255D01*
X174726Y124255D01*
X175726D01*
X176725Y125255D01*
X177725Y124255D01*
X178725D01*
X179724Y125255D01*
Y127254D01*
X178725Y128254D01*
X177725D01*
X176725Y127254D01*
X175726Y128254D01*
X174726D01*
X176725Y127254D02*
Y125255D01*
X152559Y134252D02*
X146561D01*
Y131253D01*
X147561Y130253D01*
X149560D01*
X150560Y131253D01*
Y134252D01*
Y132253D02*
X152559Y130253D01*
X146561Y128254D02*
Y124255D01*
X147561D01*
X151559Y128254D01*
X152559D01*
X316929Y140256D02*
X310931D01*
Y137257D01*
X311931Y136257D01*
X313930D01*
X314930Y137257D01*
Y140256D01*
Y138257D02*
X316929Y136257D01*
Y131259D02*
X310931D01*
X313930Y134258D01*
Y130259D01*
X311931Y128260D02*
X310931Y127260D01*
Y125261D01*
X311931Y124261D01*
X315929D01*
X316929Y125261D01*
Y127260D01*
X315929Y128260D01*
X311931D01*
X275368Y140157D02*
X269371D01*
Y137159D01*
X270370Y136159D01*
X272370D01*
X273369Y137159D01*
Y140157D01*
Y138158D02*
X275368Y136159D01*
Y134159D02*
Y132160D01*
Y133160D01*
X269371D01*
X270370Y134159D01*
X274369Y129161D02*
X275368Y128161D01*
Y126162D01*
X274369Y125162D01*
X270370D01*
X269371Y126162D01*
Y128161D01*
X270370Y129161D01*
X271370D01*
X272370Y128161D01*
Y125162D01*
X247146Y140256D02*
X241148D01*
Y137257D01*
X242147Y136257D01*
X244147D01*
X245146Y137257D01*
Y140256D01*
Y138257D02*
X247146Y136257D01*
Y134258D02*
Y132258D01*
Y133258D01*
X241148D01*
X242147Y134258D01*
Y129260D02*
X241148Y128260D01*
Y126260D01*
X242147Y125261D01*
X243147D01*
X244147Y126260D01*
X245146Y125261D01*
X246146D01*
X247146Y126260D01*
Y128260D01*
X246146Y129260D01*
X245146D01*
X244147Y128260D01*
X243147Y129260D01*
X242147D01*
X244147Y128260D02*
Y126260D01*
X219783Y134252D02*
X213785D01*
Y131253D01*
X214785Y130253D01*
X216784D01*
X217784Y131253D01*
Y134252D01*
Y132253D02*
X219783Y130253D01*
X213785Y124255D02*
X214785Y126255D01*
X216784Y128254D01*
X218784D01*
X219783Y127254D01*
Y125255D01*
X218784Y124255D01*
X217784D01*
X216784Y125255D01*
Y128254D01*
X336221Y191136D02*
Y186137D01*
X335221Y185138D01*
X333221D01*
X332222Y186137D01*
Y191136D01*
X327223Y185138D02*
Y191136D01*
X330222Y188137D01*
X326224D01*
X173524Y185722D02*
Y180724D01*
X172524Y179724D01*
X170525D01*
X169525Y180724D01*
Y185722D01*
X167526Y184723D02*
X166526Y185722D01*
X164526D01*
X163527Y184723D01*
Y183723D01*
X164526Y182723D01*
X165526D01*
X164526D01*
X163527Y181724D01*
Y180724D01*
X164526Y179724D01*
X166526D01*
X167526Y180724D01*
X161716Y328473D02*
Y323475D01*
X160716Y322475D01*
X158717D01*
X157717Y323475D01*
Y328473D01*
X151719D02*
X153719Y327474D01*
X155718Y325474D01*
Y323475D01*
X154718Y322475D01*
X152719D01*
X151719Y323475D01*
Y324475D01*
X152719Y325474D01*
X155718D01*
D73*
X161122Y289961D02*
G03*
X161122Y289961I-591J0D01*
G01*
M02*
