G04*
G04 #@! TF.GenerationSoftware,Altium Limited,Altium Designer,19.0.9 (268)*
G04*
G04 Layer_Physical_Order=1*
G04 Layer_Color=255*
%FSLAX25Y25*%
%MOIN*%
G70*
G01*
G75*
%ADD11C,0.03937*%
%ADD18C,0.01000*%
%ADD21R,0.05315X0.01575*%
%ADD22R,0.05315X0.02362*%
%ADD23R,0.05906X0.03543*%
%ADD24O,0.00984X0.06102*%
%ADD25O,0.06102X0.00984*%
%ADD26O,0.09843X0.02756*%
%ADD27R,0.06102X0.09252*%
%ADD28R,0.06299X0.12402*%
%ADD29R,0.05709X0.03937*%
%ADD30R,0.05315X0.04331*%
%ADD31R,0.03937X0.05709*%
%ADD32R,0.04331X0.05709*%
%ADD33R,0.05906X0.05906*%
%ADD34R,0.13780X0.09843*%
%ADD35R,0.06693X0.04724*%
%ADD36R,0.04724X0.06693*%
%ADD37R,0.08583X0.06299*%
%ADD38R,0.08661X0.06299*%
%ADD39R,0.04331X0.05315*%
%ADD40R,0.08268X0.22047*%
%ADD67C,0.03937*%
%ADD68C,0.03150*%
%ADD69C,0.05906*%
%ADD70C,0.01968*%
%ADD71C,0.02756*%
%ADD72C,0.01575*%
%ADD73C,0.01181*%
%ADD74C,0.01000*%
%ADD75C,0.01500*%
%ADD76R,0.04823X0.28347*%
%ADD77R,0.10728X0.08169*%
%ADD78R,0.16339X0.08169*%
%ADD79R,0.09941X0.28347*%
%ADD80C,0.07874*%
%ADD81C,0.07480*%
%ADD82R,0.07480X0.07480*%
%ADD83C,0.07087*%
%ADD84R,0.07087X0.07087*%
%ADD85R,0.07087X0.07087*%
%ADD86C,0.03150*%
%ADD87C,0.05000*%
G36*
X294702Y327269D02*
X294208Y326913D01*
X292240Y326984D01*
Y326984D01*
X288681D01*
Y322441D01*
Y317897D01*
X292240D01*
Y318855D01*
X294208Y319523D01*
X294456Y319200D01*
X295405Y318472D01*
X296511Y318014D01*
X297696Y317858D01*
X298883Y318014D01*
X299988Y318472D01*
X300937Y319200D01*
X301665Y320149D01*
X303728Y320150D01*
X304456Y319201D01*
X305406Y318472D01*
X306511Y318015D01*
X307697Y317858D01*
X308883Y318015D01*
X309988Y318472D01*
X310937Y319201D01*
X311665Y320150D01*
X313728D01*
X314457Y319201D01*
X315406Y318472D01*
X316167Y318157D01*
Y311657D01*
X296886Y292376D01*
X264525D01*
X263924Y293145D01*
X263425Y294344D01*
X263532Y294603D01*
X263621Y295276D01*
X263532Y295948D01*
X263273Y296574D01*
X262860Y297112D01*
X262322Y297525D01*
X261696Y297784D01*
X261024Y297873D01*
X260351Y297784D01*
X259725Y297525D01*
X259187Y297112D01*
X258952Y296805D01*
X243756D01*
X243517Y296972D01*
X242578Y298326D01*
X242460Y298774D01*
X242518Y299213D01*
X242429Y299885D01*
X242170Y300511D01*
X241757Y301049D01*
X241450Y301285D01*
Y318157D01*
X242212Y318472D01*
X243161Y319200D01*
X243889Y320149D01*
X245953Y320150D01*
X246681Y319201D01*
X247630Y318472D01*
X248735Y318015D01*
X248937Y317988D01*
Y322441D01*
Y326894D01*
X248735Y326867D01*
X247630Y326410D01*
X246681Y325681D01*
X245953Y324732D01*
X243889Y324732D01*
X243161Y325681D01*
X242212Y326409D01*
X241107Y326867D01*
X239921Y327023D01*
X238735Y326867D01*
X237630Y326409D01*
X236681Y325681D01*
X236433Y325358D01*
X234748Y325930D01*
X234464Y326561D01*
Y326984D01*
X234464D01*
X234750Y328834D01*
X235127Y329289D01*
X294702D01*
Y327269D01*
D02*
G37*
G36*
X224209Y324886D02*
X225378Y323401D01*
Y317897D01*
X234464D01*
Y318855D01*
X236433Y319523D01*
X236681Y319200D01*
X237630Y318472D01*
X238392Y318157D01*
Y301285D01*
X238085Y301049D01*
X237672Y300511D01*
X237412Y299885D01*
X237324Y299213D01*
X237382Y298774D01*
X237264Y298326D01*
X236325Y296972D01*
X236086Y296805D01*
X229767D01*
X220407Y306165D01*
Y324886D01*
X224209D01*
D02*
G37*
G36*
X387795Y302756D02*
Y294882D01*
X348425D01*
X348425Y302756D01*
X353173Y310827D01*
X383048D01*
X387795Y302756D01*
D02*
G37*
G36*
X141694Y290203D02*
X141380Y289931D01*
X139411Y290828D01*
Y312246D01*
X139551Y312386D01*
X141694D01*
Y290203D01*
D02*
G37*
G36*
X480303Y1916D02*
X1956D01*
Y342467D01*
X171723D01*
X172359Y340600D01*
X171849Y340388D01*
X171229Y339912D01*
X163237Y331921D01*
X162761Y331301D01*
X162462Y330579D01*
X162360Y329804D01*
Y284311D01*
X159390Y281341D01*
X139411D01*
Y285365D01*
X141380Y285757D01*
X141482Y285511D01*
X141958Y284891D01*
X142578Y284415D01*
X143300Y284116D01*
X144075Y284014D01*
X144850Y284116D01*
X145572Y284415D01*
X146192Y284891D01*
X146668Y285511D01*
X146967Y286233D01*
X147069Y287008D01*
X146967Y287783D01*
X146888Y287972D01*
Y312386D01*
X147260D01*
Y320094D01*
X146888D01*
Y324886D01*
X149366D01*
Y333185D01*
X138784D01*
Y324886D01*
X141694D01*
Y320094D01*
X133449D01*
Y319234D01*
X129766D01*
Y328346D01*
X129664Y329121D01*
X129365Y329843D01*
X128889Y330464D01*
X128269Y330939D01*
X127547Y331239D01*
X126772Y331341D01*
X125997Y331239D01*
X125275Y330939D01*
X124654Y330464D01*
X124179Y329843D01*
X123880Y329121D01*
X123777Y328346D01*
Y319234D01*
X118913D01*
Y319701D01*
X112200D01*
X110813Y321098D01*
X110839Y324886D01*
X113224D01*
Y328051D01*
X107894D01*
X102563D01*
Y324886D01*
X103454D01*
X104841Y323489D01*
X104815Y319701D01*
X104709D01*
Y317028D01*
X107874D01*
Y316043D01*
X108858D01*
Y312386D01*
X118913D01*
Y313246D01*
X133423D01*
Y278346D01*
Y245866D01*
X133525Y245091D01*
X133824Y244369D01*
X134300Y243749D01*
X142174Y235875D01*
X142174Y235875D01*
X149458Y228591D01*
X150078Y228116D01*
X150377Y227992D01*
X150800Y227817D01*
X151575Y227714D01*
X169432D01*
X170207Y227817D01*
X170929Y228116D01*
X171549Y228591D01*
X174164Y231207D01*
X174640Y231827D01*
X174939Y232549D01*
X175041Y233324D01*
Y240411D01*
X181988D01*
X182763Y240513D01*
X183485Y240812D01*
X184105Y241288D01*
X187354Y244537D01*
X187829Y245157D01*
X188129Y245879D01*
X188231Y246654D01*
Y260614D01*
X189780D01*
Y269701D01*
X188822D01*
X188154Y271669D01*
X188477Y271917D01*
X189205Y272866D01*
X189482Y273535D01*
X190713D01*
X191334Y273659D01*
X191860Y274010D01*
X192996Y275147D01*
X194965Y274492D01*
X194965Y272850D01*
X194965Y272524D01*
Y265142D01*
X196600D01*
Y260340D01*
X196294Y260104D01*
X195881Y259566D01*
X195621Y258940D01*
X195533Y258268D01*
X195621Y257596D01*
X195881Y256969D01*
X196294Y256431D01*
X196831Y256019D01*
X197458Y255759D01*
X198130Y255671D01*
X198802Y255759D01*
X199428Y256019D01*
X199966Y256431D01*
X200379Y256969D01*
X200638Y257596D01*
X200727Y258268D01*
X200638Y258940D01*
X200379Y259566D01*
X199966Y260104D01*
X199659Y260340D01*
Y263675D01*
X200902Y265142D01*
X202838D01*
X204278Y263787D01*
Y256327D01*
X204069Y256167D01*
X203656Y255629D01*
X203397Y255003D01*
X203309Y254331D01*
X203397Y253659D01*
X203656Y253032D01*
X204069Y252494D01*
X204607Y252082D01*
X205233Y251822D01*
X205906Y251734D01*
X206578Y251822D01*
X207204Y252082D01*
X207742Y252494D01*
X208155Y253032D01*
X208414Y253659D01*
X208503Y254331D01*
X208414Y255003D01*
X208155Y255629D01*
X207742Y256167D01*
X207336Y256478D01*
Y265142D01*
X208776D01*
Y272524D01*
X208776Y274492D01*
X208776Y274819D01*
Y277211D01*
X221156D01*
X221392Y276904D01*
X221930Y276491D01*
X222556Y276232D01*
X223228Y276143D01*
X223901Y276232D01*
X224527Y276491D01*
X225065Y276904D01*
X225477Y277442D01*
X225737Y278068D01*
X225825Y278740D01*
X225737Y279412D01*
X225477Y280039D01*
X225065Y280576D01*
X224527Y280989D01*
X223901Y281249D01*
X223228Y281337D01*
X222556Y281249D01*
X221930Y280989D01*
X221392Y280576D01*
X221156Y280270D01*
X208776D01*
Y282201D01*
X202870D01*
X202839Y282201D01*
X200902D01*
X200870Y282201D01*
X194965D01*
Y279968D01*
X193902D01*
X193282Y279845D01*
X192756Y279493D01*
X191153Y277890D01*
X190734Y277795D01*
X188650Y278172D01*
X188477Y278397D01*
X187528Y279126D01*
X187528Y281189D01*
X188477Y281917D01*
X189205Y282866D01*
X189663Y283971D01*
X189689Y284173D01*
X185236D01*
Y285157D01*
X184252D01*
Y289610D01*
X184050Y289584D01*
X182945Y289126D01*
X181996Y288398D01*
X181268Y287449D01*
X181157Y287181D01*
X179316D01*
X179205Y287449D01*
X178477Y288398D01*
X177527Y289126D01*
X176422Y289584D01*
X176221Y289610D01*
Y285157D01*
X175236D01*
Y284173D01*
X170783D01*
X170810Y283971D01*
X171268Y282866D01*
X171996Y281917D01*
X172945Y281189D01*
Y279126D01*
X171996Y278398D01*
X171268Y277449D01*
X170952Y276687D01*
X169121D01*
X168536Y276570D01*
X168040Y276239D01*
X167441Y275640D01*
X167208Y275737D01*
X166535Y275825D01*
X165863Y275737D01*
X165237Y275477D01*
X164699Y275065D01*
X164286Y274527D01*
X164027Y273901D01*
X163938Y273228D01*
X164027Y272556D01*
X164286Y271930D01*
X164699Y271392D01*
X165237Y270979D01*
X165863Y270720D01*
X166535Y270631D01*
X167208Y270720D01*
X167834Y270979D01*
X168372Y271392D01*
X168784Y271930D01*
X169044Y272556D01*
X171017Y272841D01*
X171359Y272748D01*
X171996Y271917D01*
X172945Y271189D01*
Y269126D01*
X171996Y268398D01*
X171268Y267449D01*
X170810Y266343D01*
X170654Y265158D01*
X170810Y263971D01*
X171268Y262866D01*
X171996Y261917D01*
X172945Y261189D01*
X174050Y260731D01*
X175236Y260575D01*
X176422Y260731D01*
X177527Y261189D01*
X178477Y261917D01*
X178665Y262163D01*
X180693D01*
Y260614D01*
X182242D01*
Y247894D01*
X180748Y246400D01*
X176039D01*
X175902Y248311D01*
X175902Y248368D01*
Y254248D01*
X173573D01*
Y254328D01*
X173450Y254948D01*
X173098Y255474D01*
X167763Y260809D01*
Y262598D01*
X167640Y263219D01*
X167288Y263745D01*
X163745Y267288D01*
X163219Y267640D01*
X162598Y267763D01*
X151276D01*
X150654Y268348D01*
X149812Y269732D01*
X149845Y269980D01*
X149742Y270755D01*
X149443Y271477D01*
X148968Y272097D01*
X148347Y272573D01*
X147625Y272872D01*
X146850Y272974D01*
X146075Y272872D01*
X145353Y272573D01*
X144733Y272097D01*
X144257Y271477D01*
X143958Y270755D01*
X143856Y269980D01*
X143958Y269205D01*
X144257Y268483D01*
X144733Y267863D01*
X145229Y267483D01*
Y267323D01*
X145352Y266702D01*
X145704Y266176D01*
X146885Y264995D01*
X147411Y264644D01*
X148031Y264520D01*
X161927D01*
X164520Y261927D01*
Y260138D01*
X164644Y259517D01*
X164995Y258991D01*
X168646Y255341D01*
X168193Y254248D01*
X168193D01*
Y248342D01*
X168193Y248311D01*
Y246374D01*
X168193Y246342D01*
Y240437D01*
X169053D01*
Y234564D01*
X168192Y233703D01*
X152815D01*
X146408Y240109D01*
X146408Y240109D01*
X139411Y247106D01*
Y275352D01*
X160630D01*
X161405Y275454D01*
X162127Y275753D01*
X162747Y276229D01*
X167472Y280954D01*
X167947Y281574D01*
X168246Y282296D01*
X168349Y283071D01*
Y328564D01*
X174586Y334801D01*
X176555D01*
X177406Y333185D01*
X177406Y332833D01*
Y330020D01*
X187988D01*
Y332833D01*
X187988Y333185D01*
X188839Y334801D01*
X212697D01*
X213547Y333185D01*
Y324886D01*
X217349D01*
Y305532D01*
X217465Y304946D01*
X217796Y304450D01*
X228052Y294194D01*
X228549Y293863D01*
X229134Y293746D01*
X229956D01*
X230710Y291928D01*
X228446Y289664D01*
X228115Y289168D01*
X227998Y288583D01*
Y275339D01*
X227165Y273463D01*
X226493Y273375D01*
X225867Y273115D01*
X225329Y272703D01*
X224916Y272165D01*
X224657Y271538D01*
X224568Y270866D01*
X224657Y270194D01*
X224916Y269568D01*
X225329Y269030D01*
X225440Y267121D01*
X225324Y266711D01*
X186336Y227724D01*
X185940Y227667D01*
X184252Y228045D01*
X184034Y228206D01*
X183726Y228608D01*
X183188Y229021D01*
X182562Y229280D01*
X181890Y229369D01*
X181218Y229280D01*
X180591Y229021D01*
X180053Y228608D01*
X179609Y228077D01*
X178857Y228233D01*
X178231Y228492D01*
X177559Y228581D01*
X176886Y228492D01*
X176260Y228233D01*
X175722Y227820D01*
X175310Y227282D01*
X175050Y226656D01*
X174962Y225984D01*
X173085Y225301D01*
X91408D01*
X89512Y225984D01*
X89424Y226656D01*
X89164Y227283D01*
X88752Y227821D01*
X88214Y228233D01*
X87587Y228493D01*
X86915Y228581D01*
X86243Y228493D01*
X85617Y228233D01*
X85079Y227821D01*
X84666Y227283D01*
X84262Y226577D01*
X83246Y226019D01*
X82459Y226044D01*
X81786Y225955D01*
X81160Y225696D01*
X80622Y225283D01*
X80209Y224745D01*
X78413Y225520D01*
X77994Y225803D01*
X77907Y226028D01*
Y259055D01*
X77791Y259640D01*
X77459Y260137D01*
X74403Y263193D01*
Y296405D01*
X75165Y296721D01*
X76114Y297449D01*
X76362Y297772D01*
X78331Y297104D01*
Y296146D01*
X87417D01*
Y305232D01*
X86459D01*
X85791Y307201D01*
X86114Y307449D01*
X86843Y308398D01*
X87300Y309503D01*
X87457Y310689D01*
X87300Y311875D01*
X86843Y312980D01*
X86114Y313929D01*
X85165Y314657D01*
X84060Y315115D01*
X82874Y315271D01*
X81688Y315115D01*
X80583Y314657D01*
X79634Y313929D01*
X78905Y312980D01*
X76842Y312981D01*
X76114Y313930D01*
X75165Y314658D01*
X74060Y315116D01*
X72874Y315272D01*
X71688Y315116D01*
X70582Y314658D01*
X69633Y313930D01*
X68905Y312981D01*
X68447Y311875D01*
X68291Y310689D01*
X68447Y309503D01*
X68763Y308741D01*
X65060Y305039D01*
X64729Y304543D01*
X64612Y303957D01*
Y297638D01*
X64729Y297053D01*
X65060Y296556D01*
X69951Y291666D01*
Y261982D01*
X70067Y261397D01*
X70399Y260901D01*
X73274Y258026D01*
Y223080D01*
X73390Y222495D01*
X73722Y221999D01*
X78648Y217072D01*
X78562Y216049D01*
X77559Y214408D01*
X76887Y214319D01*
X76261Y214060D01*
X74425Y214878D01*
Y214878D01*
X67110D01*
X65583Y215943D01*
X65095Y216688D01*
X65100Y216732D01*
X64998Y217507D01*
X64699Y218229D01*
X64223Y218849D01*
X63603Y219325D01*
X62881Y219624D01*
X62106Y219726D01*
X61331Y219624D01*
X60609Y219325D01*
X59989Y218849D01*
X59513Y218229D01*
X59214Y217507D01*
X59112Y216732D01*
X59214Y215957D01*
X59513Y215235D01*
X59989Y214615D01*
X60182Y214467D01*
Y213850D01*
X60336Y213076D01*
X60774Y212419D01*
X60973Y212220D01*
X60158Y210252D01*
X55102D01*
Y210252D01*
X53165D01*
Y210252D01*
X51181D01*
Y206398D01*
X50197D01*
Y205413D01*
X47228D01*
Y202543D01*
X47228D01*
Y200934D01*
X47228D01*
Y198064D01*
X50197D01*
Y196096D01*
X47228D01*
Y193226D01*
X47251D01*
X48374Y191634D01*
X48513Y190936D01*
X48908Y190345D01*
X50286Y188967D01*
X50286Y188967D01*
X49896Y187172D01*
X49509Y186717D01*
X49087Y186696D01*
X43193D01*
Y185835D01*
X40682D01*
X39908Y185733D01*
X39185Y185434D01*
X38565Y184958D01*
X38089Y184338D01*
X37790Y183616D01*
X37688Y182841D01*
X37790Y182066D01*
X38089Y181344D01*
X38565Y180724D01*
X39185Y180248D01*
X39908Y179949D01*
X40682Y179847D01*
X41581D01*
X43193Y177879D01*
X43193Y177378D01*
X43193D01*
Y169669D01*
X43737D01*
Y168504D01*
X43921Y167576D01*
X44447Y166789D01*
X47203Y164034D01*
X47989Y163508D01*
X48917Y163323D01*
X48917Y163323D01*
X66621D01*
Y162845D01*
X66805Y161917D01*
X67331Y161130D01*
X70727Y157734D01*
X71513Y157209D01*
X72441Y157024D01*
X73213D01*
Y155654D01*
X83268D01*
Y159311D01*
Y162969D01*
X73213D01*
Y162969D01*
X73045Y162899D01*
X71470Y164155D01*
Y166466D01*
X72482Y167479D01*
X73008Y168265D01*
X73192Y169193D01*
Y176461D01*
X74425D01*
Y176694D01*
X76260Y177672D01*
X76887Y177412D01*
X77559Y177324D01*
X78231Y177412D01*
X78857Y177672D01*
X79395Y178085D01*
X79808Y178622D01*
X80067Y179249D01*
X80156Y179921D01*
X80067Y180593D01*
X79808Y181219D01*
X79395Y181757D01*
Y182415D01*
X79808Y182953D01*
X80067Y183579D01*
X80156Y184252D01*
X80067Y184924D01*
X79808Y185550D01*
X79395Y186088D01*
X78857Y186501D01*
X78810Y186520D01*
X78243Y188128D01*
X78249Y188743D01*
X88173Y198668D01*
X90142Y197852D01*
Y195161D01*
Y192602D01*
Y190043D01*
Y187484D01*
Y184925D01*
Y182366D01*
Y179807D01*
Y176461D01*
X96016D01*
Y147047D01*
X96140Y146427D01*
X96491Y145900D01*
X103578Y138814D01*
X104104Y138462D01*
X104724Y138339D01*
X106520D01*
Y136106D01*
X112425D01*
X112457Y136106D01*
X114394D01*
X114425Y136106D01*
X116378D01*
Y139961D01*
X117362D01*
Y140945D01*
X120331D01*
Y143783D01*
X120331Y143815D01*
X120331Y145752D01*
X120331Y145783D01*
Y148622D01*
X117362D01*
Y150591D01*
X120331D01*
Y153331D01*
X120331Y153461D01*
X120331Y155299D01*
X120331Y155429D01*
Y158169D01*
X117362D01*
Y160138D01*
X120331D01*
Y162976D01*
X120331Y163008D01*
X120407Y164945D01*
X120488D01*
Y167815D01*
X117520D01*
Y169783D01*
X120488D01*
Y172392D01*
X120488Y172653D01*
X120331Y174557D01*
Y177165D01*
X117362D01*
Y178150D01*
X116378D01*
Y182004D01*
X114425D01*
X114394Y182004D01*
X112457D01*
X112425Y182004D01*
X106520D01*
X105952Y183738D01*
Y184416D01*
X106186Y185189D01*
X106816Y185457D01*
X107353Y185870D01*
X107766Y186407D01*
X108026Y187034D01*
X108114Y187706D01*
X109142Y188249D01*
X109768Y188508D01*
X110306Y188921D01*
X110719Y189459D01*
X110978Y190085D01*
X111324Y191310D01*
X111996Y191399D01*
X112623Y191658D01*
X113161Y192071D01*
X113573Y192609D01*
X113833Y193235D01*
X113921Y193907D01*
X114949Y194450D01*
X115576Y194709D01*
X116114Y195122D01*
X116526Y195660D01*
X116786Y196286D01*
X117033Y197610D01*
X117705Y197698D01*
X118332Y197958D01*
X118870Y198370D01*
X119282Y198908D01*
X119542Y199534D01*
X120085Y200563D01*
X120757Y200651D01*
X121383Y200910D01*
X121921Y201323D01*
X122334Y201861D01*
X122593Y202487D01*
X122604Y202573D01*
X122775Y203261D01*
X123574Y204136D01*
X124399Y204391D01*
X125025Y204651D01*
X125563Y205064D01*
X125976Y205601D01*
X126235Y206228D01*
X126323Y206900D01*
X126287Y207591D01*
X126952Y207826D01*
X127578Y208086D01*
X128116Y208498D01*
X128529Y209036D01*
X128788Y209663D01*
X128876Y210335D01*
X128788Y211007D01*
X128529Y211633D01*
X129499Y213473D01*
X183992D01*
X184613Y213596D01*
X185139Y213948D01*
X221047Y249856D01*
X223016Y249041D01*
Y248327D01*
X226673D01*
Y246358D01*
X223016D01*
Y244177D01*
X223016D01*
Y242966D01*
X222213Y240998D01*
X216929D01*
X216344Y240881D01*
X215848Y240550D01*
X213363Y238066D01*
X213032Y237569D01*
X212915Y236984D01*
Y230498D01*
X213032Y229912D01*
X213363Y229416D01*
X230164Y212616D01*
Y181512D01*
X227543D01*
Y175969D01*
X234512D01*
X235499Y175885D01*
X236398Y174393D01*
Y170095D01*
X235449Y168520D01*
X234430Y168520D01*
X227543D01*
Y162976D01*
X234430D01*
X235449Y162976D01*
X236398Y161401D01*
Y159169D01*
X234762D01*
Y151854D01*
X240668D01*
X241093Y151854D01*
X242636D01*
X243061Y151854D01*
X244817D01*
Y155512D01*
Y159169D01*
X243061D01*
X242636Y159169D01*
X241093D01*
X239457Y160636D01*
Y175636D01*
X239500Y175852D01*
Y176681D01*
X239383Y177266D01*
X239052Y177762D01*
X236992Y179822D01*
X236496Y180153D01*
X235911Y180270D01*
X235449D01*
Y181512D01*
X233222D01*
Y213250D01*
X233106Y213835D01*
X232774Y214331D01*
X230768Y216337D01*
X231522Y218156D01*
X241629D01*
X241864Y217849D01*
X242402Y217436D01*
X243029Y217177D01*
X243701Y217088D01*
X244373Y217177D01*
X245927Y216305D01*
X246249Y215913D01*
X246321Y215367D01*
X246620Y214645D01*
X247095Y214025D01*
X247715Y213549D01*
X248438Y213250D01*
X249213Y213148D01*
X249715Y213214D01*
X250285Y213022D01*
X251657Y211970D01*
X251683Y211927D01*
Y185886D01*
X249706Y183908D01*
X249374Y183412D01*
X249258Y182827D01*
Y181512D01*
X246835D01*
Y175969D01*
X254740D01*
Y180002D01*
X254742Y180012D01*
X254740Y181512D01*
X254417Y181518D01*
X253604Y183480D01*
X254294Y184171D01*
X254626Y184667D01*
X254742Y185252D01*
Y189824D01*
X256579Y190142D01*
X256711Y190142D01*
X259252D01*
Y193307D01*
X261221D01*
Y190142D01*
X263894D01*
Y190710D01*
X282071D01*
Y190142D01*
X284744D01*
Y193307D01*
X286713D01*
Y190142D01*
X289386D01*
Y190710D01*
X292609D01*
X293744Y189575D01*
Y182196D01*
X293536Y181693D01*
X299147D01*
X298938Y182196D01*
Y190651D01*
X298850Y191323D01*
X298590Y191949D01*
X298178Y192487D01*
X295521Y195143D01*
X294984Y195556D01*
X294357Y195816D01*
X293685Y195904D01*
X289954D01*
X289386Y196472D01*
Y198016D01*
X289386Y198441D01*
Y204346D01*
X282071D01*
Y202710D01*
X276655D01*
X276419Y203017D01*
X276112Y203253D01*
Y211024D01*
X275996Y211609D01*
X275664Y212105D01*
X270176Y217593D01*
X270930Y219411D01*
X305985D01*
X308661Y216735D01*
Y189961D01*
X312386D01*
Y183843D01*
X322654D01*
Y189961D01*
X326279D01*
X326378Y189862D01*
Y194140D01*
X328624D01*
Y192504D01*
X335939D01*
Y198835D01*
X335939D01*
Y200378D01*
X335939D01*
Y202559D01*
X328624D01*
Y200378D01*
X328624D01*
Y199167D01*
X328346Y198488D01*
X326378Y198874D01*
Y230407D01*
X328346Y230864D01*
X328624Y230299D01*
Y228756D01*
X328624D01*
Y226575D01*
X332281D01*
X335939D01*
Y228756D01*
X335939D01*
Y230299D01*
X335939D01*
Y236630D01*
X328624D01*
Y234994D01*
X326378D01*
Y239277D01*
X322654D01*
Y245291D01*
X312386D01*
Y239277D01*
X308846D01*
X308661Y239092D01*
Y234677D01*
X308171Y234349D01*
X298185Y224364D01*
X278756D01*
Y226279D01*
X275591D01*
Y228248D01*
X278756D01*
Y230921D01*
X280468Y231541D01*
X287162D01*
X291438Y227265D01*
X291934Y226934D01*
X292520Y226817D01*
X293105Y226934D01*
X293601Y227265D01*
X302747Y236410D01*
X303078Y236907D01*
X303194Y237492D01*
Y270866D01*
X303078Y271451D01*
X302747Y271948D01*
X300384Y274310D01*
X299888Y274641D01*
X299303Y274758D01*
X289976D01*
Y276394D01*
X288703D01*
X288202Y278362D01*
X293842Y284002D01*
X299311D01*
X299896Y284119D01*
X300393Y284450D01*
X329034Y313092D01*
X329366Y313588D01*
X329482Y314173D01*
Y329289D01*
X334193D01*
X337450Y326032D01*
X343623Y319860D01*
X344339Y319143D01*
X344960Y318667D01*
X345002Y318649D01*
X345329Y318406D01*
X345329Y219094D01*
X343457Y218837D01*
X334878D01*
Y222425D01*
X335939D01*
Y224606D01*
X332281D01*
X328624D01*
Y222425D01*
X329684D01*
Y216142D01*
Y206709D01*
X328624D01*
Y204528D01*
X335939D01*
Y206709D01*
X334878D01*
Y213643D01*
X393701D01*
Y217126D01*
X395669D01*
Y213745D01*
X395710Y213762D01*
X395784Y213732D01*
X396457Y213643D01*
X410557D01*
X411229Y213732D01*
X411855Y213991D01*
X412393Y214404D01*
X414238Y216249D01*
X414651Y216787D01*
X414910Y217413D01*
X414999Y218085D01*
Y220430D01*
X442037Y220949D01*
X445587D01*
Y221017D01*
X447169Y221047D01*
Y233385D01*
X449138Y234200D01*
X455364Y227975D01*
Y167287D01*
X453395Y166895D01*
X453328Y167057D01*
X452537Y168088D01*
X451765Y168680D01*
X451473Y168926D01*
X450586Y170188D01*
X450663Y170578D01*
Y178747D01*
X450586Y179138D01*
X450364Y179468D01*
X450034Y179689D01*
X449644Y179767D01*
X433305D01*
X433268Y179760D01*
X433268D01*
X432877Y179682D01*
X432547Y179461D01*
X432326Y179130D01*
X432248Y178740D01*
Y158743D01*
X432211Y158556D01*
Y150387D01*
X432288Y149996D01*
X432509Y149665D01*
X432840Y149444D01*
X433230Y149367D01*
X449569D01*
X449959Y149444D01*
X450290Y149665D01*
X450511Y149996D01*
X450589Y150387D01*
Y158556D01*
X450511Y158946D01*
X451493Y160238D01*
X451716Y160416D01*
X452537Y161046D01*
X453328Y162077D01*
X453395Y162238D01*
X455364Y161847D01*
Y144860D01*
X418441Y107937D01*
X417807Y107112D01*
X417409Y106150D01*
X417273Y105118D01*
X415749Y104121D01*
X407719Y104124D01*
Y111516D01*
X407617Y112291D01*
X407441Y112714D01*
X407317Y113013D01*
X406842Y113633D01*
X391093Y129381D01*
X390473Y129857D01*
X389751Y130156D01*
X388976Y130258D01*
X361673D01*
X360925Y130356D01*
X360178Y130258D01*
X334298D01*
X333550Y130356D01*
X332803Y130258D01*
X252173D01*
X251425Y130356D01*
X250678Y130258D01*
X225873D01*
Y144848D01*
X225734Y145545D01*
X225339Y146136D01*
X225339Y146136D01*
X220662Y150813D01*
X220711Y151181D01*
X220609Y151956D01*
X220309Y152678D01*
X219834Y153298D01*
X219214Y153774D01*
X218492Y154073D01*
X217717Y154175D01*
X216942Y154073D01*
X216219Y153774D01*
X215599Y153298D01*
X215124Y152678D01*
X214824Y151956D01*
X214722Y151181D01*
X214824Y150406D01*
X215124Y149684D01*
X215599Y149064D01*
X216219Y148588D01*
X216942Y148289D01*
X217717Y148187D01*
X218085Y148235D01*
X222228Y144093D01*
Y130258D01*
X197423D01*
X196675Y130356D01*
X195928Y130258D01*
X162854D01*
X162106Y130356D01*
X161331Y130254D01*
X160609Y129955D01*
X159989Y129479D01*
X159513Y128859D01*
X159214Y128137D01*
X159112Y127362D01*
X159214Y126587D01*
X159513Y125865D01*
X159989Y125245D01*
X160088Y125147D01*
X160708Y124671D01*
X161430Y124372D01*
X162205Y124270D01*
X387736D01*
X401730Y110275D01*
Y105519D01*
X400338Y104127D01*
X146949Y104232D01*
X146949Y9165D01*
X442126D01*
X442126Y104110D01*
X442126Y104110D01*
X442126D01*
X442031Y106078D01*
X472307Y136354D01*
X472941Y137180D01*
X473339Y138141D01*
X473475Y139173D01*
X473475Y139173D01*
Y164567D01*
Y247736D01*
X473475Y247736D01*
X473339Y248768D01*
X472941Y249730D01*
X472307Y250555D01*
X472307Y250555D01*
X458921Y263941D01*
X458096Y264575D01*
X457134Y264973D01*
X456102Y265109D01*
X456102Y265109D01*
X448207D01*
X447169Y266146D01*
Y278741D01*
X449138Y279793D01*
X449270Y279705D01*
Y270768D01*
X449372Y269993D01*
X449671Y269271D01*
X450147Y268651D01*
X450767Y268175D01*
X451489Y267876D01*
X452264Y267774D01*
X453039Y267876D01*
X453761Y268175D01*
X454381Y268651D01*
X454857Y269271D01*
X455156Y269993D01*
X455258Y270768D01*
Y282677D01*
X455156Y283452D01*
X454857Y284174D01*
X454381Y284794D01*
X448771Y290405D01*
X448151Y290880D01*
X447429Y291179D01*
X446654Y291282D01*
X446276D01*
Y294307D01*
X442126D01*
Y300000D01*
X441893D01*
X437169Y304724D01*
X432679D01*
X429283Y308121D01*
X414027Y323377D01*
X413407Y323853D01*
X412684Y324152D01*
X411909Y324254D01*
X385530D01*
X383579Y326222D01*
Y327165D01*
X380610D01*
Y328150D01*
X379626D01*
Y332004D01*
X377673D01*
X377642Y332004D01*
X375705D01*
X375673Y332004D01*
X369768D01*
Y332004D01*
X368126D01*
Y332004D01*
X361827D01*
X361795Y332004D01*
X359858D01*
X359827Y332004D01*
X353528D01*
Y330574D01*
X341377D01*
X337550Y334401D01*
X336930Y334876D01*
X336208Y335176D01*
X335433Y335278D01*
X233524D01*
X228889Y339912D01*
X228269Y340388D01*
X227758Y340600D01*
X228395Y342467D01*
X480303D01*
Y1916D01*
D02*
G37*
G36*
X387795Y274016D02*
X383106Y266043D01*
X353115D01*
X348425Y274016D01*
Y281890D01*
X387795D01*
X387795Y274016D01*
D02*
G37*
G36*
X300136Y270233D02*
Y259937D01*
X298178Y259727D01*
X297918Y260354D01*
X297506Y260892D01*
X296968Y261304D01*
X296341Y261564D01*
X295669Y261652D01*
X294997Y261564D01*
X294371Y261304D01*
X293833Y260892D01*
X293824Y260880D01*
X291403D01*
X289976Y262189D01*
Y264370D01*
X286319D01*
Y266339D01*
X289976D01*
Y268520D01*
X289976D01*
Y269730D01*
X290779Y271699D01*
X298669D01*
X300136Y270233D01*
D02*
G37*
G36*
Y258173D02*
Y238125D01*
X292520Y230509D01*
X288877Y234152D01*
X288381Y234484D01*
X287724Y235322D01*
X287636Y236220D01*
X287547Y236892D01*
X287288Y237519D01*
X286875Y238056D01*
X286568Y238292D01*
Y243308D01*
X286452Y243893D01*
X286120Y244389D01*
X283857Y246652D01*
X283361Y246984D01*
X282776Y247100D01*
X280725D01*
X279893Y248838D01*
X279879Y249069D01*
X279966Y249508D01*
X279850Y250090D01*
X279582Y250492D01*
X279850Y250894D01*
X279966Y251476D01*
X279850Y252059D01*
X279582Y252461D01*
X279850Y252863D01*
X279966Y253445D01*
X279850Y254027D01*
X279582Y254429D01*
X279850Y254831D01*
X279966Y255413D01*
X279879Y255853D01*
X279893Y256084D01*
X280725Y257821D01*
X293393D01*
X293420Y257757D01*
X293833Y257219D01*
X294371Y256806D01*
X294997Y256547D01*
X295669Y256458D01*
X296341Y256547D01*
X296968Y256806D01*
X297506Y257219D01*
X297918Y257757D01*
X298178Y258383D01*
X300136Y258173D01*
D02*
G37*
G36*
X270168Y261447D02*
X270481Y261321D01*
X271921Y259933D01*
X271805Y259350D01*
X271921Y258768D01*
X272190Y258366D01*
X271921Y257964D01*
X271805Y257382D01*
X271921Y256800D01*
X272190Y256398D01*
X271921Y255996D01*
X271805Y255413D01*
X271921Y254831D01*
X272190Y254429D01*
X271921Y254027D01*
X271805Y253445D01*
X271921Y252863D01*
X272190Y252461D01*
X271921Y252059D01*
X271805Y251476D01*
X271921Y250894D01*
X272190Y250492D01*
X271921Y250090D01*
X271805Y249508D01*
X271921Y248926D01*
X272190Y248524D01*
X271921Y248122D01*
X271805Y247539D01*
X271921Y246957D01*
X272190Y246555D01*
X271921Y246153D01*
Y246153D01*
X271732Y245497D01*
X270940Y244705D01*
X270284Y244516D01*
X269882Y244247D01*
X269480Y244516D01*
X268898Y244632D01*
X268488Y244550D01*
X266732Y245645D01*
X266553Y246561D01*
Y248507D01*
X266437Y249093D01*
X266105Y249589D01*
X263762Y251932D01*
X263266Y252263D01*
X262681Y252380D01*
X258586D01*
X258001Y252263D01*
X257505Y251932D01*
X254679Y249106D01*
X252711Y249159D01*
Y261069D01*
X268915D01*
X269501Y261186D01*
X269922Y261467D01*
X270168Y261447D01*
D02*
G37*
G36*
X275886Y244041D02*
X282142D01*
X283509Y242674D01*
Y239798D01*
X282920Y239277D01*
X281541Y238663D01*
X281381Y238729D01*
X280709Y238818D01*
X280036Y238729D01*
X279410Y238470D01*
X278872Y238057D01*
X278637Y237750D01*
X272395D01*
Y240551D01*
X272388Y240592D01*
Y242229D01*
X273007Y243430D01*
X274208Y244050D01*
X275845D01*
X275886Y244041D01*
D02*
G37*
G36*
X247072Y243430D02*
X247691Y242229D01*
Y240592D01*
X247683Y240551D01*
Y221822D01*
X246895Y221441D01*
X245715Y221290D01*
X245537Y221521D01*
X244999Y221934D01*
X244373Y222194D01*
X243701Y222282D01*
X243029Y222194D01*
X242402Y221934D01*
X241864Y221521D01*
X241629Y221214D01*
X229169D01*
X226942Y223441D01*
X226959Y223730D01*
X227726Y225441D01*
X227825Y225454D01*
X228547Y225753D01*
X229167Y226229D01*
X229643Y226849D01*
X229942Y227572D01*
X230044Y228346D01*
X229942Y229121D01*
X229643Y229843D01*
X229167Y230464D01*
X228579Y230915D01*
Y236303D01*
X230331D01*
Y237939D01*
X232677D01*
X233262Y238055D01*
X233759Y238387D01*
X239413Y244041D01*
X244193D01*
X244233Y244050D01*
X245871D01*
X247072Y243430D01*
D02*
G37*
G36*
X259166Y215848D02*
X259663Y215516D01*
X260248Y215400D01*
X264108D01*
X268724Y210784D01*
Y203253D01*
X268417Y203017D01*
X268181Y202711D01*
X263894D01*
Y204346D01*
X256579D01*
Y204346D01*
X254742Y204664D01*
Y217700D01*
X256561Y218453D01*
X259166Y215848D01*
D02*
G37*
G36*
X268417Y199345D02*
X268954Y198932D01*
X269581Y198673D01*
X270253Y198584D01*
X270925Y198673D01*
X271551Y198932D01*
X272746Y199345D01*
X273284Y198932D01*
X273911Y198672D01*
X274583Y198584D01*
X275255Y198672D01*
X275881Y198932D01*
X276419Y199345D01*
X276655Y199652D01*
X280604D01*
X282071Y198016D01*
Y196472D01*
X281503Y195904D01*
X264462D01*
X263894Y196472D01*
Y198016D01*
X265361Y199652D01*
X268181D01*
X268417Y199345D01*
D02*
G37*
G36*
X76887Y209302D02*
X77169Y209265D01*
X77594Y209189D01*
X78594Y208483D01*
X78987Y207596D01*
X79247Y206969D01*
X79660Y206431D01*
X80198Y206019D01*
X80824Y205759D01*
X81496Y205671D01*
X82168Y205759D01*
X82795Y206019D01*
X83332Y206431D01*
X83745Y206969D01*
X84005Y207596D01*
X85973Y207465D01*
Y201622D01*
X76213Y191862D01*
X75143Y192305D01*
X74425Y192858D01*
Y197721D01*
Y200279D01*
Y202839D01*
Y205398D01*
Y208585D01*
X76261Y209562D01*
X76887Y209302D01*
D02*
G37*
G36*
X68343Y174924D02*
Y170197D01*
X66319Y168173D01*
X58143D01*
X57004Y169669D01*
Y171902D01*
X61713D01*
X62333Y172025D01*
X62859Y172377D01*
X65615Y175133D01*
X65662Y175204D01*
X66375Y175822D01*
X68343Y174924D01*
D02*
G37*
G36*
X106078Y160271D02*
X106520Y159975D01*
Y155299D01*
X106520D01*
X106520Y153461D01*
X106520D01*
Y151228D01*
X102936D01*
X100834Y153329D01*
Y162942D01*
X102653Y163695D01*
X106078Y160271D01*
D02*
G37*
G36*
X465501Y246085D02*
Y164567D01*
Y140825D01*
X433401Y108725D01*
X432768Y107899D01*
X432370Y106937D01*
X432234Y105905D01*
X432140Y105412D01*
X430841Y104114D01*
X428467Y104115D01*
X427714Y105934D01*
X462170Y140390D01*
X462170Y140390D01*
X462803Y141215D01*
X463201Y142177D01*
X463337Y143209D01*
Y229626D01*
X463337Y229626D01*
X463201Y230658D01*
X462803Y231619D01*
X462170Y232445D01*
X462170Y232445D01*
X454774Y239840D01*
Y241043D01*
X454740Y241302D01*
Y245587D01*
X454740D01*
Y247524D01*
X454740D01*
Y253461D01*
X447169D01*
Y257135D01*
X454451D01*
X465501Y246085D01*
D02*
G37*
%LPC*%
G36*
X269921Y327122D02*
X268735Y326966D01*
X267630Y326508D01*
X266681Y325780D01*
X265953Y324831D01*
X264307Y324752D01*
X263819Y324824D01*
X263162Y325681D01*
X262212Y326410D01*
X261107Y326867D01*
X259921Y327024D01*
X258735Y326867D01*
X257630Y326410D01*
X256681Y325681D01*
X255953Y324732D01*
X253890D01*
X253162Y325681D01*
X252213Y326410D01*
X251107Y326867D01*
X250905Y326894D01*
Y322441D01*
Y317988D01*
X251107Y318015D01*
X252213Y318472D01*
X253162Y319201D01*
X253890Y320150D01*
X255953D01*
X256681Y319201D01*
X257630Y318472D01*
X258735Y318015D01*
X259921Y317858D01*
X261107Y318015D01*
X262212Y318472D01*
X263162Y319201D01*
X263890Y320150D01*
X265535Y320228D01*
X266023Y320156D01*
X266681Y319299D01*
X267630Y318571D01*
X268735Y318113D01*
X269921Y317957D01*
X271107Y318113D01*
X272213Y318571D01*
X273162Y319299D01*
X273890Y320248D01*
X274348Y321353D01*
X274504Y322539D01*
X274348Y323725D01*
X273890Y324831D01*
X273162Y325780D01*
X272213Y326508D01*
X271107Y326966D01*
X269921Y327122D01*
D02*
G37*
G36*
X286712Y326984D02*
X283153D01*
Y323425D01*
X286712D01*
Y326984D01*
D02*
G37*
G36*
Y321456D02*
X283153D01*
Y317897D01*
X286712D01*
Y321456D01*
D02*
G37*
G36*
X113224Y333185D02*
X108878D01*
Y330020D01*
X113224D01*
Y333185D01*
D02*
G37*
G36*
X106909D02*
X102563D01*
Y330020D01*
X106909D01*
Y333185D01*
D02*
G37*
G36*
X381594Y332004D02*
Y329134D01*
X383579D01*
Y332004D01*
X381594D01*
D02*
G37*
G36*
X187988Y328051D02*
X183681D01*
Y324886D01*
X187988D01*
Y328051D01*
D02*
G37*
G36*
X181713D02*
X177406D01*
Y324886D01*
X181713D01*
Y328051D01*
D02*
G37*
G36*
X467913Y339538D02*
X466076Y339356D01*
X464309Y338821D01*
X462680Y337950D01*
X461253Y336779D01*
X460081Y335351D01*
X459211Y333723D01*
X458675Y331956D01*
X458494Y330118D01*
X458675Y328280D01*
X459211Y326514D01*
X460081Y324885D01*
X461253Y323458D01*
X462680Y322286D01*
X464309Y321416D01*
X466076Y320880D01*
X467913Y320699D01*
X469751Y320880D01*
X471518Y321416D01*
X473146Y322286D01*
X474574Y323458D01*
X475745Y324885D01*
X476616Y326514D01*
X477152Y328280D01*
X477333Y330118D01*
X477152Y331956D01*
X476616Y333723D01*
X475745Y335351D01*
X474574Y336779D01*
X473146Y337950D01*
X471518Y338821D01*
X469751Y339356D01*
X467913Y339538D01*
D02*
G37*
G36*
X14370D02*
X12532Y339356D01*
X10765Y338821D01*
X9137Y337950D01*
X7710Y336779D01*
X6538Y335351D01*
X5668Y333723D01*
X5132Y331956D01*
X4951Y330118D01*
X5132Y328280D01*
X5668Y326514D01*
X6538Y324885D01*
X7710Y323458D01*
X9137Y322286D01*
X10765Y321416D01*
X12532Y320880D01*
X14370Y320699D01*
X16208Y320880D01*
X17975Y321416D01*
X19603Y322286D01*
X21031Y323458D01*
X22202Y324885D01*
X23073Y326514D01*
X23608Y328280D01*
X23789Y330118D01*
X23608Y331956D01*
X23073Y333723D01*
X22202Y335351D01*
X21031Y336779D01*
X19603Y337950D01*
X17975Y338821D01*
X16208Y339356D01*
X14370Y339538D01*
D02*
G37*
G36*
X106890Y315059D02*
X104709D01*
Y312386D01*
X106890D01*
Y315059D01*
D02*
G37*
G36*
X186221Y289610D02*
Y286142D01*
X189689D01*
X189663Y286344D01*
X189205Y287449D01*
X188477Y288398D01*
X187528Y289126D01*
X186422Y289584D01*
X186221Y289610D01*
D02*
G37*
G36*
X174252Y289610D02*
X174050Y289584D01*
X172945Y289126D01*
X171996Y288398D01*
X171268Y287449D01*
X170810Y286344D01*
X170783Y286142D01*
X174252D01*
Y289610D01*
D02*
G37*
G36*
X83858Y284433D02*
Y280965D01*
X87327D01*
X87300Y281166D01*
X86843Y282272D01*
X86114Y283221D01*
X85165Y283949D01*
X84060Y284407D01*
X83858Y284433D01*
D02*
G37*
G36*
X81890Y284433D02*
X81688Y284407D01*
X80583Y283949D01*
X79634Y283221D01*
X78905Y282272D01*
X78448Y281166D01*
X78421Y280965D01*
X81890D01*
Y284433D01*
D02*
G37*
G36*
X87327Y278996D02*
X82874D01*
X78421D01*
X78448Y278794D01*
X78905Y277689D01*
X79634Y276740D01*
X79957Y276492D01*
X79289Y274523D01*
X78331D01*
Y265437D01*
X87418D01*
Y274523D01*
X86459D01*
X85791Y276492D01*
X86114Y276740D01*
X86843Y277689D01*
X87300Y278794D01*
X87327Y278996D01*
D02*
G37*
G36*
X108661Y239026D02*
Y237205D01*
X110483D01*
X110270Y237718D01*
X109794Y238338D01*
X109174Y238813D01*
X108661Y239026D01*
D02*
G37*
G36*
X106693D02*
X106180Y238813D01*
X105560Y238338D01*
X105084Y237718D01*
X104872Y237205D01*
X106693D01*
Y239026D01*
D02*
G37*
G36*
X110483Y235236D02*
X108661D01*
Y233415D01*
X109174Y233628D01*
X109794Y234103D01*
X110270Y234723D01*
X110483Y235236D01*
D02*
G37*
G36*
X106693D02*
X104872D01*
X105084Y234723D01*
X105560Y234103D01*
X106180Y233628D01*
X106693Y233415D01*
Y235236D01*
D02*
G37*
G36*
X49213Y210252D02*
X47228D01*
Y207382D01*
X49213D01*
Y210252D01*
D02*
G37*
G36*
X372555Y198835D02*
X369882D01*
Y196653D01*
X372555D01*
Y198835D01*
D02*
G37*
G36*
X367913D02*
X365240D01*
Y196653D01*
X367913D01*
Y198835D01*
D02*
G37*
G36*
X118347Y182004D02*
Y179134D01*
X120331D01*
Y182004D01*
X118347D01*
D02*
G37*
G36*
X299147Y179724D02*
X297326D01*
Y177903D01*
X297838Y178116D01*
X298459Y178592D01*
X298934Y179212D01*
X299147Y179724D01*
D02*
G37*
G36*
X295357D02*
X293536D01*
X293748Y179212D01*
X294224Y178592D01*
X294844Y178116D01*
X295357Y177903D01*
Y179724D01*
D02*
G37*
G36*
X254740Y168520D02*
X251772D01*
Y166732D01*
X254740D01*
Y168520D01*
D02*
G37*
G36*
X249803D02*
X246835D01*
Y166732D01*
X249803D01*
Y168520D01*
D02*
G37*
G36*
X254740Y164764D02*
X251772D01*
Y162976D01*
X254740D01*
Y164764D01*
D02*
G37*
G36*
X249803D02*
X246835D01*
Y162976D01*
X249803D01*
Y164764D01*
D02*
G37*
G36*
X87417Y162969D02*
X85236D01*
Y160295D01*
X87417D01*
Y162969D01*
D02*
G37*
G36*
X246786Y159169D02*
Y156496D01*
X248967D01*
Y159169D01*
X246786D01*
D02*
G37*
G36*
X87417Y158327D02*
X85236D01*
Y155654D01*
X87417D01*
Y158327D01*
D02*
G37*
G36*
X248967Y154528D02*
X246786D01*
Y151854D01*
X248967D01*
Y154528D01*
D02*
G37*
G36*
X296063Y215610D02*
X295288Y215508D01*
X294566Y215209D01*
X293946Y214733D01*
X293470Y214113D01*
X293171Y213391D01*
X293069Y212616D01*
X293171Y211841D01*
X293470Y211119D01*
X293946Y210499D01*
X294566Y210023D01*
X295288Y209724D01*
X296063Y209622D01*
X296181Y209637D01*
X302308Y203510D01*
Y183616D01*
X302462Y182842D01*
X302900Y182185D01*
X309443Y175642D01*
X310100Y175204D01*
X310874Y175050D01*
X339178D01*
X339952Y175204D01*
X340609Y175642D01*
X350738Y185772D01*
X363745D01*
X364585Y185130D01*
X364887Y182899D01*
X364870Y182815D01*
X363900Y181845D01*
X363462Y181189D01*
X363308Y180415D01*
Y168971D01*
X363462Y168196D01*
X363900Y167540D01*
X364874Y166566D01*
X364580Y165856D01*
X364410Y164567D01*
X364580Y163278D01*
X365077Y162077D01*
X365869Y161046D01*
X366900Y160255D01*
X367149Y160026D01*
X368280Y158526D01*
X368280Y158002D01*
Y150356D01*
X368357Y149966D01*
X368579Y149636D01*
X368909Y149415D01*
X369299Y149337D01*
X380028D01*
X380418Y149415D01*
X380749Y149636D01*
X380970Y149966D01*
X381047Y150356D01*
Y158526D01*
X381030Y158612D01*
Y170601D01*
X381031Y170608D01*
Y178777D01*
X380954Y179167D01*
X380733Y179498D01*
X380402Y179719D01*
X380012Y179797D01*
X380011D01*
X380011Y179797D01*
X375188D01*
X375187Y179797D01*
X370358D01*
X369543Y181765D01*
X370328Y182551D01*
X370767Y183207D01*
X370921Y183981D01*
Y184630D01*
X372555D01*
Y190535D01*
X372555Y190961D01*
Y192504D01*
X372555Y192929D01*
Y194685D01*
X365240D01*
Y192929D01*
X365240Y192504D01*
Y190961D01*
X363569Y189818D01*
X349900D01*
X349126Y189664D01*
X348470Y189226D01*
X338340Y179096D01*
X311712D01*
X306354Y184454D01*
Y204348D01*
X306200Y205123D01*
X305761Y205779D01*
X299042Y212499D01*
X299057Y212616D01*
X298955Y213391D01*
X298656Y214113D01*
X298180Y214733D01*
X297560Y215209D01*
X296838Y215508D01*
X296063Y215610D01*
D02*
G37*
G36*
X120331Y138976D02*
X118346D01*
Y136106D01*
X120331D01*
Y138976D01*
D02*
G37*
G36*
X54035Y36811D02*
X53937Y10039D01*
X92937D01*
X94882Y10039D01*
X94980Y10138D01*
X94784Y10335D01*
X94784Y12008D01*
Y36614D01*
X54232D01*
X54035Y36811D01*
D02*
G37*
G36*
X467913Y23789D02*
X466076Y23608D01*
X464309Y23073D01*
X462680Y22202D01*
X461253Y21031D01*
X460081Y19603D01*
X459211Y17975D01*
X458675Y16208D01*
X458494Y14370D01*
X458675Y12532D01*
X459211Y10765D01*
X460081Y9137D01*
X461253Y7710D01*
X462680Y6538D01*
X464309Y5668D01*
X466076Y5132D01*
X467913Y4951D01*
X469751Y5132D01*
X471518Y5668D01*
X473146Y6538D01*
X474574Y7710D01*
X475745Y9137D01*
X476616Y10765D01*
X477152Y12532D01*
X477333Y14370D01*
X477152Y16208D01*
X476616Y17975D01*
X475745Y19603D01*
X474574Y21031D01*
X473146Y22202D01*
X471518Y23073D01*
X469751Y23608D01*
X467913Y23789D01*
D02*
G37*
G36*
X14370D02*
X12532Y23608D01*
X10765Y23073D01*
X9137Y22202D01*
X7710Y21031D01*
X6538Y19603D01*
X5668Y17975D01*
X5132Y16208D01*
X4951Y14370D01*
X5132Y12532D01*
X5668Y10765D01*
X6538Y9137D01*
X7710Y7710D01*
X9137Y6538D01*
X10765Y5668D01*
X12532Y5132D01*
X14370Y4951D01*
X16208Y5132D01*
X17975Y5668D01*
X19603Y6538D01*
X21031Y7710D01*
X22202Y9137D01*
X23073Y10765D01*
X23608Y12532D01*
X23789Y14370D01*
X23608Y16208D01*
X23073Y17975D01*
X22202Y19603D01*
X21031Y21031D01*
X19603Y22202D01*
X17975Y23073D01*
X16208Y23608D01*
X14370Y23789D01*
D02*
G37*
%LPD*%
D11*
X306728Y127264D02*
X388976D01*
X162205D02*
X251425D01*
X279661D01*
X438583Y288583D02*
X438878Y288287D01*
X339567Y328150D02*
X345740Y321977D01*
X335433Y332283D02*
X339567Y328150D01*
X345740Y321977D02*
X346457Y321260D01*
X327953Y332283D02*
X335433D01*
X173346Y337795D02*
X226772D01*
X165354Y329804D02*
X173346Y337795D01*
X165354Y283071D02*
Y329804D01*
X226772Y337795D02*
X232283Y332283D01*
X229921Y329921D02*
X232283Y332283D01*
X297638D02*
X327953D01*
X126772Y316240D02*
X136417D01*
X117913D02*
X126772D01*
Y328346D01*
X169432Y230709D02*
X172047Y233324D01*
Y243406D01*
X151575Y230709D02*
X169432D01*
X136417Y278346D02*
Y316240D01*
Y245866D02*
Y278346D01*
X160630D02*
X165354Y283071D01*
X136417Y278346D02*
X160630D01*
X232283Y332283D02*
X297638D01*
X297696Y332225D01*
Y322441D02*
Y332225D01*
X229921Y322441D02*
Y329921D01*
X229921Y322441D02*
X229921Y322441D01*
X175236Y265158D02*
X185236D01*
X185237Y265157D01*
Y246654D02*
Y265157D01*
X181988Y243406D02*
X185237Y246654D01*
X172047Y243406D02*
X181988D01*
X144291Y237992D02*
X151575Y230709D01*
X389075Y127165D02*
X404724Y111516D01*
Y55512D02*
Y111516D01*
X279661Y127264D02*
X306728D01*
X40682Y182841D02*
X46161D01*
X388976Y127264D02*
X389075Y127165D01*
X162106Y127362D02*
X162205Y127264D01*
X136417Y245866D02*
X144291Y237992D01*
X107791Y317028D02*
X107874Y329016D01*
X117717Y316043D02*
X117913Y316240D01*
X346457Y321260D02*
X411909Y321260D01*
X427165Y306004D01*
X446654Y288287D02*
X452264Y282677D01*
Y270768D02*
Y282677D01*
X438878Y288287D02*
X446654D01*
X442618Y224803D02*
Y232677D01*
X438583Y288583D02*
Y294587D01*
X427165Y306004D02*
X438583Y294587D01*
X399705Y306004D02*
X427165D01*
X376083D02*
X399705D01*
X368110Y298031D02*
X376083Y306004D01*
D18*
X250098Y281791D02*
X251181Y280709D01*
X262204Y228740D02*
X262992Y229528D01*
X237927Y175809D02*
X237970Y175852D01*
Y176681D01*
X237927Y155512D02*
Y175809D01*
X235911Y178740D02*
X237970Y176681D01*
X231496Y178740D02*
X235911D01*
X226673Y239469D02*
X232677D01*
X82459Y223447D02*
X82634Y223622D01*
X82283Y223271D02*
X82459Y223447D01*
X76378Y223476D02*
X80307Y219547D01*
X74803Y223080D02*
X79730Y218154D01*
X76378Y223476D02*
Y259055D01*
X80307Y219547D02*
X180322D01*
X74803Y223080D02*
Y258659D01*
X79730Y218154D02*
X181544D01*
X82634Y223622D02*
X83071D01*
Y223523D02*
Y223622D01*
Y223523D02*
X85653Y220941D01*
X205807Y278346D02*
X206201Y278740D01*
X223228D01*
X293209Y285531D02*
X299311D01*
X286319Y278642D02*
X293209Y285531D01*
X286319Y273228D02*
Y278642D01*
X299016Y289075D02*
X325197Y315256D01*
X292514Y289075D02*
X299016D01*
X279410Y275971D02*
X292514Y289075D01*
X297520Y290846D02*
X317697Y311024D01*
X261024Y290846D02*
X297520D01*
X256915Y291756D02*
X259055Y289616D01*
X231496Y287795D02*
X235457Y291756D01*
X254035Y287898D02*
X256299Y285634D01*
X235457Y291756D02*
X256915D01*
X254035Y287898D02*
Y288681D01*
X259055Y272244D02*
Y289616D01*
X261024Y272244D02*
Y290846D01*
X258268Y293602D02*
X261024Y290846D01*
X234547Y293602D02*
X258268D01*
X229528Y288583D02*
X234547Y293602D01*
X218878Y305532D02*
X229134Y295276D01*
X299311Y285531D02*
X327953Y314173D01*
X309646Y328937D02*
X322835D01*
X307697Y326988D02*
X309646Y328937D01*
X307697Y322441D02*
Y326988D01*
X322835Y328937D02*
X325197Y326575D01*
Y315256D02*
Y326575D01*
X279410Y269701D02*
Y275971D01*
X278509Y268799D02*
X279410Y269701D01*
X272539Y268799D02*
X278509D01*
X269488Y265748D02*
X272539Y268799D01*
X261391Y265748D02*
X269488D01*
X259055Y268084D02*
X261391Y265748D01*
X327953Y314173D02*
Y332283D01*
X214445Y236984D02*
X216929Y239469D01*
X214445Y230498D02*
Y236984D01*
Y230498D02*
X231693Y213250D01*
X216929Y239469D02*
X226673D01*
X255118Y224803D02*
Y240551D01*
Y224803D02*
X261024Y218898D01*
X257087Y225048D02*
Y240551D01*
Y225048D02*
X261194Y220941D01*
X259055Y225051D02*
Y240551D01*
Y225051D02*
X261271Y222835D01*
X262204Y228740D02*
Y229133D01*
X261194Y220941D02*
X306618D01*
X261271Y222835D02*
X298819D01*
X262992Y229528D02*
Y240551D01*
X267170Y227265D02*
X267323Y227418D01*
Y233071D01*
X264961Y235433D02*
X267323Y233071D01*
X264961Y235433D02*
Y240551D01*
X267323Y233071D02*
X287795D01*
X292520Y228346D01*
X271452Y236221D02*
X280709D01*
X270866Y236806D02*
X271452Y236221D01*
X292520Y228346D02*
X301665Y237492D01*
X234778Y252494D02*
X235728Y253445D01*
X244193D01*
X234778Y250894D02*
Y252494D01*
X226673Y247342D02*
X226870Y247539D01*
X299303Y273228D02*
X301665Y270866D01*
X286319Y273228D02*
X299303D01*
X301665Y237492D02*
Y270866D01*
X241025Y275469D02*
X243307Y277751D01*
X241025Y275469D02*
X241339Y275156D01*
Y274527D02*
Y275156D01*
X231496Y178740D02*
X231693Y178937D01*
Y213250D01*
X218110Y230110D02*
Y235827D01*
X226673Y239469D02*
X227050Y239092D01*
Y228346D02*
Y239092D01*
X259055Y268084D02*
Y272244D01*
X268915Y262598D02*
X271573Y265256D01*
X251181Y262598D02*
X268915D01*
X271573Y265256D02*
X275886D01*
X286221D01*
X262992Y240551D02*
Y243094D01*
X251181Y262598D02*
Y272244D01*
Y247539D02*
Y262598D01*
X244193Y247539D02*
X251181D01*
X226870D02*
X244193D01*
X317697Y311024D02*
Y322441D01*
X295374Y259350D02*
X295669Y259055D01*
X275886Y259350D02*
X295374D01*
X228535Y219685D02*
X243701D01*
X218110Y230110D02*
X228535Y219685D01*
X180322Y219547D02*
X231496Y270721D01*
X181544Y218154D02*
X225201Y261811D01*
X231496Y270721D02*
Y287795D01*
X225201Y261811D02*
X227165D01*
X205807Y254429D02*
X205906Y254331D01*
X205807Y254429D02*
Y268996D01*
X197933D02*
X198130Y268799D01*
Y258268D02*
Y268799D01*
X166535Y273228D02*
X167192D01*
X169121Y275157D01*
X175236D01*
X229134Y295276D02*
X261024D01*
X218878Y305532D02*
Y329035D01*
X236614Y268110D02*
X237196D01*
X238082Y267224D01*
X244193D01*
X239921Y299213D02*
Y322441D01*
X256299Y278145D02*
Y285634D01*
X255713Y277559D02*
X256299Y278145D01*
X254331Y277559D02*
X255713D01*
X253150Y276378D02*
X254331Y277559D01*
X253150Y272244D02*
Y276378D01*
X261024Y240551D02*
Y246850D01*
X251181Y247539D02*
X255275D01*
X258586Y250850D01*
X262681D01*
X263575Y243745D02*
X265024Y245194D01*
X263575Y243677D02*
Y243745D01*
X262992Y243094D02*
X263575Y243677D01*
X265024Y245194D02*
Y248507D01*
X262681Y250850D02*
X265024Y248507D01*
X253213Y185252D02*
Y221197D01*
X250787Y182827D02*
X253213Y185252D01*
X250787Y178740D02*
Y182827D01*
X251941Y178740D02*
X253213Y180012D01*
X251181Y223228D02*
X253213Y221197D01*
X251181Y223228D02*
Y240551D01*
X264741Y216929D02*
X270253Y211417D01*
X260248Y216929D02*
X264741D01*
X253150Y224027D02*
X260248Y216929D01*
X266709Y218898D02*
X274583Y211024D01*
X261024Y218898D02*
X266709D01*
X306618Y220941D02*
X317520Y210039D01*
X298819Y222835D02*
X309252Y233268D01*
X285039Y236220D02*
Y243308D01*
X282776Y245571D02*
X285039Y243308D01*
X85653Y220941D02*
X176864D01*
X86915Y225289D02*
Y225984D01*
Y225289D02*
X88433Y223772D01*
X176864Y220941D02*
X180633Y224710D01*
Y225111D01*
X181890Y226367D01*
Y226772D01*
X88433Y223772D02*
X175347D01*
X72874Y262559D02*
X76378Y259055D01*
X71480Y261982D02*
X74803Y258659D01*
X175347Y223772D02*
X177559Y225984D01*
X275886Y245571D02*
X282776D01*
X270866Y236806D02*
Y240551D01*
X229528Y272835D02*
Y288583D01*
X227559Y270866D02*
X229528Y272835D01*
X227165Y270866D02*
X227559D01*
X71480Y261982D02*
Y292300D01*
X66142Y297638D02*
X71480Y292300D01*
X66142Y297638D02*
Y303957D01*
X72874Y310689D01*
Y262559D02*
Y300689D01*
X250787Y178740D02*
X251941D01*
X249213Y216142D02*
Y240551D01*
X317520Y195866D02*
X317717Y195669D01*
X332281D01*
X317520Y233268D02*
X317717Y233465D01*
X332281D01*
X317520Y195866D02*
Y210039D01*
X309252Y233268D02*
X317520D01*
X283071Y201181D02*
X283071Y201181D01*
X274583Y201181D02*
X283071D01*
X261417Y201181D02*
X261417Y201181D01*
X270253D01*
Y211417D01*
X253150Y224027D02*
Y240551D01*
X274583Y201181D02*
Y211024D01*
X250787Y165748D02*
X251083Y165453D01*
X281102Y272146D02*
X282185Y273228D01*
X286319D01*
X281102Y268602D02*
Y272146D01*
X279724Y267224D02*
X281102Y268602D01*
X275886Y267224D02*
X279724D01*
X286221Y265256D02*
X286319Y265354D01*
X243307Y277751D02*
X243893Y277165D01*
X243307Y277751D02*
Y282480D01*
X243893Y277165D02*
X248627D01*
X249213Y276580D01*
Y272244D02*
Y276580D01*
X251181Y272244D02*
Y280709D01*
X232677Y239469D02*
X238779Y245571D01*
X244193D01*
D21*
X70768Y186713D02*
D03*
Y184153D02*
D03*
Y181595D02*
D03*
Y189272D02*
D03*
Y191831D02*
D03*
X93799D02*
D03*
Y189272D02*
D03*
Y181595D02*
D03*
Y184153D02*
D03*
Y186713D02*
D03*
Y194390D02*
D03*
Y196949D02*
D03*
Y199508D02*
D03*
Y202067D02*
D03*
Y209744D02*
D03*
Y207185D02*
D03*
Y204626D02*
D03*
X70768D02*
D03*
Y207185D02*
D03*
Y209744D02*
D03*
Y202067D02*
D03*
Y199508D02*
D03*
Y196949D02*
D03*
Y194390D02*
D03*
D22*
X93799Y178642D02*
D03*
Y212697D02*
D03*
X70768D02*
D03*
Y178642D02*
D03*
D23*
X231496Y178740D02*
D03*
Y165748D02*
D03*
X250787D02*
D03*
Y178740D02*
D03*
D24*
X249213Y240551D02*
D03*
X251181D02*
D03*
X253150D02*
D03*
X255118D02*
D03*
X257087D02*
D03*
X259055D02*
D03*
X261024D02*
D03*
X262992D02*
D03*
X264961D02*
D03*
X266929D02*
D03*
X268898D02*
D03*
X270866D02*
D03*
Y272244D02*
D03*
X268898D02*
D03*
X266929D02*
D03*
X264961D02*
D03*
X262992D02*
D03*
X261024D02*
D03*
X259055D02*
D03*
X257087D02*
D03*
X255118D02*
D03*
X253150D02*
D03*
X251181D02*
D03*
X249213D02*
D03*
D25*
X275886Y245571D02*
D03*
Y247539D02*
D03*
Y249508D02*
D03*
Y251476D02*
D03*
Y253445D02*
D03*
Y255413D02*
D03*
Y257382D02*
D03*
Y259350D02*
D03*
Y261319D02*
D03*
Y263287D02*
D03*
Y265256D02*
D03*
Y267224D02*
D03*
X244193D02*
D03*
Y265256D02*
D03*
Y263287D02*
D03*
Y261319D02*
D03*
Y259350D02*
D03*
Y257382D02*
D03*
Y255413D02*
D03*
Y253445D02*
D03*
Y251476D02*
D03*
Y249508D02*
D03*
Y247539D02*
D03*
Y245571D02*
D03*
D26*
X432874Y239154D02*
D03*
Y244153D02*
D03*
Y249153D02*
D03*
Y254153D02*
D03*
X413583Y239154D02*
D03*
Y244153D02*
D03*
Y249153D02*
D03*
Y254153D02*
D03*
D27*
X421260Y79823D02*
D03*
Y64272D02*
D03*
X394783Y236713D02*
D03*
Y252264D02*
D03*
D28*
X367126Y251575D02*
D03*
Y228740D02*
D03*
D29*
X450886Y250492D02*
D03*
Y242618D02*
D03*
X172047Y243406D02*
D03*
Y251279D02*
D03*
D30*
X399705Y269685D02*
D03*
Y277559D02*
D03*
X332281Y233465D02*
D03*
Y225591D02*
D03*
X332281Y195669D02*
D03*
Y203543D02*
D03*
X285728Y201181D02*
D03*
Y193307D02*
D03*
X260236Y201181D02*
D03*
Y193307D02*
D03*
X368898Y187795D02*
D03*
Y195669D02*
D03*
X286319Y273228D02*
D03*
Y265354D02*
D03*
X226673Y239469D02*
D03*
Y247342D02*
D03*
D31*
X434744Y224803D02*
D03*
X442618D02*
D03*
X427559Y224902D02*
D03*
X419685D02*
D03*
X372736Y328150D02*
D03*
X380610D02*
D03*
X197933Y278346D02*
D03*
X205807D02*
D03*
X197933Y268996D02*
D03*
X205807D02*
D03*
X46161Y182841D02*
D03*
X54036D02*
D03*
X46161Y173524D02*
D03*
X54035D02*
D03*
X58071Y197080D02*
D03*
X50197D02*
D03*
X109488Y178150D02*
D03*
X117362D02*
D03*
X109646Y168799D02*
D03*
X117520D02*
D03*
X109488Y159153D02*
D03*
X117362D02*
D03*
X109488Y149606D02*
D03*
X117362D02*
D03*
X109488Y139961D02*
D03*
X117362D02*
D03*
X58071Y206398D02*
D03*
X50197D02*
D03*
X136417Y316240D02*
D03*
X144291D02*
D03*
D32*
X356693Y328150D02*
D03*
X364961D02*
D03*
D33*
X368110Y278740D02*
D03*
Y298031D02*
D03*
D34*
X438386Y288386D02*
D03*
X412795D02*
D03*
D35*
X399705Y294980D02*
D03*
Y306004D02*
D03*
D36*
X412402Y224803D02*
D03*
X401378D02*
D03*
D37*
X182697Y329035D02*
D03*
X144075D02*
D03*
D38*
X218878D02*
D03*
X107894D02*
D03*
D39*
X237927Y155512D02*
D03*
X245801D02*
D03*
X267717Y227264D02*
D03*
X275590D02*
D03*
X243307Y282480D02*
D03*
X251181D02*
D03*
X76378Y159311D02*
D03*
X84252D02*
D03*
X115748Y316043D02*
D03*
X107874D02*
D03*
D40*
X317520Y195866D02*
D03*
Y233268D02*
D03*
D67*
X296341Y180709D02*
D03*
X296063Y212616D02*
D03*
X40682Y182841D02*
D03*
X267323Y233071D02*
D03*
X241339Y274527D02*
D03*
X227050Y228346D02*
D03*
X126772Y328346D02*
D03*
X249213Y216142D02*
D03*
X217717Y151181D02*
D03*
X146850Y269980D02*
D03*
X469488Y164567D02*
D03*
X367126Y261614D02*
D03*
X423228Y261713D02*
D03*
X469783Y216339D02*
D03*
X144075Y287008D02*
D03*
X196675Y127362D02*
D03*
X224050D02*
D03*
X251425D02*
D03*
X279661Y127264D02*
D03*
X306728D02*
D03*
X333550Y127362D02*
D03*
X360925D02*
D03*
X389075Y127165D02*
D03*
X162106Y127362D02*
D03*
X62106Y216732D02*
D03*
X107677Y236221D02*
D03*
X144291Y237992D02*
D03*
X452264Y270768D02*
D03*
X442618Y232677D02*
D03*
D68*
X399803Y294149D02*
X400634Y294980D01*
X293685Y193307D02*
X296341Y190651D01*
Y180709D02*
Y190651D01*
X285728Y193307D02*
X293685D01*
X369857Y216240D02*
X393799D01*
X332380D02*
X369857D01*
X367126Y218971D02*
X369857Y216240D01*
X367126Y218971D02*
Y228740D01*
X261417Y193307D02*
X283071D01*
X332281Y216142D02*
Y225590D01*
Y203543D02*
Y216142D01*
X332380Y216240D01*
X332281Y225590D02*
X332281Y225591D01*
X393799Y216240D02*
X394685Y217126D01*
X144291Y287224D02*
Y316240D01*
X144075Y287008D02*
X144291Y287224D01*
X144075Y329035D02*
X144291Y328819D01*
Y316240D02*
Y328819D01*
X394587Y218110D02*
X394685Y218012D01*
Y217126D02*
Y218012D01*
X394587Y218110D02*
Y236516D01*
X394783Y236713D01*
X396457Y216240D02*
X410557D01*
X412402Y218085D01*
Y224803D01*
X368110Y278740D02*
X376575D01*
X394587Y260728D01*
Y252461D02*
Y260728D01*
Y252461D02*
X394783Y252264D01*
X395374Y251673D02*
X400394D01*
X394783Y252264D02*
X395374Y251673D01*
X400394D02*
X402913Y249153D01*
X413583D01*
X399803Y289961D02*
X401476Y288287D01*
X399705Y286516D02*
X401476Y288287D01*
X399705Y277559D02*
Y286516D01*
X399803Y289961D02*
Y294149D01*
X399705Y294980D02*
X400634D01*
X402018Y288287D02*
X412697D01*
X405512Y242308D02*
X407357Y244153D01*
X405512Y228937D02*
Y242308D01*
X403150Y226575D02*
X405512Y228937D01*
X402165Y226575D02*
X403150D01*
X401378Y225787D02*
X402165Y226575D01*
X401378Y224803D02*
Y225787D01*
X407357Y244153D02*
X413583D01*
X412402Y224803D02*
X412451Y224852D01*
X419636D01*
X419685Y224902D01*
Y237598D01*
X418130Y239154D02*
X419685Y237598D01*
X413583Y239154D02*
X418130D01*
D69*
X469488Y164567D02*
Y247736D01*
X416929Y22244D02*
Y27257D01*
X169000Y25043D02*
Y78143D01*
Y25043D02*
X170900Y23143D01*
X162600Y84543D02*
X169000Y78143D01*
X107874Y329016D02*
X107894Y329035D01*
X369390Y164567D02*
Y164912D01*
X419291Y55512D02*
X421161Y57382D01*
Y64173D01*
X421260Y64272D01*
X404724Y55512D02*
X419291D01*
X397244Y48031D02*
X404724Y55512D01*
X421260Y79823D02*
Y105118D01*
Y79528D02*
Y79823D01*
Y105118D02*
X459350Y143209D01*
X436221Y105905D02*
X469488Y139173D01*
X436221Y46548D02*
Y105905D01*
X416929Y27257D02*
X436221Y46548D01*
X469488Y139173D02*
Y164567D01*
X459350Y143209D02*
Y229626D01*
X446555Y261122D02*
X456102D01*
X439468Y268209D02*
X446555Y261122D01*
X417224Y268209D02*
X439468D01*
X456102Y261122D02*
X469488Y247736D01*
X412697Y272736D02*
X417224Y268209D01*
X412697Y272736D02*
Y288287D01*
X450787Y238189D02*
Y241043D01*
Y238189D02*
X459350Y229626D01*
X397244Y22244D02*
Y48031D01*
X323091Y57343D02*
X330300D01*
X302060Y36312D02*
X323091Y57343D01*
X302060Y23143D02*
Y36312D01*
X306693Y60728D02*
Y80029D01*
X273020Y27055D02*
X306693Y60728D01*
X273020Y23143D02*
Y27055D01*
X276677Y84543D02*
X279626Y81595D01*
Y59350D02*
Y81595D01*
X257759Y37484D02*
X279626Y59350D01*
X302179Y84543D02*
X306693Y80029D01*
X292028Y84543D02*
X302179D01*
X257759Y23143D02*
Y37484D01*
X264961Y84543D02*
X276677D01*
X220400D02*
X224311Y80632D01*
Y41254D02*
Y80632D01*
X214900Y31843D02*
X224311Y41254D01*
X249600Y84743D02*
X252067Y82276D01*
Y56110D02*
Y82276D01*
X243980Y48023D02*
X252067Y56110D01*
X367200Y39343D02*
X389000Y61143D01*
X337100Y39343D02*
X367200D01*
X384600Y84543D02*
X389000Y80143D01*
Y61143D02*
Y80143D01*
X348900Y48243D02*
X361200Y60543D01*
X330500Y48243D02*
X348900D01*
X315840Y33583D02*
X330500Y48243D01*
X330300Y57343D02*
X333800Y60843D01*
Y83543D01*
X331100Y33343D02*
X337100Y39343D01*
X331100Y23143D02*
Y33343D01*
X373600Y84543D02*
X384600D01*
X315840Y23143D02*
Y33583D01*
X361200Y60543D02*
Y82943D01*
X359600Y84543D02*
X361200Y82943D01*
X346225Y84543D02*
X359600D01*
X332800D02*
X333800Y83543D01*
X318850Y84543D02*
X332800D01*
X236925Y84743D02*
X249600D01*
X236725Y84543D02*
X236925Y84743D01*
X243980Y23143D02*
Y48023D01*
X214900Y23183D02*
Y31843D01*
Y23183D02*
X214940Y23143D01*
X209350Y84543D02*
X220400D01*
X199680Y23143D02*
Y24290D01*
X197000Y26969D02*
X199680Y24290D01*
X197000Y26969D02*
Y80743D01*
X193200Y84543D02*
X197000Y80743D01*
X181975Y84543D02*
X193200D01*
X170900Y23143D02*
X185900D01*
X154600Y84543D02*
X162600D01*
D70*
X349900Y187795D02*
X368898D01*
X296063Y212616D02*
X304331Y204348D01*
Y183616D02*
Y204348D01*
Y183616D02*
X310874Y177073D01*
X339178D01*
X349900Y187795D01*
X185236Y285157D02*
Y286330D01*
X175236Y285157D02*
X185236D01*
X365331Y168971D02*
X369390Y164912D01*
X365331Y168971D02*
Y180415D01*
X368898Y183981D01*
Y187795D01*
X62205Y213850D02*
X63358Y212697D01*
X70768D01*
X62205Y213850D02*
Y216634D01*
X62106Y216732D02*
X62205Y216634D01*
D71*
X339567Y328150D02*
X356693D01*
X339373D02*
X339567D01*
X407723Y254153D02*
X413576Y253957D01*
X413583Y253957D02*
X413760Y254134D01*
X423327D02*
X441535D01*
X69045Y162845D02*
Y167471D01*
Y162845D02*
X72441Y159449D01*
X67323Y165748D02*
X69045Y167471D01*
X72441Y159449D02*
X76240D01*
X69045Y167471D02*
X70768Y169193D01*
X76240Y159449D02*
X76378Y159311D01*
X413760Y254134D02*
X423327D01*
X367126Y251575D02*
Y261614D01*
X423327Y254134D02*
Y261614D01*
X423228Y261713D02*
X423327Y261614D01*
X46161Y173524D02*
Y182841D01*
X46161Y173524D02*
X46161Y173524D01*
X48917Y165748D02*
X67323D01*
X46161Y168504D02*
X48917Y165748D01*
X46161Y168504D02*
Y173524D01*
X70768Y169193D02*
Y178150D01*
X364961Y328150D02*
X372736D01*
X441535Y254134D02*
X445029Y250640D01*
X443543Y249153D02*
X445029Y250640D01*
X432874Y249153D02*
X443543D01*
X413576Y253957D02*
X413583Y253957D01*
X413576Y253957D02*
X413576D01*
X434744Y224803D02*
Y238573D01*
X427559Y224902D02*
X434646D01*
X405709Y256168D02*
X407723Y254153D01*
X405709Y256168D02*
Y259350D01*
X399803Y265256D02*
X405709Y259350D01*
X399803Y265256D02*
Y269587D01*
X399705Y269685D02*
X399803Y269587D01*
X445177Y250492D02*
X450886D01*
X445571Y242618D02*
X450886D01*
X444035Y244153D02*
X445571Y242618D01*
X432874Y244153D02*
X444035D01*
D72*
X87795Y200867D02*
Y211007D01*
X73641Y186713D02*
X87795Y200867D01*
X70768Y186713D02*
X73641D01*
X87795Y211007D02*
X89485Y212697D01*
X93799D01*
X224050Y127362D02*
Y144848D01*
X217717Y151181D02*
X224050Y144848D01*
X117362Y159153D02*
X117520Y159311D01*
X117362Y168957D02*
X117520Y168799D01*
X50197Y191634D02*
Y197080D01*
Y191634D02*
X51575Y190256D01*
X60925D01*
X64468Y186713D01*
X122406Y210335D02*
X126279D01*
X121816Y209744D02*
X122406Y210335D01*
X93799Y209744D02*
X121816D01*
X94301Y206900D02*
X123726D01*
X94115Y207087D02*
X94301Y206900D01*
X119986Y203159D02*
X120085D01*
X115173Y202067D02*
X117033Y200207D01*
X113687Y196958D02*
X114277D01*
X108283Y196949D02*
X111324Y193907D01*
X104837Y194390D02*
X108470Y190757D01*
X105517Y187706D02*
X105896D01*
X111811Y199508D02*
X114024Y197295D01*
X93799Y199508D02*
X111811D01*
X113687Y196958D02*
X114024Y197295D01*
X50197Y197080D02*
Y206398D01*
X61516D02*
X63681Y204232D01*
X58071Y206398D02*
X61516D01*
X63681Y198650D02*
Y204232D01*
Y198650D02*
X66043Y196288D01*
Y193209D02*
Y196288D01*
Y193209D02*
X67421Y191831D01*
X70768D01*
X62467Y197080D02*
X64075Y195472D01*
X58071Y197080D02*
X62467D01*
X64075Y192028D02*
Y195472D01*
Y192028D02*
X66831Y189272D01*
X70768D01*
X64468Y186713D02*
X70768D01*
X101772Y191831D02*
X105896Y187706D01*
X93799Y191831D02*
X101772D01*
X93799Y194390D02*
X104837D01*
X93799Y196949D02*
X108283D01*
X93799Y202067D02*
X115173D01*
X118520Y204626D02*
X119986Y203159D01*
X93799Y204626D02*
X118520D01*
D73*
X224311Y255413D02*
X244193D01*
X183992Y215094D02*
X224311Y255413D01*
X182811Y216669D02*
X223524Y257382D01*
X83795Y215094D02*
X183992D01*
X82417Y216669D02*
X182811D01*
X223524Y257382D02*
X244193D01*
X193902Y278346D02*
X197933D01*
X190713Y275157D02*
X193902Y278346D01*
X185237Y275157D02*
X190713D01*
X81496Y212795D02*
X83795Y215094D01*
X77559Y211811D02*
X82417Y216669D01*
X81496Y208268D02*
Y212795D01*
X75099Y181595D02*
X76772Y179921D01*
X77559D01*
X76870Y184252D02*
X77559D01*
X76772Y184153D02*
X76870Y184252D01*
X70768Y181595D02*
X75099D01*
X70768Y184153D02*
X76772D01*
X146850Y267323D02*
Y269980D01*
Y267323D02*
X148031Y266142D01*
X162598D01*
X166142Y262598D01*
Y260138D02*
Y262598D01*
Y260138D02*
X171952Y254328D01*
Y251375D02*
Y254328D01*
Y251375D02*
X172047Y251279D01*
X104331Y180020D02*
Y184416D01*
X99475Y189272D02*
X104331Y184416D01*
X102559Y171161D02*
Y183465D01*
X99311Y186713D02*
X102559Y183465D01*
X93799Y186713D02*
X99311D01*
X100886Y167756D02*
Y182480D01*
X99213Y184153D02*
X100886Y182480D01*
X93799Y184153D02*
X99213D01*
X99213Y152657D02*
Y180903D01*
X98521Y181595D02*
X99213Y180903D01*
X93799Y181595D02*
X98521D01*
X64468Y179626D02*
X66437Y181595D01*
X70768D01*
X64468Y176279D02*
Y179626D01*
X61713Y173524D02*
X64468Y176279D01*
X54035Y173524D02*
X61713D01*
X65059Y184153D02*
X70768D01*
X63747Y182841D02*
X65059Y184153D01*
X54036Y182841D02*
X63747D01*
X97638Y147047D02*
Y177938D01*
Y147047D02*
X104724Y139961D01*
X99213Y152657D02*
X102264Y149606D01*
X93811Y178630D02*
X96946D01*
X93799Y178642D02*
X93811Y178630D01*
X96946D02*
X97638Y177938D01*
X104724Y139961D02*
X109488D01*
X102264Y149606D02*
X109488D01*
X100886Y167756D02*
X107224Y161417D01*
X108110D01*
X109488Y160039D01*
Y159153D02*
Y160039D01*
X93799Y189272D02*
X99475D01*
X102559Y171161D02*
X104921Y168799D01*
X109646D01*
X104331Y180020D02*
X105720Y178630D01*
X109007D01*
X109488Y178150D01*
D74*
X239921Y299213D02*
D03*
D75*
X432874Y239154D02*
X434164D01*
X434744Y238573D01*
X434646Y224902D02*
X434744Y224803D01*
D76*
X377599Y164604D02*
D03*
D77*
X374648Y174693D02*
D03*
X374664Y154441D02*
D03*
D78*
X441474Y174663D02*
D03*
X441400Y154471D02*
D03*
D79*
X438238Y164567D02*
D03*
D80*
X449016Y164567D02*
D03*
X369390D02*
D03*
D81*
X88189Y23228D02*
D03*
X74410D02*
D03*
X416929Y22244D02*
D03*
X199680Y23143D02*
D03*
X228719D02*
D03*
X257759D02*
D03*
X286800D02*
D03*
X315840D02*
D03*
X344880D02*
D03*
D82*
X60630Y23228D02*
D03*
X397244Y22244D02*
D03*
X185900Y23143D02*
D03*
X214940D02*
D03*
X243980D02*
D03*
X273020D02*
D03*
X302060D02*
D03*
X331100D02*
D03*
D83*
X307697Y322441D02*
D03*
X297696Y322441D02*
D03*
X317697Y322441D02*
D03*
X269921Y322539D02*
D03*
X259921Y322441D02*
D03*
X239921Y322441D02*
D03*
X249921Y322441D02*
D03*
X185237Y275157D02*
D03*
X185236Y285157D02*
D03*
X175236Y265158D02*
D03*
Y275157D02*
D03*
Y285157D02*
D03*
X209350Y74543D02*
D03*
Y84543D02*
D03*
X181975Y74543D02*
D03*
Y84543D02*
D03*
X154600Y74543D02*
D03*
Y84543D02*
D03*
X292028Y74543D02*
D03*
Y84543D02*
D03*
X264961Y74543D02*
D03*
Y84543D02*
D03*
X236725Y74543D02*
D03*
Y84543D02*
D03*
X373600Y74543D02*
D03*
Y84543D02*
D03*
X346225Y74543D02*
D03*
Y84543D02*
D03*
X318850Y74543D02*
D03*
Y84543D02*
D03*
X72874Y310689D02*
D03*
Y300689D02*
D03*
X82874Y310689D02*
D03*
Y279980D02*
D03*
D84*
X287697Y322441D02*
D03*
X229921D02*
D03*
X209350Y94543D02*
D03*
X181975D02*
D03*
X154600D02*
D03*
X292028D02*
D03*
X264961D02*
D03*
X236725D02*
D03*
X373600D02*
D03*
X346225D02*
D03*
X318850D02*
D03*
D85*
X185237Y265157D02*
D03*
X82874Y300689D02*
D03*
X82874Y269980D02*
D03*
D86*
X274583Y201181D02*
D03*
X270253Y201181D02*
D03*
X86915Y225984D02*
D03*
X82459Y223447D02*
D03*
X223228Y278740D02*
D03*
X254035Y288681D02*
D03*
X262204Y229133D02*
D03*
X280709Y236221D02*
D03*
X234778Y250894D02*
D03*
X218110Y235827D02*
D03*
X295669Y259055D02*
D03*
X243701Y219685D02*
D03*
X205906Y254331D02*
D03*
X198130Y258268D02*
D03*
X166535Y273228D02*
D03*
X227165Y261811D02*
D03*
X261024Y295276D02*
D03*
X239921Y299213D02*
D03*
X236614Y268110D02*
D03*
X261024Y246850D02*
D03*
X285039Y236220D02*
D03*
X177559Y225984D02*
D03*
X181890Y226772D02*
D03*
X227165Y270866D02*
D03*
X77559Y211811D02*
D03*
X81496Y208268D02*
D03*
X77559Y179921D02*
D03*
Y184252D02*
D03*
X126279Y210335D02*
D03*
X123726Y206900D02*
D03*
X120085Y203159D02*
D03*
X117033Y200207D02*
D03*
X114277Y196958D02*
D03*
X111324Y193907D02*
D03*
X108470Y190757D02*
D03*
X105517Y187706D02*
D03*
D87*
X394685Y217126D02*
D03*
M02*
