G04*
G04 #@! TF.GenerationSoftware,Altium Limited,Altium Designer,19.0.9 (268)*
G04*
G04 Layer_Color=8421504*
%FSLAX25Y25*%
%MOIN*%
G70*
G01*
G75*
%ADD21R,0.05315X0.01575*%
%ADD22R,0.05315X0.02362*%
%ADD23R,0.05906X0.03543*%
%ADD24O,0.00984X0.06102*%
%ADD25O,0.06102X0.00984*%
%ADD26O,0.09843X0.02756*%
%ADD27R,0.06102X0.09252*%
%ADD28R,0.06299X0.12402*%
%ADD29R,0.05709X0.03937*%
%ADD30R,0.05315X0.04331*%
%ADD31R,0.03937X0.05709*%
%ADD32R,0.04331X0.05709*%
%ADD33R,0.05906X0.05906*%
%ADD34R,0.13780X0.09843*%
%ADD35R,0.06693X0.04724*%
%ADD36R,0.04724X0.06693*%
%ADD37R,0.08583X0.06299*%
%ADD38R,0.08661X0.06299*%
%ADD39R,0.04331X0.05315*%
%ADD40R,0.08268X0.22047*%
G36*
X387795Y274016D02*
X383106Y266043D01*
X353115D01*
X348425Y274016D01*
Y281890D01*
X387795D01*
X387795Y274016D01*
D02*
G37*
G36*
X387795Y302756D02*
Y294882D01*
X348425D01*
X348425Y302756D01*
X353173Y310827D01*
X383048D01*
X387795Y302756D01*
D02*
G37*
D21*
X70768Y186713D02*
D03*
Y184153D02*
D03*
Y181595D02*
D03*
Y189272D02*
D03*
Y191831D02*
D03*
X93799D02*
D03*
Y189272D02*
D03*
Y181595D02*
D03*
Y184153D02*
D03*
Y186713D02*
D03*
Y194390D02*
D03*
Y196949D02*
D03*
Y199508D02*
D03*
Y202067D02*
D03*
Y209744D02*
D03*
Y207185D02*
D03*
Y204626D02*
D03*
X70768D02*
D03*
Y207185D02*
D03*
Y209744D02*
D03*
Y202067D02*
D03*
Y199508D02*
D03*
Y196949D02*
D03*
Y194390D02*
D03*
D22*
X93799Y178642D02*
D03*
Y212697D02*
D03*
X70768D02*
D03*
Y178642D02*
D03*
D23*
X231496Y178740D02*
D03*
Y165748D02*
D03*
X250787D02*
D03*
Y178740D02*
D03*
D24*
X249213Y240551D02*
D03*
X251181D02*
D03*
X253150D02*
D03*
X255118D02*
D03*
X257087D02*
D03*
X259055D02*
D03*
X261024D02*
D03*
X262992D02*
D03*
X264961D02*
D03*
X266929D02*
D03*
X268898D02*
D03*
X270866D02*
D03*
Y272244D02*
D03*
X268898D02*
D03*
X266929D02*
D03*
X264961D02*
D03*
X262992D02*
D03*
X261024D02*
D03*
X259055D02*
D03*
X257087D02*
D03*
X255118D02*
D03*
X253150D02*
D03*
X251181D02*
D03*
X249213D02*
D03*
D25*
X275886Y245571D02*
D03*
Y247539D02*
D03*
Y249508D02*
D03*
Y251476D02*
D03*
Y253445D02*
D03*
Y255413D02*
D03*
Y257382D02*
D03*
Y259350D02*
D03*
Y261319D02*
D03*
Y263287D02*
D03*
Y265256D02*
D03*
Y267224D02*
D03*
X244193D02*
D03*
Y265256D02*
D03*
Y263287D02*
D03*
Y261319D02*
D03*
Y259350D02*
D03*
Y257382D02*
D03*
Y255413D02*
D03*
Y253445D02*
D03*
Y251476D02*
D03*
Y249508D02*
D03*
Y247539D02*
D03*
Y245571D02*
D03*
D26*
X432874Y239154D02*
D03*
Y244153D02*
D03*
Y249153D02*
D03*
Y254153D02*
D03*
X413583Y239154D02*
D03*
Y244153D02*
D03*
Y249153D02*
D03*
Y254153D02*
D03*
D27*
X421260Y79823D02*
D03*
Y64272D02*
D03*
X394783Y236713D02*
D03*
Y252264D02*
D03*
D28*
X367126Y251575D02*
D03*
Y228740D02*
D03*
D29*
X450886Y250492D02*
D03*
Y242618D02*
D03*
X172047Y243406D02*
D03*
Y251279D02*
D03*
D30*
X399705Y269685D02*
D03*
Y277559D02*
D03*
X332281Y233465D02*
D03*
Y225591D02*
D03*
X332281Y195669D02*
D03*
Y203543D02*
D03*
X285728Y201181D02*
D03*
Y193307D02*
D03*
X260236Y201181D02*
D03*
Y193307D02*
D03*
X368898Y187795D02*
D03*
Y195669D02*
D03*
X286319Y273228D02*
D03*
Y265354D02*
D03*
X226673Y239469D02*
D03*
Y247342D02*
D03*
D31*
X434744Y224803D02*
D03*
X442618D02*
D03*
X427559Y224902D02*
D03*
X419685D02*
D03*
X372736Y328150D02*
D03*
X380610D02*
D03*
X197933Y278346D02*
D03*
X205807D02*
D03*
X197933Y268996D02*
D03*
X205807D02*
D03*
X46161Y182841D02*
D03*
X54036D02*
D03*
X46161Y173524D02*
D03*
X54035D02*
D03*
X58071Y197080D02*
D03*
X50197D02*
D03*
X109488Y178150D02*
D03*
X117362D02*
D03*
X109646Y168799D02*
D03*
X117520D02*
D03*
X109488Y159153D02*
D03*
X117362D02*
D03*
X109488Y149606D02*
D03*
X117362D02*
D03*
X109488Y139961D02*
D03*
X117362D02*
D03*
X58071Y206398D02*
D03*
X50197D02*
D03*
X136417Y316240D02*
D03*
X144291D02*
D03*
D32*
X356693Y328150D02*
D03*
X364961D02*
D03*
D33*
X368110Y278740D02*
D03*
Y298031D02*
D03*
D34*
X438386Y288386D02*
D03*
X412795D02*
D03*
D35*
X399705Y294980D02*
D03*
Y306004D02*
D03*
D36*
X412402Y224803D02*
D03*
X401378D02*
D03*
D37*
X182697Y329035D02*
D03*
X144075D02*
D03*
D38*
X218878D02*
D03*
X107894D02*
D03*
D39*
X237927Y155512D02*
D03*
X245801D02*
D03*
X267717Y227264D02*
D03*
X275590D02*
D03*
X243307Y282480D02*
D03*
X251181D02*
D03*
X76378Y159311D02*
D03*
X84252D02*
D03*
X115748Y316043D02*
D03*
X107874D02*
D03*
D40*
X317520Y195866D02*
D03*
Y233268D02*
D03*
M02*
