G04*
G04 #@! TF.GenerationSoftware,Altium Limited,Altium Designer,19.0.9 (268)*
G04*
G04 Layer_Color=65535*
%FSLAX25Y25*%
%MOIN*%
G70*
G01*
G75*
%ADD10C,0.00984*%
%ADD11C,0.03937*%
%ADD12C,0.00787*%
%ADD13C,0.02362*%
%ADD14C,0.00394*%
%ADD15C,0.00866*%
%ADD16C,0.00197*%
%ADD17C,0.00591*%
%ADD18C,0.01000*%
%ADD19R,0.12303X0.03445*%
%ADD20R,0.06890X0.30610*%
D10*
X94291Y175295D02*
G03*
X94291Y175295I-492J0D01*
G01*
X226870Y178740D02*
G03*
X226870Y178740I-492J0D01*
G01*
X247047Y240551D02*
G03*
X247047Y240551I-492J0D01*
G01*
X414075Y257697D02*
G03*
X414075Y257697I-492J0D01*
G01*
X225866Y329035D02*
G03*
X225866Y329035I-492J0D01*
G01*
X209842Y107181D02*
G03*
X209842Y107181I-492J0D01*
G01*
X182467D02*
G03*
X182467Y107181I-492J0D01*
G01*
X155092D02*
G03*
X155092Y107181I-492J0D01*
G01*
X318012Y246457D02*
G03*
X318012Y246457I-492J0D01*
G01*
X292520Y107181D02*
G03*
X292520Y107181I-492J0D01*
G01*
X265453D02*
G03*
X265453Y107181I-492J0D01*
G01*
X237217D02*
G03*
X237217Y107181I-492J0D01*
G01*
X374092D02*
G03*
X374092Y107181I-492J0D01*
G01*
X346717D02*
G03*
X346717Y107181I-492J0D01*
G01*
X319342D02*
G03*
X319342Y107181I-492J0D01*
G01*
X101890Y329035D02*
G03*
X101890Y329035I-492J0D01*
G01*
D11*
X378553Y150153D02*
G03*
X378508Y178859I39164J14414D01*
G01*
D12*
X450493Y170455D02*
G03*
X440392Y188955I-32776J-5888D01*
G01*
Y140179D02*
G03*
X450493Y158679I-22675J24388D01*
G01*
X198228Y293307D02*
X222047D01*
X193307Y288386D02*
X198228Y293307D01*
X193307Y277165D02*
Y288386D01*
X191299Y275157D02*
X193307Y277165D01*
X190236Y275157D02*
X191299D01*
X30906Y297342D02*
X37008D01*
X30906Y291240D02*
Y297342D01*
Y291240D02*
X37008D01*
Y297342D01*
X46850Y291240D02*
Y297342D01*
X40748Y291240D02*
X46850D01*
X40748D02*
Y297342D01*
X46850D01*
X37008Y312205D02*
Y318307D01*
X30906Y312205D02*
X37008D01*
X30906D02*
Y318307D01*
X37008D01*
X40748D02*
X46850D01*
X40748Y312205D02*
Y318307D01*
Y312205D02*
X46850D01*
Y318307D01*
X40748Y306693D02*
X46850D01*
X40748Y300591D02*
Y306693D01*
Y300591D02*
X46850D01*
Y306693D01*
X37008Y300591D02*
Y306693D01*
X30906Y300591D02*
X37008D01*
X30906D02*
Y306693D01*
X37008D01*
X46850Y320472D02*
Y326575D01*
X40748Y320472D02*
X46850D01*
X40748D02*
Y326575D01*
X46850D01*
X30906D02*
X37008D01*
X30906Y320472D02*
Y326575D01*
Y320472D02*
X37008D01*
Y326575D01*
X74569Y214961D02*
X89998D01*
X74569Y176378D02*
X89998D01*
X231299Y182087D02*
X250984D01*
Y169095D02*
Y175394D01*
X231299Y162402D02*
X250984D01*
X231299Y169095D02*
Y175394D01*
X368504Y149606D02*
X376673D01*
X368504Y179528D02*
X376772D01*
X450591Y170472D02*
X458366Y171850D01*
X440392Y188955D02*
X445669Y194587D01*
X440392Y140179D02*
X445669Y134547D01*
X450591Y158661D02*
X458366Y157283D01*
X248819Y245177D02*
X271260D01*
X248819Y267618D02*
X271260D01*
X248819Y245177D02*
Y267618D01*
X271260Y245177D02*
Y267618D01*
X420079Y236811D02*
X426378D01*
X420079Y256496D02*
X426378D01*
Y236811D02*
Y256496D01*
X420079Y236811D02*
Y256496D01*
X53587Y9428D02*
Y31539D01*
Y36828D01*
X95177D01*
Y9428D02*
Y36828D01*
X53587Y9428D02*
X95177D01*
X387402Y10039D02*
Y32480D01*
Y32087D02*
Y39961D01*
X426772D01*
Y10039D02*
Y39961D01*
X387402Y10039D02*
X426772D01*
X371457Y253543D02*
X375394D01*
X380512Y248425D01*
X353740D02*
X358858Y253543D01*
X362795D01*
X380512Y226772D02*
Y248425D01*
X371457Y226772D02*
X380512D01*
X353740D02*
X362795D01*
X353740D02*
Y248425D01*
X408858Y294882D02*
Y305118D01*
X408858Y271654D02*
Y281890D01*
X408858Y305118D02*
X437402D01*
X442323Y294882D02*
Y300197D01*
X408858Y271654D02*
X437402D01*
X442323Y276575D02*
Y281890D01*
X437402Y305118D02*
X442323Y300197D01*
X437402Y271654D02*
X442323Y276575D01*
X396752Y298327D02*
Y302658D01*
X402658Y298327D02*
Y302658D01*
X404724Y221850D02*
X409055D01*
X404724Y227756D02*
X409055D01*
X188976Y322146D02*
X212598D01*
Y335925D01*
X188976Y322146D02*
Y335925D01*
X212598D01*
X170276Y260157D02*
X190236D01*
Y290158D01*
X170276D02*
X190236D01*
X170276Y260157D02*
Y290158D01*
X217854Y64465D02*
Y104622D01*
X219822Y64465D02*
Y104622D01*
X201319Y64465D02*
Y104622D01*
Y64465D02*
X219822D01*
X201319Y104622D02*
X219822D01*
X190479Y64465D02*
Y104622D01*
X192447Y64465D02*
Y104622D01*
X173943Y64465D02*
Y104622D01*
Y64465D02*
X192447D01*
X173943Y104622D02*
X192447D01*
X163104Y64465D02*
Y104622D01*
X165072Y64465D02*
Y104622D01*
X146569Y64465D02*
Y104622D01*
Y64465D02*
X165072D01*
X146569Y104622D02*
X165072D01*
X178661Y9540D02*
X206703D01*
Y36940D01*
X178661D02*
X206703D01*
X178661Y31651D02*
Y36940D01*
Y9540D02*
Y31651D01*
X323228Y239567D02*
X326772D01*
X308268D02*
X311811D01*
X308268Y189567D02*
X311811D01*
X323228D02*
X326772D01*
X308268D02*
Y239567D01*
X326772Y189567D02*
Y239567D01*
X207701Y9540D02*
X235743D01*
Y36940D01*
X207701D02*
X235743D01*
X207701Y31651D02*
Y36940D01*
Y9540D02*
Y31651D01*
X236741Y9540D02*
X264783D01*
Y36940D01*
X236741D02*
X264783D01*
X236741Y31651D02*
Y36940D01*
Y9540D02*
Y31651D01*
X300532Y64465D02*
Y104622D01*
X302500Y64465D02*
Y104622D01*
X283996Y64465D02*
Y104622D01*
Y64465D02*
X302500D01*
X283996Y104622D02*
X302500D01*
X273465Y64465D02*
Y104622D01*
X275433Y64465D02*
Y104622D01*
X256929Y64465D02*
Y104622D01*
Y64465D02*
X275433D01*
X256929Y104622D02*
X275433D01*
X245229Y64465D02*
Y104622D01*
X247197Y64465D02*
Y104622D01*
X228694Y64465D02*
Y104622D01*
Y64465D02*
X247197D01*
X228694Y104622D02*
X247197D01*
X265781Y9540D02*
X293823D01*
Y36940D01*
X265781D02*
X293823D01*
X265781Y31651D02*
Y36940D01*
Y9540D02*
Y31651D01*
X294821Y9540D02*
X322863D01*
Y36940D01*
X294821D02*
X322863D01*
X294821Y31651D02*
Y36940D01*
Y9540D02*
Y31651D01*
X323861Y9540D02*
X351903D01*
Y36940D01*
X323861D02*
X351903D01*
X323861Y31651D02*
Y36940D01*
Y9540D02*
Y31651D01*
X382104Y64465D02*
Y104622D01*
X384072Y64465D02*
Y104622D01*
X365568Y64465D02*
Y104622D01*
Y64465D02*
X384072D01*
X365568Y104622D02*
X384072D01*
X354729Y64465D02*
Y104622D01*
X356697Y64465D02*
Y104622D01*
X338193Y64465D02*
Y104622D01*
Y64465D02*
X356697D01*
X338193Y104622D02*
X356697D01*
X327354Y64465D02*
Y104622D01*
X329322Y64465D02*
Y104622D01*
X310819Y64465D02*
Y104622D01*
Y64465D02*
X329322D01*
X310819Y104622D02*
X329322D01*
X114173Y335925D02*
X137795D01*
X114173Y322146D02*
Y335925D01*
X137795Y322146D02*
Y335925D01*
X114173Y322146D02*
X137795D01*
X67913Y295689D02*
Y315748D01*
X87874D01*
Y295689D02*
Y315748D01*
X67913Y295689D02*
X87874D01*
X77874Y264981D02*
Y284981D01*
X87874D01*
Y264981D02*
Y284981D01*
X77874Y264981D02*
X87874D01*
D13*
X253937Y249114D02*
G03*
X253937Y249114I-1181J0D01*
G01*
D14*
X30315Y309449D02*
X65354D01*
X30906Y291240D02*
X37008Y297342D01*
X31890Y291240D02*
X32185D01*
X30906Y292913D02*
X31102D01*
X35433Y297244D01*
Y297342D01*
X37008Y296063D02*
X37008D01*
X30906Y294094D02*
X31004D01*
X34154Y297342D02*
X34252D01*
X30906Y294094D02*
X34154Y297342D01*
X30906Y295669D02*
X31004D01*
X32677Y297342D01*
X32185Y291240D02*
X32185D01*
X37008Y296063D01*
X33465Y291240D02*
Y291339D01*
X37008Y294882D01*
X34646Y291240D02*
Y291339D01*
X37008Y293701D01*
X35827Y291240D02*
Y291339D01*
X37008Y292520D01*
X45669Y291339D02*
X46850Y292520D01*
X45669Y291240D02*
Y291339D01*
X44488D02*
X46850Y293701D01*
X44488Y291240D02*
Y291339D01*
X43307D02*
X46850Y294882D01*
X43307Y291240D02*
Y291339D01*
X42028Y291240D02*
X46850Y296063D01*
X42028Y291240D02*
X42028D01*
X40846Y295669D02*
X42520Y297342D01*
X40748Y295669D02*
X40846D01*
X40748Y294094D02*
X43996Y297342D01*
X44094D01*
X40748Y294094D02*
X40846D01*
X46850Y296063D02*
X46850D01*
X45276Y297244D02*
Y297342D01*
X40945Y292913D02*
X45276Y297244D01*
X40748Y292913D02*
X40945D01*
X41732Y291240D02*
X42028D01*
X40748D02*
X46850Y297342D01*
X37008D02*
X40748D01*
X37008Y291240D02*
X40748D01*
X37008Y300591D02*
X40748D01*
X37008Y306693D02*
X40748D01*
Y300591D02*
X46850Y306693D01*
X41732Y300591D02*
X42028D01*
X40748Y302264D02*
X40945D01*
X45276Y306594D01*
Y306693D01*
X46850Y305413D02*
X46850D01*
X40748Y303445D02*
X40846D01*
X43996Y306693D02*
X44094D01*
X40748Y303445D02*
X43996Y306693D01*
X40748Y305020D02*
X40846D01*
X42520Y306693D01*
X42028Y300591D02*
X42028D01*
X46850Y305413D01*
X43307Y300591D02*
Y300689D01*
X46850Y304232D01*
X44488Y300591D02*
Y300689D01*
X46850Y303051D01*
X45669Y300591D02*
Y300689D01*
X46850Y301870D01*
X35827Y300689D02*
X37008Y301870D01*
X35827Y300591D02*
Y300689D01*
X34646D02*
X37008Y303051D01*
X34646Y300591D02*
Y300689D01*
X33465D02*
X37008Y304232D01*
X33465Y300591D02*
Y300689D01*
X32185Y300591D02*
X37008Y305413D01*
X32185Y300591D02*
X32185D01*
X31004Y305020D02*
X32677Y306693D01*
X30906Y305020D02*
X31004D01*
X30906Y303445D02*
X34154Y306693D01*
X34252D01*
X30906Y303445D02*
X31004D01*
X37008Y305413D02*
X37008D01*
X35433Y306594D02*
Y306693D01*
X31102Y302264D02*
X35433Y306594D01*
X30906Y302264D02*
X31102D01*
X31890Y300591D02*
X32185D01*
X30906D02*
X37008Y306693D01*
X30315Y329528D02*
X65354Y329730D01*
X447342Y253150D02*
X454429D01*
X447342Y239961D02*
X454429D01*
Y239961D02*
Y244882D01*
Y248228D02*
Y253150D01*
X447342Y248228D02*
Y253150D01*
X447342Y239961D02*
Y244882D01*
X396358Y280413D02*
X403051D01*
X396358Y275148D02*
Y280413D01*
X403051Y275148D02*
Y280413D01*
X396358Y266831D02*
Y272146D01*
X396358Y266831D02*
X403051D01*
X403051D02*
Y272146D01*
X432087Y221260D02*
Y228346D01*
X445276Y221260D02*
Y228346D01*
X440354D02*
X445276D01*
X432087D02*
X437008D01*
X432087Y221260D02*
X437008D01*
X440354Y221260D02*
X445276D01*
X430217Y221358D02*
Y228445D01*
X417028Y221358D02*
Y228445D01*
X417028Y221358D02*
X421949D01*
X425295D02*
X430217D01*
X425295Y228445D02*
X430217D01*
X417028Y228445D02*
X421949D01*
X388484Y265354D02*
Y311516D01*
X347736D02*
X388484D01*
X347736Y265354D02*
Y311516D01*
X347736Y265354D02*
X388484D01*
X370079Y324606D02*
Y331693D01*
X383268Y324606D02*
Y331693D01*
X378346D02*
X383268D01*
X370079D02*
X375000D01*
X370079Y324606D02*
X375000D01*
X378346Y324606D02*
X383268D01*
X195276Y274803D02*
Y281890D01*
X208465Y274803D02*
Y281890D01*
X203543D02*
X208465D01*
X195276D02*
X200197D01*
X195276Y274803D02*
X200197D01*
X203543Y274803D02*
X208465D01*
X195275Y265453D02*
Y272539D01*
X208465Y265453D02*
Y272539D01*
X203543D02*
X208465D01*
X195275D02*
X200197D01*
X195275Y265453D02*
X200197D01*
X203543Y265453D02*
X208465D01*
X248656Y152165D02*
Y158858D01*
X243390D02*
X248656D01*
X243390Y152165D02*
X248656D01*
X235073Y158858D02*
X240388D01*
X235073Y152165D02*
Y158858D01*
Y152165D02*
X240388D01*
X43504Y179298D02*
Y186384D01*
X56693Y179298D02*
Y186384D01*
X51772D02*
X56693D01*
X43504D02*
X48425D01*
X43504Y179298D02*
X48425D01*
X51772Y179298D02*
X56693D01*
X43504Y169980D02*
Y177067D01*
X56693Y169980D02*
Y177067D01*
X51772D02*
X56693D01*
X43504D02*
X48425D01*
X43504Y169980D02*
X48425D01*
X51772Y169980D02*
X56693D01*
X266559Y161614D02*
Y204232D01*
Y161614D02*
X278346D01*
X278323Y161637D02*
X278346Y161614D01*
X278323Y161637D02*
Y204232D01*
X266559D02*
X278323D01*
X328935Y222736D02*
X335628D01*
Y228002D01*
X328935Y222736D02*
Y228002D01*
X335628Y231004D02*
Y236319D01*
X328935D02*
X335628D01*
X328935Y231004D02*
Y236319D01*
X328935Y206398D02*
X335628D01*
X328935Y201132D02*
Y206398D01*
X335628Y201132D02*
Y206398D01*
X328935Y192815D02*
Y198130D01*
X328935Y192815D02*
X335628D01*
X335628D02*
Y198130D01*
X282382Y190453D02*
X289075D01*
Y195719D01*
X282382Y190453D02*
Y195719D01*
X289075Y198721D02*
Y204035D01*
X282382D02*
X289075D01*
X282382Y198721D02*
Y204035D01*
X256890Y190453D02*
X263583D01*
Y195719D01*
X256890Y190453D02*
Y195719D01*
X263583Y198721D02*
Y204035D01*
X256890D02*
X263583D01*
X256890Y198721D02*
Y204035D01*
X365551Y198524D02*
X372244D01*
X365551Y193258D02*
Y198524D01*
X372244Y193258D02*
Y198524D01*
X365551Y184941D02*
Y190256D01*
X365551Y184941D02*
X372244D01*
X372244D02*
Y190256D01*
X278445Y223917D02*
Y230610D01*
X273179D02*
X278445D01*
X273179Y223917D02*
X278445D01*
X264862Y230610D02*
X270177D01*
X264862Y223917D02*
Y230610D01*
Y223917D02*
X270177D01*
X282972Y262500D02*
X289665D01*
Y267766D01*
X282972Y262500D02*
Y267766D01*
X289665Y270768D02*
Y276083D01*
X282972D02*
X289665D01*
X282972Y270768D02*
Y276083D01*
X254035Y279134D02*
Y285827D01*
X248770D02*
X254035D01*
X248770Y279134D02*
X254035D01*
X240453Y285827D02*
X245768D01*
X240453Y279134D02*
Y285827D01*
Y279134D02*
X245768D01*
X223327Y250197D02*
X230020D01*
X223327Y244931D02*
Y250197D01*
X230020Y244931D02*
Y250197D01*
X223327Y236614D02*
Y241929D01*
X223327Y236614D02*
X230020D01*
X230020D02*
Y241929D01*
X60728Y193537D02*
Y200623D01*
X47539Y193537D02*
Y200623D01*
X47539Y193537D02*
X52461D01*
X55807D02*
X60728D01*
X55807Y200623D02*
X60728D01*
X47539Y200623D02*
X52461D01*
X106831Y174606D02*
Y181693D01*
X120020Y174606D02*
Y181693D01*
X115098D02*
X120020D01*
X106831D02*
X111752D01*
X106831Y174606D02*
X111752D01*
X115098Y174606D02*
X120020D01*
X106988Y165256D02*
Y172343D01*
X120177Y165256D02*
Y172343D01*
X115256D02*
X120177D01*
X106988D02*
X111909D01*
X106988Y165256D02*
X111909D01*
X115256Y165256D02*
X120177D01*
X106831Y155610D02*
Y162697D01*
X120020Y155610D02*
Y162697D01*
X115098D02*
X120020D01*
X106831D02*
X111752D01*
X106831Y155610D02*
X111752D01*
X115098Y155610D02*
X120020D01*
X106831Y146063D02*
Y153150D01*
X120020Y146063D02*
Y153150D01*
X115098D02*
X120020D01*
X106831D02*
X111752D01*
X106831Y146063D02*
X111752D01*
X115098Y146063D02*
X120020D01*
X106831Y136417D02*
Y143504D01*
X120020Y136417D02*
Y143504D01*
X115098D02*
X120020D01*
X106831D02*
X111752D01*
X106831Y136417D02*
X111752D01*
X115098Y136417D02*
X120020D01*
X60728Y202854D02*
Y209941D01*
X47539Y202854D02*
Y209941D01*
X47539Y202854D02*
X52461D01*
X55807D02*
X60728D01*
X55807Y209941D02*
X60728D01*
X47539Y209941D02*
X52461D01*
X87106Y155965D02*
Y162657D01*
X81840D02*
X87106D01*
X81840Y155965D02*
X87106D01*
X73524Y162657D02*
X78839D01*
X73524Y155965D02*
Y162657D01*
Y155965D02*
X78839D01*
X133760Y312697D02*
Y319783D01*
X146949Y312697D02*
Y319783D01*
X142028D02*
X146949D01*
X133760D02*
X138681D01*
X133760Y312697D02*
X138681D01*
X142028Y312697D02*
X146949D01*
X105020Y312697D02*
Y319390D01*
Y312697D02*
X110285D01*
X105020Y319390D02*
X110285D01*
X113287Y312697D02*
X118602D01*
Y312697D02*
Y319390D01*
X113287Y319390D02*
X118602D01*
X168504Y240748D02*
X175591D01*
X168504Y253937D02*
X175591D01*
X168504Y249016D02*
Y253937D01*
Y240748D02*
Y245669D01*
X175591Y240748D02*
Y245669D01*
X175591Y249016D02*
Y253937D01*
D15*
X416634Y58465D02*
X425787D01*
X415650Y59449D02*
X416634Y58465D01*
X425787D02*
X426772Y59449D01*
X425925Y82480D02*
X426772D01*
X415748D02*
X416595D01*
X415650Y59449D02*
X415650D01*
X426772D02*
Y82480D01*
X415650Y59449D02*
Y82480D01*
X359646Y325787D02*
Y330512D01*
X362008Y328150D01*
X359646Y325787D02*
X362008Y328150D01*
X390256Y258071D02*
X399409D01*
X400394Y257087D01*
X389272D02*
X390256Y258071D01*
X389272Y234055D02*
X390118D01*
X399449D02*
X400295D01*
X400394Y257087D02*
X400394D01*
X389272Y234055D02*
Y257087D01*
X400394Y234055D02*
Y257087D01*
D16*
X395965Y303346D02*
Y308760D01*
X403445D01*
Y303346D02*
Y308760D01*
X395965Y292224D02*
Y297539D01*
Y292224D02*
X403445D01*
Y297539D01*
X398622Y221063D02*
X404035D01*
X398622D02*
Y228543D01*
X404035D01*
X409842Y221063D02*
X415158D01*
Y228543D01*
X409842D02*
X415158D01*
D17*
X282382Y317126D02*
Y327638D01*
X322854D01*
Y317126D02*
Y327638D01*
X282382Y317126D02*
X322854D01*
X224606D02*
X275079D01*
Y327638D01*
X224606D02*
X275079D01*
X224606Y317126D02*
Y327638D01*
D18*
X57480Y38976D02*
Y44974D01*
X60479D01*
X61479Y43975D01*
Y41975D01*
X60479Y40976D01*
X57480D01*
X59480D02*
X61479Y38976D01*
X67477Y43975D02*
X66477Y44974D01*
X64478D01*
X63478Y43975D01*
Y42975D01*
X64478Y41975D01*
X66477D01*
X67477Y40976D01*
Y39976D01*
X66477Y38976D01*
X64478D01*
X63478Y39976D01*
X69476Y41975D02*
X73475D01*
X78474Y38976D02*
Y44974D01*
X75475Y41975D01*
X79473D01*
X81473Y43975D02*
X82472Y44974D01*
X84472D01*
X85471Y43975D01*
Y42975D01*
X84472Y41975D01*
X85471Y40976D01*
Y39976D01*
X84472Y38976D01*
X82472D01*
X81473Y39976D01*
Y40976D01*
X82472Y41975D01*
X81473Y42975D01*
Y43975D01*
X82472Y41975D02*
X84472D01*
X91469Y44974D02*
X87471D01*
Y41975D01*
X89470Y42975D01*
X90470D01*
X91469Y41975D01*
Y39976D01*
X90470Y38976D01*
X88470D01*
X87471Y39976D01*
X392520Y42126D02*
Y48124D01*
X395519D01*
X396518Y47124D01*
Y45125D01*
X395519Y44125D01*
X392520D01*
X401517Y48124D02*
X399517D01*
X398518Y47124D01*
Y43126D01*
X399517Y42126D01*
X401517D01*
X402517Y43126D01*
Y47124D01*
X401517Y48124D01*
X404516D02*
Y42126D01*
X406515Y44125D01*
X408514Y42126D01*
Y48124D01*
X414513D02*
X410514D01*
Y42126D01*
X414513D01*
X410514Y45125D02*
X412513D01*
X416512Y42126D02*
Y48124D01*
X419511D01*
X420511Y47124D01*
Y45125D01*
X419511Y44125D01*
X416512D01*
X418511D02*
X420511Y42126D01*
X414961Y5361D02*
X418959D01*
X395276D02*
X399274D01*
X397275Y7361D02*
Y3362D01*
X342913Y5361D02*
X346912D01*
X344913Y7361D02*
Y3362D01*
X285039Y5361D02*
X289038D01*
X287039Y7361D02*
Y3362D01*
X226772Y5361D02*
X230770D01*
X228771Y7361D02*
Y3362D01*
X326069Y8360D02*
Y2362D01*
X329068D01*
X330068Y3362D01*
Y4361D01*
X329068Y5361D01*
X326069D01*
X329068D01*
X330068Y6361D01*
Y7361D01*
X329068Y8360D01*
X326069D01*
X332067Y7361D02*
X333067Y8360D01*
X335067D01*
X336066Y7361D01*
Y6361D01*
X335067Y5361D01*
X334067D01*
X335067D01*
X336066Y4361D01*
Y3362D01*
X335067Y2362D01*
X333067D01*
X332067Y3362D01*
X268504Y8360D02*
Y2362D01*
X271503D01*
X272503Y3362D01*
Y4361D01*
X271503Y5361D01*
X268504D01*
X271503D01*
X272503Y6361D01*
Y7361D01*
X271503Y8360D01*
X268504D01*
X278501Y2362D02*
X274502D01*
X278501Y6361D01*
Y7361D01*
X277501Y8360D01*
X275502D01*
X274502Y7361D01*
X211109Y8360D02*
Y2362D01*
X214108D01*
X215108Y3362D01*
Y4361D01*
X214108Y5361D01*
X211109D01*
X214108D01*
X215108Y6361D01*
Y7361D01*
X214108Y8360D01*
X211109D01*
X217107Y2362D02*
X219106D01*
X218107D01*
Y8360D01*
X217107Y7361D01*
X315810D02*
X314810Y8360D01*
X312811D01*
X311811Y7361D01*
Y3362D01*
X312811Y2362D01*
X314810D01*
X315810Y3362D01*
Y5361D01*
X313810D01*
X317809Y7361D02*
X318809Y8360D01*
X320808D01*
X321808Y7361D01*
Y6361D01*
X320808Y5361D01*
X319808D01*
X320808D01*
X321808Y4361D01*
Y3362D01*
X320808Y2362D01*
X318809D01*
X317809Y3362D01*
X257542Y7361D02*
X256542Y8360D01*
X254543D01*
X253543Y7361D01*
Y3362D01*
X254543Y2362D01*
X256542D01*
X257542Y3362D01*
Y5361D01*
X255543D01*
X263540Y2362D02*
X259541D01*
X263540Y6361D01*
Y7361D01*
X262540Y8360D01*
X260541D01*
X259541Y7361D01*
X199753D02*
X198754Y8360D01*
X196754D01*
X195755Y7361D01*
Y3362D01*
X196754Y2362D01*
X198754D01*
X199753Y3362D01*
Y5361D01*
X197754D01*
X201753Y2362D02*
X203752D01*
X202752D01*
Y8360D01*
X201753Y7361D01*
X297696Y2362D02*
Y8360D01*
X300696D01*
X301695Y7361D01*
Y5361D01*
X300696Y4361D01*
X297696D01*
X299696D02*
X301695Y2362D01*
X303695Y7361D02*
X304694Y8360D01*
X306694D01*
X307693Y7361D01*
Y6361D01*
X306694Y5361D01*
X305694D01*
X306694D01*
X307693Y4361D01*
Y3362D01*
X306694Y2362D01*
X304694D01*
X303695Y3362D01*
X239370Y2362D02*
Y8360D01*
X242369D01*
X243369Y7361D01*
Y5361D01*
X242369Y4361D01*
X239370D01*
X241369D02*
X243369Y2362D01*
X249367D02*
X245368D01*
X249367Y6361D01*
Y7361D01*
X248367Y8360D01*
X246368D01*
X245368Y7361D01*
X181975Y2362D02*
Y8360D01*
X184974D01*
X185974Y7361D01*
Y5361D01*
X184974Y4361D01*
X181975D01*
X183974D02*
X185974Y2362D01*
X187973D02*
X189972D01*
X188973D01*
Y8360D01*
X187973Y7361D01*
X199606Y299211D02*
Y294488D01*
X201968D01*
X202755Y295275D01*
Y296062D01*
X201968Y296850D01*
X199606D01*
X201968D01*
X202755Y297637D01*
Y298424D01*
X201968Y299211D01*
X199606D01*
X206691D02*
X205116D01*
X204329Y298424D01*
Y295275D01*
X205116Y294488D01*
X206691D01*
X207478Y295275D01*
Y298424D01*
X206691Y299211D01*
X211414D02*
X209839D01*
X209052Y298424D01*
Y295275D01*
X209839Y294488D01*
X211414D01*
X212201Y295275D01*
Y298424D01*
X211414Y299211D01*
X213775D02*
X216923D01*
X215349D01*
Y294488D01*
X218498Y298424D02*
X219285Y299211D01*
X220859D01*
X221646Y298424D01*
Y295275D01*
X220859Y294488D01*
X219285D01*
X218498Y295275D01*
Y298424D01*
X143307Y277951D02*
Y273228D01*
X145668D01*
X146456Y274015D01*
Y274803D01*
X145668Y275590D01*
X143307D01*
X145668D01*
X146456Y276377D01*
Y277164D01*
X145668Y277951D01*
X143307D01*
X150391D02*
X148817D01*
X148030Y277164D01*
Y274015D01*
X148817Y273228D01*
X150391D01*
X151179Y274015D01*
Y277164D01*
X150391Y277951D01*
X155114D02*
X153540D01*
X152753Y277164D01*
Y274015D01*
X153540Y273228D01*
X155114D01*
X155901Y274015D01*
Y277164D01*
X155114Y277951D01*
X157476D02*
X160624D01*
X159050D01*
Y273228D01*
X162199D02*
X163773D01*
X162986D01*
Y277951D01*
X162199Y277164D01*
X153936Y286613D02*
X153149Y287400D01*
X151575D01*
X150787Y286613D01*
Y283464D01*
X151575Y282677D01*
X153149D01*
X153936Y283464D01*
Y285039D01*
X152362D01*
X155510Y282677D02*
Y287400D01*
X158659Y282677D01*
Y287400D01*
X160233D02*
Y282677D01*
X162595D01*
X163382Y283464D01*
Y286613D01*
X162595Y287400D01*
X160233D01*
X146850Y265747D02*
X147637Y266534D01*
X149212D01*
X149999Y265747D01*
Y264960D01*
X149212Y264173D01*
X148425D01*
X149212D01*
X149999Y263385D01*
Y262598D01*
X149212Y261811D01*
X147637D01*
X146850Y262598D01*
X151573Y261811D02*
Y262598D01*
X152360D01*
Y261811D01*
X151573D01*
X155509Y265747D02*
X156296Y266534D01*
X157870D01*
X158658Y265747D01*
Y264960D01*
X157870Y264173D01*
X157083D01*
X157870D01*
X158658Y263385D01*
Y262598D01*
X157870Y261811D01*
X156296D01*
X155509Y262598D01*
X160232Y266534D02*
Y263385D01*
X161806Y261811D01*
X163381Y263385D01*
Y266534D01*
X231495Y341732D02*
X232282Y340945D01*
Y339371D01*
X231495Y338584D01*
X230708D01*
X229921Y339371D01*
Y340158D01*
Y339371D01*
X229133Y338584D01*
X228346D01*
X227559Y339371D01*
Y340945D01*
X228346Y341732D01*
X227559Y337009D02*
X228346D01*
Y336222D01*
X227559D01*
Y337009D01*
X231495Y333074D02*
X232282Y332287D01*
Y330712D01*
X231495Y329925D01*
X230708D01*
X229921Y330712D01*
Y331499D01*
Y330712D01*
X229133Y329925D01*
X228346D01*
X227559Y330712D01*
Y332287D01*
X228346Y333074D01*
X241337Y338584D02*
X242124Y339371D01*
Y340945D01*
X241337Y341732D01*
X240550D01*
X239763Y340945D01*
Y339371D01*
X238976Y338584D01*
X238189D01*
X237402Y339371D01*
Y340945D01*
X238189Y341732D01*
X242124Y337009D02*
X237402D01*
X238976Y335435D01*
X237402Y333861D01*
X242124D01*
X241337Y329138D02*
X242124Y329925D01*
Y331499D01*
X241337Y332287D01*
X238189D01*
X237402Y331499D01*
Y329925D01*
X238189Y329138D01*
X267717Y341732D02*
X272439D01*
Y339371D01*
X271652Y338584D01*
X270078D01*
X269291Y339371D01*
Y341732D01*
Y340158D02*
X267717Y338584D01*
X271652Y333861D02*
X272439Y334648D01*
Y336222D01*
X271652Y337009D01*
X270865D01*
X270078Y336222D01*
Y334648D01*
X269291Y333861D01*
X268504D01*
X267717Y334648D01*
Y336222D01*
X268504Y337009D01*
X272439Y332287D02*
Y329138D01*
Y330712D01*
X267717D01*
X261416Y338584D02*
X262203Y339371D01*
Y340945D01*
X261416Y341732D01*
X260629D01*
X259842Y340945D01*
Y339371D01*
X259055Y338584D01*
X258267D01*
X257480Y339371D01*
Y340945D01*
X258267Y341732D01*
X262203Y337009D02*
X257480D01*
X259055Y335435D01*
X257480Y333861D01*
X262203D01*
Y332287D02*
X257480D01*
Y329925D01*
X258267Y329138D01*
X261416D01*
X262203Y329925D01*
Y332287D01*
X251573Y338584D02*
X252361Y339371D01*
Y340945D01*
X251573Y341732D01*
X248425D01*
X247638Y340945D01*
Y339371D01*
X248425Y338584D01*
X249999D01*
Y340158D01*
X247638Y337009D02*
X252361D01*
X247638Y333861D01*
X252361D01*
Y332287D02*
X247638D01*
Y329925D01*
X248425Y329138D01*
X251573D01*
X252361Y329925D01*
Y332287D01*
X320077Y341732D02*
Y338584D01*
Y340158D01*
X315354D01*
X318503Y337009D02*
X315354Y333861D01*
X316929Y335435D01*
X318503Y333861D01*
X315354Y337009D01*
X320077Y332287D02*
X315354D01*
Y329925D01*
X316142Y329138D01*
X319290D01*
X320077Y329925D01*
Y332287D01*
X305512Y341732D02*
X310235D01*
Y339371D01*
X309448Y338584D01*
X307873D01*
X307086Y339371D01*
Y341732D01*
Y340158D02*
X305512Y338584D01*
X308660Y337009D02*
X305512Y333861D01*
X307086Y335435D01*
X308660Y333861D01*
X305512Y337009D01*
X310235Y332287D02*
X305512D01*
Y329925D01*
X306299Y329138D01*
X309448D01*
X310235Y329925D01*
Y332287D01*
X299211Y341732D02*
X299998Y340945D01*
Y339371D01*
X299211Y338584D01*
X298424D01*
X297637Y339371D01*
Y340158D01*
Y339371D01*
X296850Y338584D01*
X296063D01*
X295276Y339371D01*
Y340945D01*
X296063Y341732D01*
X295276Y337009D02*
X296063D01*
Y336222D01*
X295276D01*
Y337009D01*
X299211Y333074D02*
X299998Y332287D01*
Y330712D01*
X299211Y329925D01*
X298424D01*
X297637Y330712D01*
Y331499D01*
Y330712D01*
X296850Y329925D01*
X296063D01*
X295276Y330712D01*
Y332287D01*
X296063Y333074D01*
X289369Y338584D02*
X290156Y339371D01*
Y340945D01*
X289369Y341732D01*
X286220D01*
X285433Y340945D01*
Y339371D01*
X286220Y338584D01*
X287794D01*
Y340158D01*
X285433Y337009D02*
X290156D01*
X285433Y333861D01*
X290156D01*
Y332287D02*
X285433D01*
Y329925D01*
X286220Y329138D01*
X289369D01*
X290156Y329925D01*
Y332287D01*
X52212Y322140D02*
X50212D01*
X49213Y321140D01*
Y317141D01*
X50212Y316142D01*
X52212D01*
X53211Y317141D01*
Y321140D01*
X52212Y322140D01*
X59209D02*
X55211D01*
Y319141D01*
X57210D01*
X55211D01*
Y316142D01*
X65207Y322140D02*
X61209D01*
Y319141D01*
X63208D01*
X61209D01*
Y316142D01*
X52212Y302061D02*
X50212D01*
X49213Y301061D01*
Y297063D01*
X50212Y296063D01*
X52212D01*
X53211Y297063D01*
Y301061D01*
X52212Y302061D01*
X55211Y296063D02*
Y302061D01*
X59209Y296063D01*
Y302061D01*
X34646Y331890D02*
Y337888D01*
X37645D01*
X38644Y336888D01*
Y334889D01*
X37645Y333889D01*
X34646D01*
X36645D02*
X38644Y331890D01*
X40644Y335889D02*
X44642Y331890D01*
X42643Y333889D01*
X44642Y335889D01*
X40644Y331890D01*
X46642Y337888D02*
X50640D01*
X48641D01*
Y331890D01*
X52640Y335889D02*
X56639Y331890D01*
X54639Y333889D01*
X56639Y335889D01*
X52640Y331890D01*
X54626Y8262D02*
Y2264D01*
X57625D01*
X58625Y3263D01*
Y4263D01*
X57625Y5263D01*
X54626D01*
X57625D01*
X58625Y6262D01*
Y7262D01*
X57625Y8262D01*
X54626D01*
X60624Y5263D02*
X64623D01*
X62623Y7262D02*
Y3263D01*
X72620Y8262D02*
Y2264D01*
X75619D01*
X76619Y3263D01*
Y4263D01*
X75619Y5263D01*
X72620D01*
X75619D01*
X76619Y6262D01*
Y7262D01*
X75619Y8262D01*
X72620D01*
X78618Y5263D02*
X82617D01*
X94613Y7262D02*
X93613Y8262D01*
X91614D01*
X90614Y7262D01*
Y3263D01*
X91614Y2264D01*
X93613D01*
X94613Y3263D01*
Y5263D01*
X92614D01*
X86516Y223222D02*
Y218224D01*
X87515Y217224D01*
X89515D01*
X90514Y218224D01*
Y223222D01*
X96513D02*
X92514D01*
Y220223D01*
X94513Y221223D01*
X95513D01*
X96513Y220223D01*
Y218224D01*
X95513Y217224D01*
X93514D01*
X92514Y218224D01*
X101637Y35132D02*
X99637D01*
X100637D01*
Y30134D01*
X99637Y29134D01*
X98637D01*
X97638Y30134D01*
X103636Y29134D02*
X105635D01*
X104636D01*
Y35132D01*
X103636Y34132D01*
X108634Y29134D02*
X110634D01*
X109634D01*
Y35132D01*
X108634Y34132D01*
X433526Y41431D02*
X431527D01*
X432527D01*
Y36433D01*
X431527Y35433D01*
X430527D01*
X429528Y36433D01*
X435526Y35433D02*
X437525D01*
X436525D01*
Y41431D01*
X435526Y40431D01*
X444523Y35433D02*
X440524D01*
X444523Y39432D01*
Y40431D01*
X443523Y41431D01*
X441524D01*
X440524Y40431D01*
X434738Y75197D02*
X428740D01*
Y72198D01*
X429740Y71198D01*
X433739D01*
X434738Y72198D01*
Y75197D01*
X428740Y69199D02*
Y67199D01*
Y68199D01*
X434738D01*
X433739Y69199D01*
X407578Y267702D02*
Y262703D01*
X408578Y261703D01*
X410577D01*
X411577Y262703D01*
Y267702D01*
X413576D02*
X417575D01*
Y266702D01*
X413576Y262703D01*
Y261703D01*
X386888Y242852D02*
X387888Y243851D01*
Y245851D01*
X386888Y246850D01*
X382889D01*
X381890Y245851D01*
Y243851D01*
X382889Y242852D01*
X381890Y240852D02*
Y238853D01*
Y239853D01*
X387888D01*
X386888Y240852D01*
X387888Y231855D02*
Y235854D01*
X384889D01*
X385889Y233855D01*
Y232855D01*
X384889Y231855D01*
X382889D01*
X381890Y232855D01*
Y234854D01*
X382889Y235854D01*
X443836Y240605D02*
X437838D01*
Y243604D01*
X438837Y244604D01*
X440837D01*
X441837Y243604D01*
Y240605D01*
Y242604D02*
X443836Y244604D01*
X437838Y250602D02*
X438837Y248603D01*
X440837Y246603D01*
X442836D01*
X443836Y247603D01*
Y249602D01*
X442836Y250602D01*
X441837D01*
X440837Y249602D01*
Y246603D01*
X443836Y256600D02*
Y252601D01*
X439837Y256600D01*
X438837D01*
X437838Y255600D01*
Y253601D01*
X438837Y252601D01*
X394369Y276710D02*
X395368Y277710D01*
Y279709D01*
X394369Y280709D01*
X390370D01*
X389370Y279709D01*
Y277710D01*
X390370Y276710D01*
X389370Y274711D02*
Y272711D01*
Y273711D01*
X395368D01*
X394369Y274711D01*
X395368Y265714D02*
X394369Y267713D01*
X392369Y269712D01*
X390370D01*
X389370Y268712D01*
Y266713D01*
X390370Y265714D01*
X391369D01*
X392369Y266713D01*
Y269712D01*
X434646Y213386D02*
Y219384D01*
X437645D01*
X438644Y218384D01*
Y216385D01*
X437645Y215385D01*
X434646D01*
X436645D02*
X438644Y213386D01*
X444642Y219384D02*
X442643Y218384D01*
X440644Y216385D01*
Y214386D01*
X441643Y213386D01*
X443643D01*
X444642Y214386D01*
Y215385D01*
X443643Y216385D01*
X440644D01*
X446642Y218384D02*
X447642Y219384D01*
X449641D01*
X450640Y218384D01*
Y217385D01*
X449641Y216385D01*
X448641D01*
X449641D01*
X450640Y215385D01*
Y214386D01*
X449641Y213386D01*
X447642D01*
X446642Y214386D01*
X354677Y341598D02*
Y335600D01*
Y338599D01*
X358676D01*
Y341598D01*
Y335600D01*
X360675Y341598D02*
Y335600D01*
X364673D01*
X366673D02*
X368672D01*
X367673D01*
Y341598D01*
X366673Y340598D01*
X416142Y213386D02*
Y219384D01*
X419141D01*
X420140Y218384D01*
Y216385D01*
X419141Y215385D01*
X416142D01*
X418141D02*
X420140Y213386D01*
X426138Y219384D02*
X424139Y218384D01*
X422140Y216385D01*
Y214386D01*
X423139Y213386D01*
X425139D01*
X426138Y214386D01*
Y215385D01*
X425139Y216385D01*
X422140D01*
X431137Y213386D02*
Y219384D01*
X428138Y216385D01*
X432137D01*
X347736Y320565D02*
Y314567D01*
X351735D01*
X353734D02*
X355734D01*
X354734D01*
Y320565D01*
X353734Y319565D01*
X412857Y312479D02*
X411857Y313478D01*
X409858D01*
X408858Y312479D01*
Y308480D01*
X409858Y307480D01*
X411857D01*
X412857Y308480D01*
X414856Y307480D02*
X416856D01*
X415856D01*
Y313478D01*
X414856Y312479D01*
X419855Y313478D02*
X423853D01*
Y312479D01*
X419855Y308480D01*
Y307480D01*
X370866Y335777D02*
Y341775D01*
X373865D01*
X374865Y340775D01*
Y338776D01*
X373865Y337776D01*
X370866D01*
X372866D02*
X374865Y335777D01*
X380863Y341775D02*
X378864Y340775D01*
X376864Y338776D01*
Y336777D01*
X377864Y335777D01*
X379863D01*
X380863Y336777D01*
Y337776D01*
X379863Y338776D01*
X376864D01*
X386861Y341775D02*
X382862D01*
Y338776D01*
X384862Y339776D01*
X385861D01*
X386861Y338776D01*
Y336777D01*
X385861Y335777D01*
X383862D01*
X382862Y336777D01*
X394270Y304269D02*
X395270Y305269D01*
Y307268D01*
X394270Y308268D01*
X390271D01*
X389272Y307268D01*
Y305269D01*
X390271Y304269D01*
X389272Y302270D02*
Y300270D01*
Y301270D01*
X395270D01*
X394270Y302270D01*
Y297271D02*
X395270Y296272D01*
Y294272D01*
X394270Y293273D01*
X393270D01*
X392271Y294272D01*
X391271Y293273D01*
X390271D01*
X389272Y294272D01*
Y296272D01*
X390271Y297271D01*
X391271D01*
X392271Y296272D01*
X393270Y297271D01*
X394270D01*
X392271Y296272D02*
Y294272D01*
X407179Y250886D02*
X401181D01*
Y247887D01*
X402181Y246887D01*
X406180D01*
X407179Y247887D01*
Y250886D01*
X401181Y240889D02*
Y244888D01*
X405180Y240889D01*
X406180D01*
X407179Y241889D01*
Y243888D01*
X406180Y244888D01*
X402030Y218778D02*
X401030Y219778D01*
X399031D01*
X398031Y218778D01*
Y214779D01*
X399031Y213779D01*
X401030D01*
X402030Y214779D01*
X404030Y213779D02*
X406029D01*
X405029D01*
Y219778D01*
X404030Y218778D01*
X409028Y214779D02*
X410028Y213779D01*
X412027D01*
X413027Y214779D01*
Y218778D01*
X412027Y219778D01*
X410028D01*
X409028Y218778D01*
Y217778D01*
X410028Y216779D01*
X413027D01*
X237402Y240644D02*
Y235645D01*
X238401Y234646D01*
X240401D01*
X241400Y235645D01*
Y240644D01*
X243400Y234646D02*
X245399D01*
X244399D01*
Y240644D01*
X243400Y239644D01*
X177719Y339447D02*
X176719Y340447D01*
X174720D01*
X173721Y339447D01*
Y338447D01*
X174720Y337448D01*
X176719D01*
X177719Y336448D01*
Y335449D01*
X176719Y334449D01*
X174720D01*
X173721Y335449D01*
X179718Y340447D02*
Y334449D01*
X181718Y336448D01*
X183717Y334449D01*
Y340447D01*
X185717Y334449D02*
X187716D01*
X186716D01*
Y340447D01*
X185717Y339447D01*
X226392Y191592D02*
Y186594D01*
X227391Y185594D01*
X229391D01*
X230390Y186594D01*
Y191592D01*
X236388Y185594D02*
X232390D01*
X236388Y189593D01*
Y190593D01*
X235389Y191592D01*
X233389D01*
X232390Y190593D01*
X210236Y275197D02*
Y281195D01*
X213235D01*
X214235Y280195D01*
Y278196D01*
X213235Y277196D01*
X210236D01*
X212236D02*
X214235Y275197D01*
X216234D02*
X218234D01*
X217234D01*
Y281195D01*
X216234Y280195D01*
X210236Y265748D02*
Y271746D01*
X213235D01*
X214235Y270746D01*
Y268747D01*
X213235Y267747D01*
X210236D01*
X212236D02*
X214235Y265748D01*
X216234Y270746D02*
X217234Y271746D01*
X219233D01*
X220233Y270746D01*
Y269747D01*
X219233Y268747D01*
X218234D01*
X219233D01*
X220233Y267747D01*
Y266748D01*
X219233Y265748D01*
X217234D01*
X216234Y266748D01*
X228639Y157361D02*
X227639Y158360D01*
X225640D01*
X224640Y157361D01*
Y153362D01*
X225640Y152362D01*
X227639D01*
X228639Y153362D01*
X230638Y152362D02*
X232637D01*
X231638D01*
Y158360D01*
X230638Y157361D01*
X282185Y315349D02*
Y310350D01*
X283185Y309350D01*
X285184D01*
X286184Y310350D01*
Y315349D01*
X292182Y314349D02*
X291182Y315349D01*
X289183D01*
X288183Y314349D01*
Y313349D01*
X289183Y312349D01*
X291182D01*
X292182Y311350D01*
Y310350D01*
X291182Y309350D01*
X289183D01*
X288183Y310350D01*
X294181Y309350D02*
Y313349D01*
X296181Y315349D01*
X298180Y313349D01*
Y309350D01*
Y312349D01*
X294181D01*
X300179Y309350D02*
Y315349D01*
X303178D01*
X304178Y314349D01*
Y312349D01*
X303178Y311350D01*
X300179D01*
X302179D02*
X304178Y309350D01*
X306177Y315349D02*
X310176D01*
X308177D01*
Y309350D01*
X228802Y313660D02*
X227802Y314660D01*
X225803D01*
X224803Y313660D01*
Y312660D01*
X225803Y311660D01*
X227802D01*
X228802Y310661D01*
Y309661D01*
X227802Y308661D01*
X225803D01*
X224803Y309661D01*
X230801Y314660D02*
Y308661D01*
X232801Y310661D01*
X234800Y308661D01*
Y314660D01*
X236799D02*
Y308661D01*
X239798D01*
X240798Y309661D01*
Y313660D01*
X239798Y314660D01*
X236799D01*
X170686Y299706D02*
Y293707D01*
X173685D01*
X174685Y294707D01*
Y295707D01*
X173685Y296707D01*
X170686D01*
X173685D01*
X174685Y297706D01*
Y298706D01*
X173685Y299706D01*
X170686D01*
X179683D02*
X177684D01*
X176684Y298706D01*
Y294707D01*
X177684Y293707D01*
X179683D01*
X180683Y294707D01*
Y298706D01*
X179683Y299706D01*
X185681D02*
X183682D01*
X182682Y298706D01*
Y294707D01*
X183682Y293707D01*
X185681D01*
X186681Y294707D01*
Y298706D01*
X185681Y299706D01*
X188680D02*
X192679D01*
X190680D01*
Y293707D01*
X205199Y112193D02*
Y116192D01*
X204199Y117191D01*
X202200D01*
X201200Y116192D01*
Y112193D01*
X202200Y111193D01*
X204199D01*
X203199Y113193D02*
X205199Y111193D01*
X204199D02*
X205199Y112193D01*
X207198Y116192D02*
X208198Y117191D01*
X210197D01*
X211197Y116192D01*
Y115192D01*
X210197Y114192D01*
X209197D01*
X210197D01*
X211197Y113193D01*
Y112193D01*
X210197Y111193D01*
X208198D01*
X207198Y112193D01*
X177129Y111826D02*
Y115825D01*
X176129Y116825D01*
X174130D01*
X173130Y115825D01*
Y111826D01*
X174130Y110827D01*
X176129D01*
X175129Y112826D02*
X177129Y110827D01*
X176129D02*
X177129Y111826D01*
X183127Y110827D02*
X179128D01*
X183127Y114825D01*
Y115825D01*
X182127Y116825D01*
X180128D01*
X179128Y115825D01*
X150849Y111925D02*
Y115924D01*
X149849Y116923D01*
X147850D01*
X146850Y115924D01*
Y111925D01*
X147850Y110925D01*
X149849D01*
X148850Y112925D02*
X150849Y110925D01*
X149849D02*
X150849Y111925D01*
X152848Y110925D02*
X154848D01*
X153848D01*
Y116923D01*
X152848Y115924D01*
X183249Y46291D02*
X181249D01*
X182249D01*
Y41293D01*
X181249Y40293D01*
X180250D01*
X179250Y41293D01*
X185248Y40293D02*
X187247D01*
X186248D01*
Y46291D01*
X185248Y45292D01*
X24409Y180282D02*
Y186280D01*
X27408D01*
X28408Y185281D01*
Y183281D01*
X27408Y182281D01*
X24409D01*
X26409D02*
X28408Y180282D01*
X30408D02*
X32407D01*
X31407D01*
Y186280D01*
X30408Y185281D01*
X35406Y180282D02*
X37405D01*
X36406D01*
Y186280D01*
X35406Y185281D01*
X24508Y170800D02*
Y176799D01*
X27507D01*
X28507Y175799D01*
Y173800D01*
X27507Y172800D01*
X24508D01*
X26507D02*
X28507Y170800D01*
X30506D02*
X32505D01*
X31506D01*
Y176799D01*
X30506Y175799D01*
X35504D02*
X36504Y176799D01*
X38503D01*
X39503Y175799D01*
Y171800D01*
X38503Y170800D01*
X36504D01*
X35504Y171800D01*
Y175799D01*
X306785Y219013D02*
X300787Y215014D01*
X306785D02*
X300787Y219013D01*
Y209016D02*
Y213015D01*
X304786Y209016D01*
X305786D01*
X306785Y210016D01*
Y212015D01*
X305786Y213015D01*
X286271Y184252D02*
X280273Y180253D01*
X286271D02*
X280273Y184252D01*
Y178254D02*
Y176255D01*
Y177254D01*
X286271D01*
X285271Y178254D01*
X212289Y46291D02*
X210289D01*
X211289D01*
Y41293D01*
X210289Y40293D01*
X209290D01*
X208290Y41293D01*
X218287Y40293D02*
X214288D01*
X218287Y44292D01*
Y45292D01*
X217287Y46291D01*
X215288D01*
X214288Y45292D01*
X334132Y244426D02*
X335132Y245426D01*
Y247426D01*
X334132Y248425D01*
X330134D01*
X329134Y247426D01*
Y245426D01*
X330134Y244426D01*
X335132Y238428D02*
X334132Y240428D01*
X332133Y242427D01*
X330134D01*
X329134Y241427D01*
Y239428D01*
X330134Y238428D01*
X331133D01*
X332133Y239428D01*
Y242427D01*
X334526Y186946D02*
X335526Y187946D01*
Y189945D01*
X334526Y190945D01*
X330527D01*
X329528Y189945D01*
Y187946D01*
X330527Y186946D01*
X335526Y180948D02*
Y184947D01*
X332527D01*
X333526Y182948D01*
Y181948D01*
X332527Y180948D01*
X330527D01*
X329528Y181948D01*
Y183947D01*
X330527Y184947D01*
X287577Y210962D02*
X288577Y211962D01*
Y213961D01*
X287577Y214961D01*
X283578D01*
X282579Y213961D01*
Y211962D01*
X283578Y210962D01*
X282579Y205963D02*
X288577D01*
X285578Y208963D01*
Y204964D01*
X262085Y211651D02*
X263085Y212651D01*
Y214650D01*
X262085Y215650D01*
X258086D01*
X257087Y214650D01*
Y212651D01*
X258086Y211651D01*
X262085Y209651D02*
X263085Y208652D01*
Y206652D01*
X262085Y205653D01*
X261085D01*
X260086Y206652D01*
Y207652D01*
Y206652D01*
X259086Y205653D01*
X258086D01*
X257087Y206652D01*
Y208652D01*
X258086Y209651D01*
X407087Y167415D02*
Y161417D01*
X410086D01*
X411085Y162417D01*
Y163417D01*
X410086Y164416D01*
X407087D01*
X410086D01*
X411085Y165416D01*
Y166416D01*
X410086Y167415D01*
X407087D01*
X413085D02*
X417083D01*
X415084D01*
Y161417D01*
X419083D02*
X421082D01*
X420082D01*
Y167415D01*
X419083Y166416D01*
X241329Y46291D02*
X239329D01*
X240329D01*
Y41293D01*
X239329Y40293D01*
X238330D01*
X237330Y41293D01*
X243328Y45292D02*
X244328Y46291D01*
X246327D01*
X247327Y45292D01*
Y44292D01*
X246327Y43292D01*
X245327D01*
X246327D01*
X247327Y42293D01*
Y41293D01*
X246327Y40293D01*
X244328D01*
X243328Y41293D01*
X370746Y206336D02*
X371746Y207336D01*
Y209335D01*
X370746Y210335D01*
X366748D01*
X365748Y209335D01*
Y207336D01*
X366748Y206336D01*
X371746Y204337D02*
Y200338D01*
X370746D01*
X366748Y204337D01*
X365748D01*
X287876Y112193D02*
Y116192D01*
X286877Y117191D01*
X284877D01*
X283878Y116192D01*
Y112193D01*
X284877Y111193D01*
X286877D01*
X285877Y113193D02*
X287876Y111193D01*
X286877D02*
X287876Y112193D01*
X293874Y117191D02*
X291875Y116192D01*
X289876Y114192D01*
Y112193D01*
X290875Y111193D01*
X292875D01*
X293874Y112193D01*
Y113193D01*
X292875Y114192D01*
X289876D01*
X260809Y112193D02*
Y116192D01*
X259810Y117191D01*
X257810D01*
X256811Y116192D01*
Y112193D01*
X257810Y111193D01*
X259810D01*
X258810Y113193D02*
X260809Y111193D01*
X259810D02*
X260809Y112193D01*
X266807Y117191D02*
X262809D01*
Y114192D01*
X264808Y115192D01*
X265808D01*
X266807Y114192D01*
Y112193D01*
X265808Y111193D01*
X263808D01*
X262809Y112193D01*
X232574D02*
Y116192D01*
X231574Y117191D01*
X229575D01*
X228575Y116192D01*
Y112193D01*
X229575Y111193D01*
X231574D01*
X230574Y113193D02*
X232574Y111193D01*
X231574D02*
X232574Y112193D01*
X237572Y111193D02*
Y117191D01*
X234573Y114192D01*
X238572D01*
X270369Y46291D02*
X268369D01*
X269369D01*
Y41293D01*
X268369Y40293D01*
X267370D01*
X266370Y41293D01*
X275367Y40293D02*
Y46291D01*
X272368Y43292D01*
X276367D01*
X299409Y46291D02*
X297409D01*
X298409D01*
Y41293D01*
X297409Y40293D01*
X296410D01*
X295410Y41293D01*
X305407Y46291D02*
X301408D01*
Y43292D01*
X303407Y44292D01*
X304407D01*
X305407Y43292D01*
Y41293D01*
X304407Y40293D01*
X302408D01*
X301408Y41293D01*
X283920Y229014D02*
X282920Y230014D01*
X280921D01*
X279921Y229014D01*
Y225015D01*
X280921Y224016D01*
X282920D01*
X283920Y225015D01*
X285919Y224016D02*
X287919D01*
X286919D01*
Y230014D01*
X285919Y229014D01*
X290918Y224016D02*
X292917D01*
X291917D01*
Y230014D01*
X290918Y229014D01*
X288463Y288127D02*
X289463Y289127D01*
Y291126D01*
X288463Y292126D01*
X284464D01*
X283465Y291126D01*
Y289127D01*
X284464Y288127D01*
X283465Y286128D02*
Y284129D01*
Y285128D01*
X289463D01*
X288463Y286128D01*
Y281130D02*
X289463Y280130D01*
Y278131D01*
X288463Y277131D01*
X284464D01*
X283465Y278131D01*
Y280130D01*
X284464Y281130D01*
X288463D01*
X232718Y284132D02*
X231719Y285132D01*
X229719D01*
X228719Y284132D01*
Y280134D01*
X229719Y279134D01*
X231719D01*
X232718Y280134D01*
X234718D02*
X235717Y279134D01*
X237717D01*
X238716Y280134D01*
Y284132D01*
X237717Y285132D01*
X235717D01*
X234718Y284132D01*
Y283133D01*
X235717Y282133D01*
X238716D01*
X220122Y244426D02*
X221122Y245426D01*
Y247426D01*
X220122Y248425D01*
X216123D01*
X215124Y247426D01*
Y245426D01*
X216123Y244426D01*
X220122Y242427D02*
X221122Y241427D01*
Y239428D01*
X220122Y238428D01*
X219122D01*
X218123Y239428D01*
X217123Y238428D01*
X216123D01*
X215124Y239428D01*
Y241427D01*
X216123Y242427D01*
X217123D01*
X218123Y241427D01*
X219122Y242427D01*
X220122D01*
X218123Y241427D02*
Y239428D01*
X28445Y194390D02*
Y200388D01*
X31444D01*
X32444Y199388D01*
Y197389D01*
X31444Y196389D01*
X28445D01*
X30444D02*
X32444Y194390D01*
X34443Y199388D02*
X35443Y200388D01*
X37442D01*
X38442Y199388D01*
Y198389D01*
X37442Y197389D01*
X36442D01*
X37442D01*
X38442Y196389D01*
Y195389D01*
X37442Y194390D01*
X35443D01*
X34443Y195389D01*
X44440Y194390D02*
X40441D01*
X44440Y198389D01*
Y199388D01*
X43440Y200388D01*
X41441D01*
X40441Y199388D01*
X121653Y175295D02*
Y181293D01*
X124653D01*
X125652Y180294D01*
Y178294D01*
X124653Y177295D01*
X121653D01*
X123653D02*
X125652Y175295D01*
X127652Y180294D02*
X128651Y181293D01*
X130651D01*
X131650Y180294D01*
Y179294D01*
X130651Y178294D01*
X129651D01*
X130651D01*
X131650Y177295D01*
Y176295D01*
X130651Y175295D01*
X128651D01*
X127652Y176295D01*
X133650Y175295D02*
X135649D01*
X134649D01*
Y181293D01*
X133650Y180294D01*
X121850Y165650D02*
Y171648D01*
X124849D01*
X125849Y170648D01*
Y168649D01*
X124849Y167649D01*
X121850D01*
X123850D02*
X125849Y165650D01*
X127848Y170648D02*
X128848Y171648D01*
X130848D01*
X131847Y170648D01*
Y169648D01*
X130848Y168649D01*
X129848D01*
X130848D01*
X131847Y167649D01*
Y166649D01*
X130848Y165650D01*
X128848D01*
X127848Y166649D01*
X133846Y170648D02*
X134846Y171648D01*
X136846D01*
X137845Y170648D01*
Y166649D01*
X136846Y165650D01*
X134846D01*
X133846Y166649D01*
Y170648D01*
X121949Y156102D02*
Y162100D01*
X124948D01*
X125947Y161101D01*
Y159101D01*
X124948Y158102D01*
X121949D01*
X123948D02*
X125947Y156102D01*
X131946D02*
X127947D01*
X131946Y160101D01*
Y161101D01*
X130946Y162100D01*
X128947D01*
X127947Y161101D01*
X133945Y157102D02*
X134945Y156102D01*
X136944D01*
X137944Y157102D01*
Y161101D01*
X136944Y162100D01*
X134945D01*
X133945Y161101D01*
Y160101D01*
X134945Y159101D01*
X137944D01*
X121949Y146653D02*
Y152652D01*
X124948D01*
X125947Y151652D01*
Y149653D01*
X124948Y148653D01*
X121949D01*
X123948D02*
X125947Y146653D01*
X131946D02*
X127947D01*
X131946Y150652D01*
Y151652D01*
X130946Y152652D01*
X128947D01*
X127947Y151652D01*
X133945D02*
X134945Y152652D01*
X136944D01*
X137944Y151652D01*
Y150652D01*
X136944Y149653D01*
X137944Y148653D01*
Y147653D01*
X136944Y146653D01*
X134945D01*
X133945Y147653D01*
Y148653D01*
X134945Y149653D01*
X133945Y150652D01*
Y151652D01*
X134945Y149653D02*
X136944D01*
X122047Y136811D02*
Y142809D01*
X125046D01*
X126046Y141809D01*
Y139810D01*
X125046Y138810D01*
X122047D01*
X124047D02*
X126046Y136811D01*
X132044D02*
X128045D01*
X132044Y140810D01*
Y141809D01*
X131044Y142809D01*
X129045D01*
X128045Y141809D01*
X134043Y142809D02*
X138042D01*
Y141809D01*
X134043Y137811D01*
Y136811D01*
X28445Y203445D02*
Y209443D01*
X31444D01*
X32444Y208443D01*
Y206444D01*
X31444Y205444D01*
X28445D01*
X30444D02*
X32444Y203445D01*
X38442D02*
X34443D01*
X38442Y207444D01*
Y208443D01*
X37442Y209443D01*
X35443D01*
X34443Y208443D01*
X44440Y209443D02*
X42440Y208443D01*
X40441Y206444D01*
Y204445D01*
X41441Y203445D01*
X43440D01*
X44440Y204445D01*
Y205444D01*
X43440Y206444D01*
X40441D01*
X60692Y161298D02*
X59692Y162297D01*
X57693D01*
X56693Y161298D01*
Y157299D01*
X57693Y156299D01*
X59692D01*
X60692Y157299D01*
X62691Y156299D02*
X64690D01*
X63691D01*
Y162297D01*
X62691Y161298D01*
X71688Y156299D02*
X67689D01*
X71688Y160298D01*
Y161298D01*
X70688Y162297D01*
X68689D01*
X67689Y161298D01*
X328449Y46291D02*
X326449D01*
X327449D01*
Y41293D01*
X326449Y40293D01*
X325450D01*
X324450Y41293D01*
X334447Y46291D02*
X332447Y45292D01*
X330448Y43292D01*
Y41293D01*
X331448Y40293D01*
X333447D01*
X334447Y41293D01*
Y42293D01*
X333447Y43292D01*
X330448D01*
X369449Y112193D02*
Y116192D01*
X368449Y117191D01*
X366450D01*
X365450Y116192D01*
Y112193D01*
X366450Y111193D01*
X368449D01*
X367449Y113193D02*
X369449Y111193D01*
X368449D02*
X369449Y112193D01*
X371448D02*
X372448Y111193D01*
X374447D01*
X375447Y112193D01*
Y116192D01*
X374447Y117191D01*
X372448D01*
X371448Y116192D01*
Y115192D01*
X372448Y114192D01*
X375447D01*
X342074Y112193D02*
Y116192D01*
X341074Y117191D01*
X339075D01*
X338075Y116192D01*
Y112193D01*
X339075Y111193D01*
X341074D01*
X340074Y113193D02*
X342074Y111193D01*
X341074D02*
X342074Y112193D01*
X344073Y116192D02*
X345073Y117191D01*
X347072D01*
X348072Y116192D01*
Y115192D01*
X347072Y114192D01*
X348072Y113193D01*
Y112193D01*
X347072Y111193D01*
X345073D01*
X344073Y112193D01*
Y113193D01*
X345073Y114192D01*
X344073Y115192D01*
Y116192D01*
X345073Y114192D02*
X347072D01*
X314699Y112193D02*
Y116192D01*
X313699Y117191D01*
X311700D01*
X310700Y116192D01*
Y112193D01*
X311700Y111193D01*
X313699D01*
X312699Y113193D02*
X314699Y111193D01*
X313699D02*
X314699Y112193D01*
X316698Y117191D02*
X320697D01*
Y116192D01*
X316698Y112193D01*
Y111193D01*
X148228Y313386D02*
Y319384D01*
X151227D01*
X152227Y318384D01*
Y316385D01*
X151227Y315385D01*
X148228D01*
X150228D02*
X152227Y313386D01*
X158225Y319384D02*
X154226D01*
Y316385D01*
X156226Y317385D01*
X157225D01*
X158225Y316385D01*
Y314386D01*
X157225Y313386D01*
X155226D01*
X154226Y314386D01*
X160224Y318384D02*
X161224Y319384D01*
X163224D01*
X164223Y318384D01*
Y317385D01*
X163224Y316385D01*
X162224D01*
X163224D01*
X164223Y315385D01*
Y314386D01*
X163224Y313386D01*
X161224D01*
X160224Y314386D01*
X93270Y318089D02*
X92271Y319089D01*
X90271D01*
X89272Y318089D01*
Y314090D01*
X90271Y313090D01*
X92271D01*
X93270Y314090D01*
X95270Y313090D02*
X97269D01*
X96269D01*
Y319089D01*
X95270Y318089D01*
X103267Y313090D02*
Y319089D01*
X100268Y316090D01*
X104267D01*
X177953Y253937D02*
X183951D01*
Y250938D01*
X182951Y249938D01*
X180952D01*
X179952Y250938D01*
Y253937D01*
Y251938D02*
X177953Y249938D01*
X183951Y243940D02*
Y247939D01*
X180952D01*
X181951Y245940D01*
Y244940D01*
X180952Y243940D01*
X178952D01*
X177953Y244940D01*
Y246939D01*
X178952Y247939D01*
X183951Y237942D02*
X182951Y239942D01*
X180952Y241941D01*
X178952D01*
X177953Y240941D01*
Y238942D01*
X178952Y237942D01*
X179952D01*
X180952Y238942D01*
Y241941D01*
X99668Y339742D02*
X98668Y340742D01*
X96669D01*
X95669Y339742D01*
Y338743D01*
X96669Y337743D01*
X98668D01*
X99668Y336743D01*
Y335744D01*
X98668Y334744D01*
X96669D01*
X95669Y335744D01*
X101667Y340742D02*
Y334744D01*
X103667Y336743D01*
X105666Y334744D01*
Y340742D01*
X111664Y334744D02*
X107665D01*
X111664Y338743D01*
Y339742D01*
X110664Y340742D01*
X108665D01*
X107665Y339742D01*
X68110Y324207D02*
X72109Y318209D01*
Y324207D02*
X68110Y318209D01*
X74108D02*
Y324207D01*
X77107D01*
X78107Y323207D01*
Y321208D01*
X77107Y320208D01*
X74108D01*
X83105Y318209D02*
Y324207D01*
X80106Y321208D01*
X84105D01*
X75098Y293104D02*
X79097Y287106D01*
Y293104D02*
X75098Y287106D01*
X81097D02*
Y293104D01*
X84096D01*
X85095Y292105D01*
Y290105D01*
X84096Y289106D01*
X81097D01*
X91093Y293104D02*
X87095D01*
Y290105D01*
X89094Y291105D01*
X90094D01*
X91093Y290105D01*
Y288106D01*
X90094Y287106D01*
X88094D01*
X87095Y288106D01*
D19*
X374299Y178108D02*
D03*
X374299Y151041D02*
D03*
D20*
X368147Y164526D02*
D03*
M02*
